<svg version="1" xmlns="http://www.w3.org/2000/svg" width="346.667" height="346.667" viewBox="0 0 260.000000 260.000000"><path d="M201.1 73.7c-6.1 11.4-10.8 19.2-11.5 18.9-25.5-11.3-50.9-17.6-66.1-16.3-9.9.7-15.5 5.2-15.5 12.3 0 6.4 3.1 8 33.2 16.3 25.8 7.2 33.6 9.9 45.3 15.9 19.5 10.1 28.5 24.3 28.5 45.1-.1 28-16.2 48.1-45.2 56.5-23.2 6.7-60.4 4.8-88.3-4.5-9.9-3.3-25.8-10.6-30.6-14-8.4-6-1.6 1.7 24.3 27.6l28.5 28.5h72.9c71 0 73-.1 76.2-2 1.8-1.1 4.1-3.4 5.2-5.2 1.9-3.2 2-5.2 2-76.8v-73.5l-24.3-24.2-24.2-24.1-10.4 19.5z"/><path d="M66.7 128.5c1.2 1.6 13.6 14.4 27.6 28.4 29 28.9 25.7 26.9 45.1 27 11.6.1 16.5-1.1 20.3-5.1 2.3-2.4 2.8-3.8 2.7-7.8-.1-8.9-3.2-10.6-35-18.9-34.6-9-48.7-14.5-58.5-22.9-4.2-3.5-4.3-3.6-2.2-.7z"/></svg>