<svg version="1" xmlns="http://www.w3.org/2000/svg" width="1706.667" height="1706.667" viewBox="0 0 1280.000000 1280.000000"><path d="M543.5 235.1c-43.3 1.9-98.3 7.6-130.4 13.5-49.6 9.1-89.2 21.6-125.1 39.5-36.8 18.5-64.4 41-85.6 69.9-29.6 40.4-43.1 97.1-36.9 155.5 3.8 36.4 13.5 64.5 31.6 92.3 6.5 10 10.5 14.8 20.9 25.6 34.4 35.7 80.7 58.1 143 69.2 7.4 1.3 88.9 13.6 181 27.4 92.1 13.8 170 25.5 173 26.1 15.2 3 27.1 8.9 34.8 17.3 7.5 8.2 10.9 20.1 9.2 32.8-1.4 11-4.5 17.2-12.1 24.6-16.9 16.3-62.2 24.4-119.2 21.4-59.9-3.2-86.9-13.5-98.2-37.3-3.2-6.8-4.4-12.2-6.1-26.2l-.5-4.7H152.7l.6 15.7c1.5 35.9 8.6 65.3 22.4 92.6 19.9 39.7 54.8 73.2 100.6 96.6 63.5 32.5 141.9 49.4 262.7 56.8 21.9 1.3 43.8 1.7 94.5 1.7 67.7.1 87.2-.6 133.3-4.5 211.2-17.8 326.3-85.2 353.6-207.1 3.9-17.1 5.6-32 6.3-52.3 2.8-86.8-34.1-150.8-110.7-192-32.9-17.7-74-31.1-121-39.4-6.3-1.2-91.6-13.8-189.5-28.1s-181.3-26.7-185.4-27.5c-12.9-2.6-20.3-7.1-24.4-14.9-1.8-3.4-2.2-5.8-2.2-14.6 0-9.5.3-11 2.8-16.2 9.4-19.2 39.6-29.3 93.3-31.4 49.5-2 96.1 7 120.3 23 15.4 10.3 25 26.3 25.1 41.7 0 2.6.3 6.1.6 7.8l.7 3.1h357l-.7-9.8c-4.5-63.1-30-115-75-152.8-63.8-53.6-163.5-83.5-311.6-93.4-43.3-2.9-119-3.8-162.5-1.9zM692 249.9c48.2 3 83.4 6.8 118.5 12.7 78.4 13.2 139.9 35.5 183.2 66.5 11.2 8.1 15.4 11.6 26.2 22.2 26.3 25.8 43.1 55.1 52 90.2 3.1 12.4 6.1 29.3 6.1 34.5v3H913.5c-130.8 0-164.6-.3-164.9-1.3-.2-.6-.9-4.1-1.6-7.6-4.3-23.2-23.3-41.8-54.2-53.4-27-10.2-71.7-15.2-112.1-12.7-46.2 2.8-71.1 10.3-87.3 26.5-10.4 10.3-14.4 19.7-14.4 34 0 23.7 12.2 37.8 37.8 43.6 2.3.5 82.9 12.4 179 26.4 183.7 26.8 201.7 29.6 223.1 34.5 67.2 15.2 119.5 42.7 151.1 79.5 29.1 33.9 43 73.9 43 124 0 94.2-40.8 159.6-126.5 202.3-54.2 27-130.4 45-223.5 52.6-43.5 3.6-59.7 4.1-130.5 4-74.3 0-94.5-.8-144-5.4-178.6-16.8-279-70.7-310.8-167-5.6-17-10.7-45.1-10.7-59.4V795l171.7.2 171.7.3 1.2 6.5c2.7 14.4 8.9 25.6 19.6 35.6 7.9 7.4 14.4 11.2 25.9 15.2 25.6 9 69.4 13.4 111.8 11.2 63.2-3.2 94.2-18.5 102.6-50.6 1.9-7.3 1.9-23.2.1-29.9-5.7-20.6-22.2-35.1-47.1-41.4-4.4-1.1-83.6-13.3-176-27.1S374 688.8 366 687.4c-113.9-19.9-177.2-79.8-187-177.1-1.6-15-.8-45.6 1.5-60.3 8.9-57.4 36.5-100.5 85-132.9 59-39.4 143.1-60.7 268-67.6 27.7-1.6 131.6-1.3 158.5.4z"/></svg>