<?xml version="1.0" encoding="UTF-8" standalone="no"?>
<!-- Created with Inkscape (http://www.inkscape.org/) -->

<svg
   xmlns:dc="http://purl.org/dc/elements/1.1/"
   xmlns:cc="http://creativecommons.org/ns#"
   xmlns:rdf="http://www.w3.org/1999/02/22-rdf-syntax-ns#"
   xmlns:svg="http://www.w3.org/2000/svg"
   xmlns="http://www.w3.org/2000/svg"
   xmlns:sodipodi="http://sodipodi.sourceforge.net/DTD/sodipodi-0.dtd"
   xmlns:inkscape="http://www.inkscape.org/namespaces/inkscape"
   width="210mm"
   height="297mm"
   viewBox="0 0 210 297"
   version="1.1"
   id="svg8"
   inkscape:version="0.92.2 (5c3e80d, 2017-08-06)"
   sodipodi:docname="sergix.svg"
   inkscape:export-filename="C:\Users\Sergi\design\exports\sergix-4k.png"
   inkscape:export-xdpi="962.20001"
   inkscape:export-ydpi="962.20001">
  <defs
     id="defs2">
    <style
       id="style2">
        @font-face {
            font-family: Loew;
            src: url("/fonts/otf/Loew-Heavy.otf"); }
    </style>
    <filter
       style="color-interpolation-filters:sRGB;"
       inkscape:label="Invert"
       id="filter2088">
      <feColorMatrix
         type="hueRotate"
         values="180"
         result="color1"
         id="feColorMatrix2084" />
      <feColorMatrix
         values="-1 0 0 0 1 0 -1 0 0 1 0 0 -1 0 1 -0.21 -0.72 -0.07 2 0 "
         result="fbSourceGraphic"
         id="feColorMatrix2086" />
      <feColorMatrix
         result="fbSourceGraphicAlpha"
         in="fbSourceGraphic"
         values="0 0 0 -1 0 0 0 0 -1 0 0 0 0 -1 0 0 0 0 1 0"
         id="feColorMatrix2090" />
      <feColorMatrix
         id="feColorMatrix2092"
         in="fbSourceGraphic"
         values="0 0 0 0 0 0 0 0 0 0 0 0 0 0 0 0 0 1 0 0 0 "
         result="colormatrix" />
      <feBlend
         in2="BackgroundImage"
         id="feBlend2094"
         mode="multiply"
         result="fbSourceGraphic" />
      <feColorMatrix
         result="fbSourceGraphicAlpha"
         in="fbSourceGraphic"
         values="0 0 0 -1 0 0 0 0 -1 0 0 0 0 -1 0 0 0 0 1 0"
         id="feColorMatrix841" />
      <feColorMatrix
         id="feColorMatrix843"
         type="hueRotate"
         values="180"
         result="color1"
         in="fbSourceGraphic" />
      <feColorMatrix
         id="feColorMatrix845"
         values="-1 0 0 0 1 0 -1 0 0 1 0 0 -1 0 1 -0.21 -0.72 -0.07 2 0 "
         result="fbSourceGraphic" />
      <feColorMatrix
         result="fbSourceGraphicAlpha"
         in="fbSourceGraphic"
         values="0 0 0 -1 0 0 0 0 -1 0 0 0 0 -1 0 0 0 0 1 0"
         id="feColorMatrix852" />
      <feColorMatrix
         id="feColorMatrix854"
         type="hueRotate"
         values="180"
         result="color1"
         in="fbSourceGraphic" />
      <feColorMatrix
         id="feColorMatrix856"
         values="-1 0 0 0 1 0 -1 0 0 1 0 0 -1 0 1 -0.21 -0.72 -0.07 2 0 "
         result="color2" />
    </filter>
  </defs>
  <sodipodi:namedview
     id="base"
     pagecolor="#ffffff"
     bordercolor="#666666"
     borderopacity="1.0"
     inkscape:pageopacity="0.0"
     inkscape:pageshadow="2"
     inkscape:zoom="16"
     inkscape:cx="513.51122"
     inkscape:cy="1006.8898"
     inkscape:document-units="mm"
     inkscape:current-layer="layer1"
     showgrid="false"
     inkscape:window-width="1366"
     inkscape:window-height="745"
     inkscape:window-x="-4"
     inkscape:window-y="-4"
     inkscape:window-maximized="1"
     inkscape:snap-center="true"
     inkscape:snap-smooth-nodes="true"
     inkscape:pagecheckerboard="true"
     showguides="false"
     scale-x="0.9"
     inkscape:measure-start="480.05,1080.07"
     inkscape:measure-end="504.389,1036.63">
    <inkscape:grid
       type="xygrid"
       id="grid113" />
  </sodipodi:namedview>
  <metadata
     id="metadata5">
    <rdf:RDF>
      <cc:Work
         rdf:about="">
        <dc:format>image/svg+xml</dc:format>
        <dc:type
           rdf:resource="http://purl.org/dc/dcmitype/StillImage" />
        <dc:title />
      </cc:Work>
    </rdf:RDF>
  </metadata>
  <g
     inkscape:label="Layer 1"
     inkscape:groupmode="layer"
     id="layer1">
    <flowRoot
       xml:space="preserve"
       id="flowRoot10"
       style="fill:black;fill-opacity:1;stroke:none;font-family:sans-serif;font-style:normal;font-weight:normal;font-size:40px;line-height:1.25;letter-spacing:0px;word-spacing:0px"><flowRegion
         id="flowRegion12"><rect
           id="rect14"
           width="611.42859"
           height="287.14285"
           x="60"
           y="92.519684" /></flowRegion><flowPara
         id="flowPara16" /></flowRoot>    <text
       xml:space="preserve"
       style="font-style:normal;font-weight:normal;font-size:10.58333302px;line-height:1.25;font-family:sans-serif;letter-spacing:0px;word-spacing:0px;fill:#000000;fill-opacity:1;stroke:none;stroke-width:0.26458332"
       x="48.599285"
       y="32.529205"
       id="text20"
       inkscape:export-filename="C:\Users\Sergi\design\exports\sergix-svg.png"
       inkscape:export-xdpi="945.20001"
       inkscape:export-ydpi="945.20001"><tspan
         sodipodi:role="line"
         id="tspan18"
         x="48.599285"
         y="32.529205"
         style="font-style:normal;font-variant:normal;font-weight:normal;font-stretch:normal;font-size:25.39999962px;font-family:Loew;-inkscape-font-specification:Loew;stroke-width:0.26458332">SERGI<tspan
   style="font-style:normal;font-variant:normal;font-weight:normal;font-stretch:normal;font-size:19.75555611px;font-family:AXIS;-inkscape-font-specification:AXIS;fill:#ffffff"
   id="tspan22" /></tspan></text>
    <g
       id="g1998"
       style="filter:url(#filter2088)"
       inkscape:export-filename="C:\Users\Sergi\design\exports\sergix-svg.png"
       inkscape:export-xdpi="945.20001"
       inkscape:export-ydpi="945.20001"
       transform="matrix(0.97530794,0,0,0.99867599,4.2774179,-0.03428479)">
      <rect
         inkscape:export-ydpi="962.20001"
         inkscape:export-xdpi="962.20001"
         inkscape:export-filename="C:\Users\Sergi\design\exports\sergix-svg.png"
         style="stroke-width:0.2245883"
         y="14.774567"
         x="132.55168"
         height="17.755175"
         width="18.297964"
         id="rect28" />
      <g
         id="g851">
        <g
           id="g4613"
           transform="matrix(0.95000054,0,0,0.92187495,7.2261111,1.0854236)"
           style="fill:#ffffff;fill-opacity:1"
           inkscape:export-filename="C:\Users\Sergi\design\exports\sergix-svg.png"
           inkscape:export-xdpi="962.20001"
           inkscape:export-ydpi="962.20001">
          <path
             sodipodi:nodetypes="ccccccccccccc"
             inkscape:connector-curvature="0"
             id="path88"
             d="m 137.58333,17.864583 -2.64583,2.645834 3.96875,3.96875 -3.96875,3.96875 2.64583,2.645833 3.96875,-3.96875 3.96875,3.96875 2.64583,-2.645833 -3.96875,-3.96875 3.96875,-3.96875 -2.64583,-2.645834 -3.96875,3.96875 z"
             style="fill:#ffffff;fill-opacity:1;stroke:#ffffff;stroke-width:0.26458332px;stroke-linecap:butt;stroke-linejoin:miter;stroke-opacity:1" />
        </g>
        <path
           style="fill:#ffffff;fill-opacity:1;stroke:#ff0000;stroke-width:0.26458332;stroke-opacity:0"
           id="path4601"
           d="m 138.56782,28.117506 c -0.005,0.107119 -0.003,0.214408 -0.003,0.321604 -0.001,0.112098 -1.8e-4,0.224205 2.7e-4,0.336304 5.2e-4,0.0965 5.2e-4,0.193003 5.2e-4,0.289501 -0.005,0.08485 -0.0238,0.1689 -0.047,0.250511 -0.0253,0.08806 -0.0503,0.176749 -0.0844,0.26185 -0.0296,0.08033 -0.0572,0.161819 -0.0777,0.244977 -0.0201,0.0825 -0.0519,0.161478 -0.0793,0.2417 -0.0307,0.09163 -0.0684,0.180604 -0.10336,0.270655 -0.0281,0.07207 -0.0661,0.139978 -0.0933,0.212289 -0.0196,0.07503 -0.0437,0.14854 -0.0639,0.223425 -0.0303,0.08214 -0.0391,0.16951 -0.0622,0.253452 -0.0259,0.08094 -0.0328,0.165814 -0.0509,0.248515 -0.0227,0.08705 -0.0256,0.1773 -0.0456,0.26475 -0.0231,0.07976 -0.0318,0.162026 -0.0369,0.244557 -0.37858,0.373931 -0.82888,1.5507 -0.5383,-0.209849 0.0193,-0.08377 0.0278,-0.168328 0.0476,-0.251981 0.0263,-0.08393 0.0379,-0.169616 0.0623,-0.254281 0.0244,-0.07077 0.041,-0.151341 0.063,-0.223226 0.0198,-0.07897 0.0611,-0.146013 0.0912,-0.221035 0.0443,-0.08313 0.0683,-0.176586 0.1069,-0.262623 0.0225,-0.08044 0.0538,-0.158054 0.0821,-0.23654 0.0168,-0.0874 0.0461,-0.170572 0.0717,-0.255519 0.035,-0.08303 0.0668,-0.16723 0.0882,-0.255114 0.0223,-0.07724 0.0399,-0.154718 0.0562,-0.233582 7e-5,-0.0967 1.8e-4,-0.193395 5.3e-4,-0.290092 5.3e-4,-0.112196 0.001,-0.224398 2.6e-4,-0.336595 2.7e-4,-0.106145 0.002,-0.212397 -0.003,-0.318463 l 0.61859,-0.31519 z"
           inkscape:connector-curvature="0"
           sodipodi:nodetypes="cccccccccccccccccccccccccccccc"
           inkscape:export-filename="C:\Users\Sergi\design\exports\sergix-svg.png"
           inkscape:export-xdpi="962.20001"
           inkscape:export-ydpi="962.20001" />
        <path
           style="fill:#ffffff;fill-opacity:1;stroke:#ff0000;stroke-width:0.26458332;stroke-opacity:0"
           id="path4611"
           d="m 136.9733,32.053699 c -0.0138,-0.09699 -0.044,-0.190325 -0.0698,-0.284493 -0.0212,-0.06914 -0.0421,-0.137859 -0.0737,-0.20301 -0.031,-0.07123 -0.0626,-0.141475 -0.0998,-0.20973 -0.0437,-0.08531 -0.0916,-0.168362 -0.14028,-0.250878 -0.0415,-0.06845 -0.0735,-0.142478 -0.11566,-0.210441 -0.0424,-0.05496 -0.0772,-0.114986 -0.1161,-0.172302 -0.0471,-0.07095 -0.0874,-0.145915 -0.12768,-0.220877 -0.0453,-0.08398 -0.0983,-0.163253 -0.14613,-0.245682 -0.0422,-0.077 -0.0892,-0.151309 -0.13047,-0.228822 -0.0481,-0.08108 -0.0938,-0.163544 -0.13988,-0.245824 -0.0427,-0.06925 -0.0785,-0.141851 -0.11172,-0.215969 -0.0383,-0.07125 -0.0708,-0.145346 -0.10344,-0.2193 -0.0287,-0.06982 -0.0536,-0.140994 -0.079,-0.212066 -0.0208,-0.07467 -0.0397,-0.150312 -0.0546,-0.226494 -0.0172,-0.06488 -0.0295,-0.130781 -0.0506,-0.194503 -0.0209,-0.05854 -0.0381,-0.118049 -0.0556,-0.177678 -0.0179,-0.06625 -0.0412,-0.130837 -0.0572,-0.197594 -0.0225,-0.06292 -0.0309,-0.129397 -0.0476,-0.193683 -0.0207,-0.05462 -0.024,-0.113136 -0.0364,-0.169561 -0.0175,-0.05622 -0.0257,-0.114212 -0.0305,-0.172696 -0.011,-0.06473 -0.0234,-0.128974 -0.0302,-0.194344 -0.008,-0.06386 -0.007,-0.126622 0.005,-0.189672 0.0124,-0.05505 0.0396,-0.105796 0.0697,-0.153046 0.0239,-0.0459 0.0522,-0.08856 0.0825,-0.130347 0.0358,-0.04533 0.0793,-0.08274 0.12573,-0.116768 0.19183,-0.127222 0.39404,-0.24501 0.60727,-0.333391 0.0661,-0.02685 0.13192,-0.04873 0.20264,-0.05926 0.0637,-0.02487 0.13307,-0.02498 0.19811,-0.04305 0.0428,-0.01593 0.0897,-0.01423 0.13353,-0.02394 0.0189,-0.0042 0.0367,-0.01249 0.0552,-0.01828 0.009,-0.0021 0.0186,-0.0045 0.0279,-0.0067 l -0.38789,0.297196 v 0 c -0.009,0.0026 -0.0181,0.0051 -0.0272,0.0076 -0.0624,0.01603 -0.1272,0.02138 -0.18934,0.03913 -0.067,0.01146 -0.13318,0.02535 -0.19912,0.04178 -0.0675,0.01545 -0.13166,0.04077 -0.1954,0.06764 -0.0325,0.015 -0.0652,0.02945 -0.0975,0.04498 -0.0107,0.0051 -0.0421,0.02164 -0.0319,0.01564 0.32254,-0.190185 0.52325,-0.299384 0.35671,-0.208481 -0.0448,0.03179 -0.0937,0.06198 -0.1272,0.106133 -0.0374,0.03297 -0.0653,0.07824 -0.0868,0.122824 -0.0273,0.04496 -0.0573,0.08775 -0.0773,0.136975 -0.012,0.05954 -0.0234,0.116388 -0.0128,0.177686 0.006,0.06575 0.0164,0.130615 0.0313,0.194943 0.004,0.05603 0.0102,0.111813 0.0276,0.165507 0.014,0.0557 0.0144,0.114377 0.0352,0.168712 0.0175,0.0647 0.0225,0.132662 0.0476,0.19563 0.0143,0.06606 0.0382,0.12908 0.0557,0.194278 0.019,0.05876 0.0338,0.118782 0.056,0.17652 0.0214,0.06617 0.0331,0.134323 0.0519,0.201316 0.0127,0.07415 0.0322,0.146857 0.0513,0.219506 0.0245,0.0703 0.0491,0.140385 0.0761,0.209775 0.0317,0.07414 0.0657,0.147328 0.10417,0.218258 0.0327,0.07288 0.0657,0.145412 0.1077,0.213656 0.045,0.08301 0.0917,0.165039 0.14047,0.245824 0.0424,0.07646 0.0872,0.151485 0.12898,0.228259 0.0475,0.08293 0.10173,0.161959 0.14662,0.246499 0.0411,0.07276 0.0807,0.146164 0.12768,0.215387 0.04,0.05777 0.076,0.118168 0.11815,0.174532 0.0403,0.06935 0.0733,0.142835 0.11315,0.212527 0.0482,0.08312 0.0967,0.166113 0.14098,0.251423 0.0394,0.068 0.072,0.138697 0.10429,0.21028 0.0337,0.06809 0.0528,0.140864 0.0753,0.21318 0.0241,0.09595 0.0567,0.190013 0.0696,0.288533 0.0951,0.547711 -0.32212,0.984969 -0.42527,0.226753 z"
           inkscape:connector-curvature="0"
           sodipodi:nodetypes="ccccccccccccccccccccccccccccccccccccccccccccccccccccccccccccccccccc"
           inkscape:export-filename="C:\Users\Sergi\design\exports\sergix-svg.png"
           inkscape:export-xdpi="962.20001"
           inkscape:export-ydpi="962.20001" />
        <path
           style="fill:#ffffff;fill-opacity:1;stroke:#ff0000;stroke-width:0.26458332;stroke-opacity:0"
           id="path4613"
           d="m 136.3086,26.878319 c -0.0452,0.04889 -0.0839,0.10282 -0.12304,0.156499 -0.0337,0.0391 -0.064,0.08026 -0.0941,0.122044 -0.0286,0.04604 -0.0617,0.08962 -0.0849,0.138745 -0.0271,0.05816 -0.041,0.120679 -0.0588,0.181946 -0.0195,0.06273 -0.0263,0.127931 -0.0302,0.193172 -0.003,0.0658 -0.003,0.131686 -0.003,0.197533 -2.6e-4,0.06533 -0.002,0.130257 0.008,0.19495 0.0115,0.07835 0.0352,0.154146 0.0611,0.228762 0.0234,0.07056 0.0599,0.13604 0.0958,0.200882 0.0267,0.05867 0.0577,0.115107 0.087,0.172558 0.0325,0.06156 0.0647,0.123347 0.0953,0.185939 0.0332,0.06593 0.067,0.131569 0.0992,0.19803 0.0359,0.0732 0.0669,0.148886 0.0994,0.223726 0.0312,0.08943 0.0582,0.180153 0.0854,0.270838 0.0274,0.09587 0.0632,0.189019 0.0939,0.283822 0.0258,0.07421 0.0624,0.144277 0.0994,0.213444 0.0365,0.07301 0.0795,0.142473 0.12027,0.213151 0.0467,0.07229 0.0942,0.144222 0.14704,0.212223 0.0475,0.06816 0.0994,0.132979 0.14805,0.200263 0.0448,0.06382 0.10141,0.118163 0.15927,0.169979 0.0454,0.04304 0.092,0.08553 0.13391,0.132066 0.0436,0.03739 0.0745,0.08654 0.11158,0.12976 0.0386,0.04631 0.0773,0.09099 0.10517,0.14491 0.0284,0.04971 0.045,0.103745 0.0568,0.159382 0,0 -0.42995,0.229719 -0.42995,0.229719 v 0 c -0.009,-0.05169 -0.0234,-0.101743 -0.051,-0.14709 -0.0257,-0.05068 -0.065,-0.09088 -0.0994,-0.135612 -0.0358,-0.04365 -0.07,-0.08886 -0.1115,-0.127473 -0.0414,-0.04501 -0.0847,-0.08858 -0.12987,-0.12985 -0.058,-0.05616 -0.11682,-0.112064 -0.16295,-0.178782 -0.0483,-0.06685 -0.0999,-0.131214 -0.1467,-0.199186 -0.054,-0.06985 -0.10216,-0.143912 -0.15004,-0.218051 -0.0412,-0.07105 -0.0866,-0.139763 -0.12247,-0.213707 -0.0386,-0.07187 -0.0756,-0.145269 -0.10251,-0.222387 -0.0282,-0.09571 -0.0649,-0.188669 -0.0918,-0.284803 -0.0286,-0.08835 -0.0555,-0.177199 -0.086,-0.264917 -0.0313,-0.07453 -0.0627,-0.149312 -0.0992,-0.221424 -0.0316,-0.06663 -0.066,-0.131953 -0.0992,-0.197752 -0.0301,-0.06244 -0.0629,-0.123561 -0.0959,-0.184486 -0.029,-0.05694 -0.0595,-0.112946 -0.0851,-0.171522 -0.0376,-0.0671 -0.0739,-0.135771 -0.0976,-0.209185 -0.0279,-0.07652 -0.0541,-0.154463 -0.0679,-0.234876 -0.0119,-0.06714 -0.0139,-0.133757 -0.0116,-0.201959 -1.1e-4,-0.06659 -5.3e-4,-0.133209 0.002,-0.199787 0.003,-0.06833 0.007,-0.13695 0.0254,-0.203287 0.0176,-0.06201 0.0302,-0.125619 0.0557,-0.185015 0.0169,-0.05517 0.0487,-0.09988 0.0798,-0.14773 0.0268,-0.04614 0.0587,-0.08756 0.0933,-0.1279 0.0448,-0.04786 0.0733,-0.108397 0.12136,-0.153281 0,0 0.45083,-0.194281 0.45083,-0.194281 z"
           inkscape:connector-curvature="0"
           inkscape:export-filename="C:\Users\Sergi\design\exports\sergix-svg.png"
           inkscape:export-xdpi="962.20001"
           inkscape:export-ydpi="962.20001" />
        <path
           style="fill:#ffffff;fill-opacity:1;stroke:#ff0000;stroke-width:0.26458332;stroke-opacity:0"
           id="path4615"
           d="m 137.26374,31.487332 c -0.0119,-0.08451 -0.0191,-0.169593 -0.0245,-0.254736 -0.008,-0.07534 -0.004,-0.149479 0.008,-0.224025 0.008,-0.06241 0.0153,-0.124232 0.0306,-0.185357 0.0109,-0.06271 0.0259,-0.123832 0.0473,-0.183787 0.0203,-0.0674 0.0493,-0.131564 0.0744,-0.197154 0.0248,-0.06823 0.054,-0.134641 0.0846,-0.200467 0.0244,-0.06743 0.0607,-0.129442 0.0862,-0.196337 0.0195,-0.06418 0.0387,-0.128222 0.05,-0.194397 0.009,-0.06466 0.0102,-0.130114 0.0109,-0.195321 0.004,-0.06525 -0.005,-0.129476 -0.0208,-0.192632 -0.0218,-0.06578 -0.0443,-0.131258 -0.0655,-0.197306 -0.0195,-0.06771 -0.0393,-0.135318 -0.0626,-0.201874 -0.0193,-0.06236 -0.0493,-0.119753 -0.0827,-0.175437 -0.006,-0.0089 -0.0123,-0.01786 -0.0184,-0.02678 0,0 0.41989,-0.247078 0.41989,-0.247078 v 0 c 0.007,0.0097 0.0136,0.01939 0.0204,0.02911 0.0354,0.05816 0.0657,0.119319 0.087,0.184153 0.0246,0.06653 0.0427,0.135255 0.0631,0.203089 0.0226,0.06645 0.0424,0.133794 0.0669,0.199572 0.0192,0.06628 0.0305,0.135091 0.0273,0.204243 -2.7e-4,0.06723 -5.3e-4,0.13463 -0.008,0.201552 -0.009,0.06926 -0.0277,0.135458 -0.0466,0.202477 -0.0216,0.0703 -0.06,0.131607 -0.0846,0.200602 -0.0287,0.0656 -0.061,0.129545 -0.0859,0.196781 -0.0222,0.06675 -0.0553,0.129154 -0.0742,0.197051 -0.0209,0.05844 -0.0428,0.115978 -0.0481,0.17848 -0.0143,0.06078 -0.0308,0.119661 -0.0337,0.182658 -0.012,0.07191 -0.0227,0.142417 -0.0143,0.21572 0.004,0.0823 0.008,0.165275 0.0264,0.245795 0,0 -0.43284,0.231413 -0.43284,0.231413 z"
           inkscape:connector-curvature="0"
           inkscape:export-filename="C:\Users\Sergi\design\exports\sergix-svg.png"
           inkscape:export-xdpi="962.20001"
           inkscape:export-ydpi="962.20001" />
        <path
           style="fill:#ffffff;fill-opacity:1;stroke:#ff0000;stroke-width:0.26458332;stroke-opacity:0"
           id="path4617"
           d="m 136.05433,27.650294 c 0.0628,0.09384 0.13554,0.180086 0.21065,0.264136 0.0717,0.09301 0.15097,0.180004 0.22044,0.274691 0.0536,0.07965 0.11408,0.154003 0.17819,0.225345 0.0598,0.07318 0.12658,0.139608 0.19087,0.208709 0.057,0.05928 0.10312,0.127368 0.15422,0.191497 0.0533,0.06493 0.10259,0.132829 0.15723,0.196718 0.0438,0.05693 0.0916,0.110305 0.13915,0.164007 0.0478,0.05822 0.1014,0.111218 0.14956,0.169029 0.0527,0.06406 0.10375,0.129757 0.15924,0.191389 0.0472,0.04928 0.0915,0.100952 0.13516,0.153422 0.0376,0.05321 0.0735,0.107884 0.0959,0.169344 0.0206,0.06727 0.0201,0.138014 0.0214,0.207647 7.9e-4,0.07174 7.9e-4,0.143492 5.2e-4,0.215239 -0.001,0.07316 -0.0254,0.141597 -0.0528,0.208452 -0.0211,0.0552 -0.0584,0.10111 -0.088,0.151513 -0.0322,0.04849 -0.0775,0.0856 -0.12348,0.120359 -0.15616,0.110871 -0.3063,0.186069 -0.48941,0.288682 -0.0285,0.01598 -0.0566,0.0076 -0.0845,-0.0026 -0.0729,-0.037 -0.11563,-0.100817 -0.15117,-0.171669 -0.0478,-0.101595 -0.0738,-0.211093 -0.10624,-0.318035 -0.0326,-0.111657 -0.0626,-0.223901 -0.0906,-0.336783 -0.0263,-0.08213 -0.0451,-0.166264 -0.0734,-0.247684 -0.0127,-0.05726 -0.0374,-0.109982 -0.0584,-0.164365 -0.0295,-0.05915 -0.0566,-0.119676 -0.0787,-0.18203 -0.0278,-0.07135 -0.0502,-0.144561 -0.0836,-0.21354 -0.0381,-0.07313 -0.0754,-0.146249 -0.1097,-0.22121 -0.0334,-0.06875 -0.0709,-0.135636 -0.10176,-0.205563 -0.03,-0.06321 -0.0479,-0.130485 -0.0841,-0.190664 -0.0686,-0.109405 -0.14501,-0.21354 -0.22027,-0.318389 -0.0673,-0.08449 -0.12249,-0.177681 -0.18703,-0.264112 -0.002,-0.0038 -0.0109,-0.009 -0.007,-0.01135 0.48097,-0.294341 0.35619,-0.357743 0.53373,-0.09558 0.103,0.148465 0.20866,0.295227 0.31064,0.44441 0.095,0.136887 0.19287,0.271748 0.29065,0.406646 0.057,0.08476 0.11765,0.166986 0.16994,0.254773 0.0395,0.05544 0.0756,0.113212 0.10772,0.173201 0.0383,0.07228 0.0765,0.144351 0.11652,0.215717 0.0311,0.06198 0.0659,0.12219 0.0997,0.182751 0.0274,0.05716 0.0533,0.114858 0.0874,0.168465 0.033,0.05073 0.0671,0.100555 0.0988,0.152189 0.0241,0.04491 0.0474,0.09006 0.0713,0.135109 0.023,0.0555 0.0414,0.113147 0.0548,0.171754 0.0161,0.05416 0.0295,0.108768 0.0387,0.164513 0,0 -0.43079,0.227849 -0.43079,0.227849 v 0 c -0.008,-0.05498 -0.0197,-0.108982 -0.0377,-0.161626 -0.0114,-0.05469 -0.0297,-0.107315 -0.0501,-0.159195 -0.0234,-0.04422 -0.0461,-0.0886 -0.0693,-0.132871 -0.0311,-0.05148 -0.0637,-0.101653 -0.0968,-0.151855 -0.0355,-0.05408 -0.0617,-0.112496 -0.0887,-0.17108 -0.0345,-0.06035 -0.0685,-0.12125 -0.0981,-0.184205 -0.0394,-0.07189 -0.0787,-0.143751 -0.1188,-0.215265 -0.0317,-0.05954 -0.0689,-0.115795 -0.10516,-0.172643 -0.0497,-0.0875 -0.1082,-0.169426 -0.16112,-0.254942 -0.0948,-0.137002 -0.19118,-0.273003 -0.28443,-0.411086 -0.10266,-0.148537 -0.20911,-0.294796 -0.31789,-0.438859 -0.18713,-0.243314 -0.1648,-0.09286 0.31204,-0.385694 0.001,-7.94e-4 -0.002,0.0019 -0.003,0.0028 0.047,0.09549 0.11249,0.181163 0.17339,0.267901 0.077,0.105272 0.15619,0.209021 0.22928,0.31713 0.0392,0.06163 0.0614,0.128947 0.0906,0.195471 0.0288,0.07027 0.0644,0.13789 0.0983,0.205722 0.0349,0.07425 0.0722,0.147015 0.10936,0.22012 0.035,0.07036 0.0595,0.144825 0.0887,0.217707 0.0207,0.062 0.0487,0.121452 0.0777,0.179959 0.0226,0.05482 0.049,0.107759 0.0596,0.166788 0.027,0.08373 0.0432,0.170151 0.0702,0.253963 0.0272,0.112313 0.0555,0.224239 0.0883,0.335076 0.0315,0.103963 0.0584,0.209801 0.10515,0.308367 0.0302,0.05557 0.0652,0.115789 0.13172,0.130725 0.0213,-0.0026 0.0192,-7.94e-4 0.0397,-0.01 0.008,-0.0038 0.0326,-0.01733 0.0246,-0.01265 -0.71641,0.420904 -0.47458,0.298103 -0.34622,0.19509 0.0485,-0.02671 0.091,-0.06315 0.1297,-0.102166 0.0357,-0.04429 0.0613,-0.0968 0.0947,-0.143118 0.0255,-0.06227 0.0546,-0.12332 0.0606,-0.191397 2.7e-4,-0.07162 0.001,-0.143246 8e-4,-0.214871 -8e-4,-0.06444 -8e-4,-0.129844 -0.0162,-0.192815 -0.0186,-0.05639 -0.0516,-0.106437 -0.0859,-0.154501 -0.0441,-0.05155 -0.0875,-0.103767 -0.13373,-0.15345 -0.0536,-0.06371 -0.10649,-0.128014 -0.15927,-0.192432 -0.0483,-0.05738 -0.10288,-0.109143 -0.15099,-0.166764 -0.0473,-0.05404 -0.0932,-0.109117 -0.13679,-0.166211 -0.0551,-0.06427 -0.10484,-0.132498 -0.15853,-0.19784 -0.0506,-0.06309 -0.0963,-0.130066 -0.15215,-0.188777 -0.0636,-0.06984 -0.12893,-0.138031 -0.19043,-0.209852 -0.0647,-0.07288 -0.12554,-0.148929 -0.17905,-0.230532 -0.0674,-0.09403 -0.14583,-0.179929 -0.21573,-0.272055 -0.0767,-0.08728 -0.15101,-0.176374 -0.22446,-0.26635 0,0 0.42398,-0.245743 0.42398,-0.245743 z"
           inkscape:connector-curvature="0"
           inkscape:export-filename="C:\Users\Sergi\design\exports\sergix-svg.png"
           inkscape:export-xdpi="962.20001"
           inkscape:export-ydpi="962.20001" />
        <path
           style="fill:#ffffff;fill-opacity:1;stroke:#ff0000;stroke-width:0.26458332;stroke-opacity:0"
           id="path4623"
           d="m 138.08513,29.776668 c 0.036,-0.0579 0.0802,-0.109799 0.12265,-0.162877 0.031,-0.04263 0.0667,-0.08139 0.10216,-0.120269 0.0306,-0.02886 0.0558,-0.06267 0.0824,-0.09513 0.0306,-0.03687 0.0529,-0.07934 0.0776,-0.120079 0.0244,-0.03779 0.0473,-0.07648 0.0712,-0.114532 0.0252,-0.03868 0.046,-0.07988 0.0694,-0.119571 0.0243,-0.04261 0.053,-0.08239 0.0816,-0.122121 0.0172,-0.02567 0.0331,-0.05215 0.0494,-0.07839 l 0.31261,-0.138501 v 0 c -0.0154,0.02643 -0.0318,0.05224 -0.0465,0.07911 -0.0262,0.0412 -0.0589,0.07821 -0.0824,0.12105 -0.0252,0.03814 -0.02,0.04486 -0.0447,0.08319 -0.0226,0.03981 -0.0807,0.09185 -0.10469,0.130769 -0.0266,0.03991 -0.049,0.05766 -0.0781,0.09587 -0.0247,0.03484 -0.0542,0.06456 -0.0814,0.09754 0,0 -0.0273,0.03338 -0.061,0.07379 -0.0373,0.03747 -0.11956,0.192821 -0.15337,0.24973 l -0.3168,0.140409 z"
           inkscape:connector-curvature="0"
           inkscape:export-filename="C:\Users\Sergi\design\exports\sergix-svg.png"
           inkscape:export-xdpi="962.20001"
           inkscape:export-ydpi="962.20001"
           sodipodi:nodetypes="ccccccccccccccccccccc" />
        <path
           style="fill:#f8ffff;fill-opacity:1;stroke:#ff0000;stroke-width:0.99999994;stroke-opacity:0"
           d="m 521.22578,122.94425 c 2.2e-4,-0.35367 -0.0138,-0.83823 -0.0138,-1.19192 v -1.06054 l 0.0221,-1.05503 c -0.005,-0.43419 -0.005,-0.86855 -0.008,-1.30274 -0.0299,-0.53954 0.0557,-1.07413 0.10938,-1.60937 0.0329,-0.48764 0.14649,-0.96407 0.20508,-1.44922 0.0427,-0.37216 0.13861,-0.73438 0.18359,-1.10742 0.0442,-0.35487 0.1354,-0.70207 0.17773,-1.05859 0.0246,-0.3398 0.0246,-0.67083 0.10547,-1.00196 0.0737,-0.31563 0.0922,-0.63997 0.10352,-0.96289 0.1062,-0.27617 0.0917,-0.58337 0.19336,-0.85742 0.0865,-0.29618 0.14751,-0.59476 0.27148,-0.87891 0.1742,-0.32261 0.24688,-0.68976 0.39844,-1.01953 0.0862,-0.28932 0.20478,-0.56599 0.28906,-0.85547 0.14249,-0.25104 0.25197,-0.52366 0.33399,-0.80078 0.0234,-0.0429 0.0476,-0.0859 0.0703,-0.1289 l -2.375,1.08593 c -0.0185,0.0504 -0.0377,0.10009 -0.0566,0.15039 -0.10432,0.27259 -0.23396,0.53444 -0.33789,0.80664 -0.10129,0.27828 -0.18217,0.56237 -0.29102,0.8379 -0.11422,0.34707 -0.25242,0.68303 -0.39453,1.01953 -0.10431,0.29825 -0.18103,0.60252 -0.26758,0.90625 -0.0578,0.30131 -0.12393,0.60211 -0.16211,0.90625 -0.0189,0.31243 -0.0521,0.62494 -0.12695,0.92968 -0.0612,0.33634 -0.0422,0.67744 -0.0898,1.01563 -0.0518,0.35396 -0.14372,0.70196 -0.17774,1.05859 -0.0537,0.36984 -0.14554,0.73213 -0.17578,1.10547 -0.0259,0.21064 -0.0508,0.42096 -0.082,0.63086 -0.0141,-0.0575 -0.033,-0.11383 -0.0449,-0.17187 -0.0884,-0.39792 -0.15949,-0.79877 -0.2793,-1.18946 -0.085,-0.41833 -0.17977,-0.83534 -0.26367,-1.2539 -0.0737,-0.37743 -0.1521,-0.75601 -0.19141,-1.13868 -0.0529,-0.40033 -0.13402,-0.79306 -0.22851,-1.18554 -0.11078,-0.39405 -0.27511,-0.77055 -0.46485,-1.13281 -0.20693,-0.36763 -0.41397,-0.73488 -0.63281,-1.09571 h -0.002 l -2.25586,1.33789 c 0.24828,0.32862 0.4388,0.69512 0.64062,1.05274 0.17379,0.34649 0.33048,0.70108 0.42383,1.07812 0.0896,0.38199 0.17333,0.7635 0.2168,1.1543 0.0461,0.38798 0.1109,0.77786 0.20312,1.1582 0.079,0.41782 0.18361,0.83095 0.26563,1.24805 0.13531,0.39062 0.1775,0.80238 0.27539,1.20117 0.0729,0.36297 0.20295,0.71011 0.2793,1.07227 0.0548,0.31308 0.16136,0.61049 0.20898,0.92578 0.0491,0.33785 0.13773,0.6678 0.17969,1.00781 0.0465,0.35222 0.0135,0.70827 0.0684,1.05859 0.0722,0.34786 0.12118,0.40644 0.14386,0.76062"
           transform="scale(0.26458333)"
           id="path6116"
           inkscape:export-filename="C:\Users\Sergi\design\exports\sergix-svg.png"
           inkscape:export-xdpi="962.20001"
           inkscape:export-ydpi="962.20001"
           inkscape:connector-curvature="0"
           sodipodi:nodetypes="csccccccccccccccccccccccccccccccccccccccccccccccc" />
      </g>
    </g>
    <path
       style="fill:#20ffff;fill-opacity:1;stroke:#ff0000;stroke-width:0.26458332;stroke-opacity:0"
       d="m 138.99459,38.002342 c -5.3e-4,0.0019 -5.3e-4,0.0038 -10e-4,0.0057 0.0735,-0.0367 0.0786,-0.04281 10e-4,-0.0057 z"
       id="path4639"
       inkscape:export-filename="C:\Users\Sergi\design\exports\sergix-svg.png"
       inkscape:export-xdpi="945.20001"
       inkscape:export-ydpi="945.20001"
       inkscape:connector-curvature="0" />
    <path
       style="fill:#000000;fill-opacity:1;stroke:#ff0000;stroke-width:0.31728262;stroke-opacity:0"
       d="m 137.863,32.451646 c 0.004,0.145678 0.0532,0.394868 0.0532,0.540672 -0.003,0.151308 -9.5e-4,0.299499 0.0141,0.448498 0.0177,0.154046 0.0232,0.31062 0.027,0.467156 0.003,0.158908 0.002,0.317136 0.002,0.476079 -2.5e-4,0.147808 -5e-4,0.295824 -5e-4,0.443636 -5e-5,0.146688 2e-5,0.293711 0,0.44039 0,0.161314 9.5e-4,0.322868 9.5e-4,0.484188 -7.3e-4,0.16725 8e-5,0.333969 0,0.50122 -0.0167,0.164862 -0.0296,0.329446 -0.0361,0.496352 -0.006,0.164775 -0.006,0.330509 -0.008,0.495541 -0.0163,0.146189 -0.0292,0.292859 -0.0365,0.441202 -0.006,0.147825 -0.006,0.29553 -0.006,0.443637 -6e-5,0.146886 -7e-5,0.294321 0,0.441203 9e-5,0.146797 -1e-5,0.293602 0,0.440391 2e-5,0.146813 0,0.293588 0,0.440395 v 0.440387 0.440393 c 0,0.14957 -4.7e-4,0.298935 4.9e-4,0.448505 -0.006,0.169982 0.0149,0.336169 0.0279,0.503651 0.0151,0.137128 0.0625,0.235865 0.12454,0.319547 0.0541,0.07414 0.10931,0.13553 0.17566,0.171939 0.27959,0.07934 0.60824,-0.278151 0.71591,-0.72263 0.002,-0.0072 0.002,-0.0147 0.003,-0.02188 -0.0308,0.02649 -0.0563,0.04579 -0.0933,0.07138 0.0587,-0.05224 0.068,-0.05889 0.0942,-0.0803 0.0226,-0.134948 0.0276,-0.276265 0.0294,-0.416059 -0.011,-0.148949 -0.0248,-0.295511 -0.0512,-0.438768 -0.0236,-0.123165 -0.0295,-0.252619 -0.0332,-0.381189 0.003,-0.14872 -0.018,-0.29334 -0.0302,-0.439581 -0.0114,-0.144114 -0.0134,-0.289589 -0.0142,-0.434713 -9.4e-4,-0.146526 -4.7e-4,-0.293059 -4.7e-4,-0.439584 1.1e-4,-0.146823 -3e-5,-0.293569 0,-0.440388 2e-5,-0.146821 0,-0.293569 0,-0.440394 V 37.15214 36.71175 36.271357 35.830965 35.390576 34.950183 34.50979 34.0694 c 0.002,-0.14509 0.003,-0.287484 -0.0142,-0.429849 -0.0172,-0.12641 -0.0223,-0.255902 -0.026,-0.38524 -0.003,-0.144137 -0.007,-0.658456 -0.007,-0.802656"
       id="path6120"
       inkscape:connector-curvature="0"
       sodipodi:nodetypes="ccccccccccccccsscscccccccccccccccsccccccccccc"
       inkscape:export-filename="C:\Users\Sergi\design\exports\sergix-svg.png"
       inkscape:export-xdpi="945.20001"
       inkscape:export-ydpi="945.20001" />
  </g>
  <g
     inkscape:groupmode="layer"
     id="layer2"
     inkscape:label="X" />
</svg>
