<?xml version="1.0" encoding="UTF-8" standalone="no"?>
<!-- Created with Inkscape (http://www.inkscape.org/) -->

<svg
   xmlns:dc="http://purl.org/dc/elements/1.1/"
   xmlns:cc="http://creativecommons.org/ns#"
   xmlns:rdf="http://www.w3.org/1999/02/22-rdf-syntax-ns#"
   xmlns:svg="http://www.w3.org/2000/svg"
   xmlns="http://www.w3.org/2000/svg"
   xmlns:sodipodi="http://sodipodi.sourceforge.net/DTD/sodipodi-0.dtd"
   xmlns:inkscape="http://www.inkscape.org/namespaces/inkscape"
   width="103.19116mm"
   height="29.02314mm"
   viewBox="0 0 103.19116 29.02314"
   version="1.1"
   id="svg8"
   inkscape:version="0.92.2 (5c3e80d, 2017-08-06)"
   sodipodi:docname="sergix.svg"
   inkscape:export-filename="C:\Users\Sergi\design\exports\sergix-4k.png"
   inkscape:export-xdpi="962.20001"
   inkscape:export-ydpi="962.20001">
  <defs
     id="defs2">
    <filter
       style="color-interpolation-filters:sRGB"
       inkscape:label="Extract Channel"
       id="filter2088">
      <feColorMatrix
         type="hueRotate"
         values="180"
         result="color1"
         id="feColorMatrix2084" />
      <feColorMatrix
         values="-1 0 0 0 1 0 -1 0 0 1 0 0 -1 0 1 -0.21 -0.72 -0.07 2 0 "
         result="fbSourceGraphic"
         id="feColorMatrix2086" />
      <feColorMatrix
         result="fbSourceGraphicAlpha"
         in="fbSourceGraphic"
         values="0 0 0 -1 0 0 0 0 -1 0 0 0 0 -1 0 0 0 0 1 0"
         id="feColorMatrix2090" />
      <feColorMatrix
         id="feColorMatrix2092"
         in="fbSourceGraphic"
         values="0 0 0 0 0 0 0 0 0 0 0 0 0 0 0 0 0 1 0 0 0 "
         result="colormatrix" />
      <feBlend
         in2="BackgroundImage"
         id="feBlend2094"
         mode="multiply"
         result="blend" />
    </filter>
    <filter
       style="color-interpolation-filters:sRGB;"
       inkscape:label="Invert"
       id="filter1030">
      <feColorMatrix
         type="hueRotate"
         values="180"
         result="color1"
         id="feColorMatrix1026" />
      <feColorMatrix
         values="-1 0 0 0 1 0 -1 0 0 1 0 0 -1 0 1 -0.21 -0.72 -0.07 2 0 "
         result="color2"
         id="feColorMatrix1028" />
    </filter>
    <filter
       style="color-interpolation-filters:sRGB;"
       inkscape:label="Invert"
       id="filter1036">
      <feColorMatrix
         type="hueRotate"
         values="180"
         result="color1"
         id="feColorMatrix1032" />
      <feColorMatrix
         values="-1 0 0 0 1 0 -1 0 0 1 0 0 -1 0 1 -0.21 -0.72 -0.07 2 0 "
         result="color2"
         id="feColorMatrix1034" />
    </filter>
  </defs>
  <sodipodi:namedview
     id="base"
     pagecolor="#ffffff"
     bordercolor="#666666"
     borderopacity="1.0"
     inkscape:pageopacity="0.0"
     inkscape:pageshadow="2"
     inkscape:zoom="2.0000001"
     inkscape:cx="291.08095"
     inkscape:cy="27.063843"
     inkscape:document-units="mm"
     inkscape:current-layer="g867"
     showgrid="false"
     inkscape:window-width="1366"
     inkscape:window-height="745"
     inkscape:window-x="-4"
     inkscape:window-y="-4"
     inkscape:window-maximized="1"
     inkscape:snap-center="true"
     inkscape:snap-smooth-nodes="true"
     inkscape:pagecheckerboard="true"
     showguides="false"
     scale-x="0.9"
     fit-margin-top="0"
     fit-margin-left="0"
     fit-margin-right="0"
     fit-margin-bottom="0">
    <inkscape:grid
       type="xygrid"
       id="grid113"
       originx="-49.488282"
       originy="-254.97781" />
  </sodipodi:namedview>
  <metadata
     id="metadata5">
    <rdf:RDF>
      <cc:Work
         rdf:about="">
        <dc:format>image/svg+xml</dc:format>
        <dc:type
           rdf:resource="http://purl.org/dc/dcmitype/StillImage" />
        <dc:title />
      </cc:Work>
    </rdf:RDF>
  </metadata>
  <g
     inkscape:label="Layer 1"
     inkscape:groupmode="layer"
     id="layer1"
     transform="translate(-49.488285,-12.99905)">
    <flowRoot
       xml:space="preserve"
       id="flowRoot10"
       style="font-style:normal;font-weight:normal;font-size:40px;line-height:1.25;font-family:sans-serif;letter-spacing:0px;word-spacing:0px;fill:#000000;fill-opacity:1;stroke:none"><flowRegion
         id="flowRegion12"><rect
           id="rect14"
           width="611.42859"
           height="287.14285"
           x="60"
           y="92.519684" /></flowRegion><flowPara
         id="flowPara16" /></flowRoot>    <g
       aria-label="SERGI"
       style="font-style:normal;font-weight:normal;font-size:10.58333302px;line-height:1.25;font-family:sans-serif;letter-spacing:0px;word-spacing:0px;fill:#000000;fill-opacity:1;stroke:none;stroke-width:0.26458332"
       id="text20">
      <g
         id="g865">
        <path
           id="path853"
           style="font-style:normal;font-variant:normal;font-weight:normal;font-stretch:normal;font-size:25.39999962px;font-family:Loew;-inkscape-font-specification:Loew;stroke-width:0.26458332"
           d="m 85.823778,14.774606 v 17.754599 h 4.7752 v -5.4102 h 2.0574 0.7874 l 3.4544,5.4102 h 5.511802 l -3.987802,-6.0452 c 2.463802,-0.8382 3.505202,-2.6416 3.505202,-5.5372 0,-4.343399 -2.311402,-6.172199 -8.102602,-6.172199 z m 4.7752,4.2926 h 3.4544 c 2.1082,0 2.8956,0.6604 2.8956,2.184399 0,1.5494 -0.7874,2.1844 -2.8956,2.1844 h -3.4544 z"
           inkscape:connector-curvature="0" />
        <path
           id="path849"
           style="font-style:normal;font-variant:normal;font-weight:normal;font-stretch:normal;font-size:25.39999962px;font-family:Loew;-inkscape-font-specification:Loew;stroke-width:0.26458332"
           d="m 57.641685,14.495206 c -4.1402,0.0254 -7.3914,1.8288 -7.3914,5.8166 0,3.479799 2.8956,4.419599 6.9342,5.384799 2.921,0.7366 3.429,0.8382 3.429,1.8542 0,0.8128 -0.8636,1.1684 -1.8542,1.1684 -2.2606,0 -4.826,-0.6604 -7.1374,-1.9558 l -2.1336,3.556 c 2.4384,1.6256 5.4356,2.4892 8.7376,2.4892 4.572,0 7.4422,-2.0828 7.4422,-5.8674 0,-3.6322 -2.9718,-4.6482 -7.1374,-5.7658 -2.7686,-0.685799 -3.0988,-0.914399 -3.0988,-1.473199 0,-0.8128 0.7874,-1.1684 1.7018,-1.1684 1.7526,0 4.1402,0.6096 6.1722,1.651 l 2.0066,-3.683 c -2.0828,-1.27 -4.826,-2.0066 -7.6708,-2.0066 z"
           inkscape:connector-curvature="0" />
        <path
           id="path851"
           style="font-style:normal;font-variant:normal;font-weight:normal;font-stretch:normal;font-size:25.39999962px;font-family:Loew;-inkscape-font-specification:Loew;stroke-width:0.26458332"
           d="m 82.965088,19.041806 v -4.2926 H 68.410889 v 17.779999 h 14.706599 v -4.2926 h -9.931399 v -2.667 h 9.093199 v -4.064 h -9.093199 v -2.463799 z"
           inkscape:connector-curvature="0" />
        <path
           id="path855"
           style="font-style:normal;font-variant:normal;font-weight:normal;font-stretch:normal;font-size:25.39999962px;font-family:Loew;-inkscape-font-specification:Loew;stroke-width:0.26458332"
           d="m 114.17137,14.495206 c -5.0546,-0.0254 -9.8298,3.302 -9.8298,9.169399 0,5.0292 4.2672,9.1186 9.525,9.1186 2.9972,0 5.7658,-0.9906 7.8994,-2.6924 v -7.7724 h -7.5946 v 3.4036 h 3.048 v 1.7018 c -0.9652,0.5588 -2.0828,0.889 -3.3528,0.889 -2.667,0 -4.5212,-2.0828 -4.5212,-4.6482 0,-2.971799 2.2606,-4.749799 4.826,-4.749799 1.3716,0 2.7686,0.4826 3.8862,1.4478 l 3.1242,-3.2766 c -1.9812,-1.7018 -4.4958,-2.5654 -7.0104,-2.5908 z"
           inkscape:connector-curvature="0" />
        <path
           id="path857"
           style="font-style:normal;font-variant:normal;font-weight:normal;font-stretch:normal;font-size:25.39999962px;font-family:Loew;-inkscape-font-specification:Loew;stroke-width:0.26458332"
           d="M 130.03843,32.529205 V 14.774606 h -4.77519 v 17.754599 z"
           inkscape:connector-curvature="0" />
      </g>
    </g>
    <g
       id="g867">
      <rect
         style="fill:#000000;fill-opacity:0.98412697;stroke:none;stroke-width:0.25665924;stroke-miterlimit:4;stroke-dasharray:none;stroke-opacity:1"
         id="rect1055"
         width="16.197477"
         height="17.64706"
         x="132.55551"
         y="14.858324" />
      <g
         aria-label="X"
         style="font-style:normal;font-weight:normal;font-size:10.58333302px;line-height:1.25;font-family:sans-serif;letter-spacing:0px;word-spacing:0px;fill:#000000;fill-opacity:1;stroke:none;stroke-width:0.26458332"
         id="text1059">
        <path
           d="m 136.60814,29.869089 3.96991,-3.921471 3.59411,3.71629 2.30315,-2.27858 -3.5319,-3.604106 3.81531,-3.725949 -2.17027,-2.184855 -3.89892,3.688203 -3.8119,-3.845766 -2.32784,2.10725 3.8119,3.971817 -3.89231,3.809999 z"
           style="font-style:normal;font-variant:normal;font-weight:normal;font-stretch:normal;font-size:16.93333244px;font-family:AXIS;-inkscape-font-specification:AXIS;fill:#ffffff;fill-opacity:1;stroke-width:0.26458332"
           id="path1061"
           inkscape:connector-curvature="0"
           sodipodi:nodetypes="ccccccccccccc" />
      </g>
      <path
         style="fill:#ffffff;fill-opacity:1;stroke:none;stroke-width:0.26499999;stroke-miterlimit:4;stroke-dasharray:none;stroke-opacity:1"
         d="m 135.34179,26.789508 c -0.20789,0.171764 -0.37593,0.277358 -0.38881,0.579614 -0.0947,0.269155 0.0304,0.534742 0.19469,0.710442 0.28422,0.27857 0.55676,0.56756 0.82742,0.859004 0.18394,0.216579 0.36403,0.438038 0.54735,0.655117 0.17957,0.337903 0.15753,0.733638 0.1389,1.103278 0.15957,1.351829 -0.51206,2.97892 -0.22165,0.279408 0.0928,-0.348336 0.25421,-0.538587 0.48746,-0.825902 0.24039,-0.300647 0.39637,-0.657943 0.51236,-1.022726 0.12072,-0.309842 0.2233,-0.689709 0.55916,-0.832052 0.32416,-0.147267 0.0277,0.235233 -0.067,0.322592 -0.20884,0.172082 -0.25454,0.446935 -0.40577,0.656959 -0.23323,0.298514 -0.33456,0.667846 -0.51996,0.99376 -0.0793,0.245938 -0.16172,0.58644 -0.47674,0.607377 -0.21591,-0.179559 0.045,-0.519026 -0.0201,-0.765209 -0.0462,-0.30675 0.18465,-0.519132 0.38597,-0.707156 0.0558,-0.176583 0.50661,-0.537866 0.4915,-0.169715 -0.0547,0.256632 -0.19723,0.500786 -0.35164,0.698799 -0.13106,0.06296 -0.26213,0.125924 -0.39319,0.188886 0.10435,-0.256678 0.32707,-0.478194 0.3382,-0.774278 0.10742,-0.05105 0.36684,-0.212968 0.3896,-0.197778 -0.12816,0.235027 -0.44952,0.353843 -0.44385,0.657991 0.0299,0.284781 -0.083,0.55725 -0.0621,0.839172 -0.12256,0.04711 -0.31933,0.101855 -0.40132,0.162584 0.0775,-0.247801 0.17356,-0.489132 0.30372,-0.715527 0.1007,-0.280077 0.25298,-0.535905 0.42998,-0.774628 0.078,-0.253341 0.23873,-0.46089 0.41574,-0.652676 0.10624,-0.222289 0.35985,-0.263169 0.55426,-0.384981 0.25493,-0.171172 -0.11574,0.08786 -0.12239,0.216078 -0.21585,0.401484 -0.28279,0.868678 -0.54176,1.249341 -0.14298,0.247365 -0.36419,0.45518 -0.42497,0.745463 -0.0741,0.265185 -0.17824,0.529737 -0.1556,0.809938 0.0117,0.303791 -0.017,0.903702 0.0283,1.20453 -0.8224,-0.0018 -0.26771,-0.236492 -0.72921,-0.294692 -0.0468,-0.345358 -0.0291,-0.696723 -0.0189,-1.044299 0.0644,-0.328183 0.0758,-0.668412 0.0321,-0.99987 -0.0291,-0.266852 -0.20398,-0.467062 -0.38004,-0.653889 -0.35659,-0.453922 -0.7729,-0.855668 -1.17826,-1.265668 -0.17833,-0.184549 -0.35841,-0.432048 -0.24232,-0.699881 0.0217,-0.283146 0.29932,-0.442522 0.50112,-0.597476 0.13593,-0.05389 0.27174,-0.108401 0.40774,-0.161903 z"
         id="path1066"
         inkscape:connector-curvature="0"
         sodipodi:nodetypes="cccccccccccccccccccccccccccccccccccccccccc" />
      <path
         style="fill:#ffffff;fill-opacity:1;stroke:none;stroke-width:0.26499999;stroke-miterlimit:4;stroke-dasharray:none;stroke-opacity:1"
         d="m 136.12713,32.505461 c -0.0655,-0.366328 -0.0239,-0.192143 -0.10801,-0.553926 -0.0216,-0.21908 -0.0583,-0.436989 -0.0468,-0.658439 -0.008,-0.213825 0.0481,-0.423774 0.0317,-0.638299 -0.008,-0.288827 0.042,-0.598332 -0.11598,-0.859108 -0.11717,-0.229954 -0.36047,-0.360643 -0.48401,-0.587666 -0.11502,-0.199031 -0.22342,-0.403274 -0.36696,-0.584367 -0.0629,-0.154521 -0.10267,-0.31991 -0.1317,-0.483577 0.1375,-0.07152 0.27501,-0.143029 0.41251,-0.214544 0.0373,0.190546 0.065,0.400262 0.18819,0.557485 0.19323,0.24617 0.28667,0.562463 0.53141,0.769697 0.26621,0.217899 0.40646,0.566365 0.38067,0.907635 -0.002,0.268611 0.0128,0.539117 -0.0322,0.804904 3e-5,0.210512 -0.006,0.422072 0.0343,0.629495 0.004,0.222369 0.16271,-0.110343 0.21864,0.102777 0.47516,0.917405 0.43023,0.812422 -0.51176,0.807933 z"
         id="path1068"
         inkscape:connector-curvature="0"
         sodipodi:nodetypes="cccccccccccccccc" />
      <path
         style="fill:#ffffff;fill-opacity:1;stroke:none;stroke-width:0.26499999;stroke-miterlimit:4;stroke-dasharray:none;stroke-opacity:1"
         d="m 135.28491,27.943262 c 0.0212,0.189123 0.10418,0.366267 0.18143,0.538163 0.16751,0.291542 0.38278,0.556628 0.51096,0.870079 0.12482,0.249117 0.20769,0.516289 0.26699,0.787783 0.0599,0.215958 0.13833,0.427107 0.25495,0.619195 0.0783,0.139498 0.15223,0.281333 0.22606,0.423202 -0.13489,0.07689 -0.26977,0.153781 -0.40466,0.230671 -0.1139,-0.225728 -0.23887,-0.445961 -0.35405,-0.670795 -0.0987,-0.230758 -0.15184,-0.476578 -0.2192,-0.716961 -0.10437,-0.342886 -0.26797,-0.665822 -0.46387,-0.965213 -0.14206,-0.204453 -0.2735,-0.418996 -0.3472,-0.658713 -0.0103,-0.09087 -0.1372,-0.248391 0.002,-0.280783 0.1156,-0.05886 0.23117,-0.11787 0.34679,-0.176628 z"
         id="path1070"
         inkscape:connector-curvature="0" />
      <path
         style="fill:#ffffff;fill-opacity:1;stroke:none;stroke-width:0.26499999;stroke-miterlimit:4;stroke-dasharray:none;stroke-opacity:1"
         id="path1072"
         d="m 136.13399,29.113383 c -0.0177,0.07124 -0.0232,0.144634 -0.0282,0.217624 -0.006,0.08343 0.008,0.166595 0.0248,0.248098 0.0199,0.08741 0.0473,0.172769 0.0692,0.259669 0.0229,0.07145 0.0394,0.144593 0.0599,0.21669 0.0144,0.06445 0.0337,0.127681 0.0474,0.1923 0.0185,0.06255 0.0328,0.12575 0.0408,0.190483 0.0137,0.05395 0.0258,0.1078 0.0323,0.163132 0.0124,0.06095 0.0245,0.121691 0.0312,0.183589 0.003,0.06465 0.0194,0.12748 0.0283,0.191403 10e-4,0.05664 0.0165,0.110822 0.0273,0.166005 0.0165,0.05811 0.0291,0.117103 0.0454,0.175232 0.0122,0.05704 0.0292,0.112718 0.049,0.167588 0.0225,0.07192 0.0499,0.142232 0.0775,0.212332 0.006,0.01402 0.0118,0.02805 0.0177,0.04207 0,0 -0.40146,0.225777 -0.40146,0.225777 v 0 c -0.006,-0.01424 -0.0128,-0.02848 -0.0193,-0.04271 -0.0286,-0.06986 -0.0564,-0.140111 -0.081,-0.211458 -0.0218,-0.05554 -0.0379,-0.113113 -0.0501,-0.171481 -0.0169,-0.05931 -0.0299,-0.119423 -0.0485,-0.178261 -0.0102,-0.05627 -0.0276,-0.111076 -0.0276,-0.168814 -0.008,-0.06462 -0.0244,-0.127818 -0.0288,-0.192747 -0.006,-0.06183 -0.0158,-0.122779 -0.0316,-0.182882 -0.005,-0.0555 -0.0168,-0.10953 -0.0315,-0.163317 -0.006,-0.06368 -0.0187,-0.126115 -0.0388,-0.186995 -0.0121,-0.06393 -0.0325,-0.125666 -0.0451,-0.189482 -0.0203,-0.07296 -0.0358,-0.146983 -0.0587,-0.219239 -0.0206,-0.0878 -0.048,-0.173823 -0.0695,-0.261432 -0.0174,-0.08476 -0.0354,-0.170977 -0.0313,-0.257968 0.003,-0.07405 0.0102,-0.147737 0.0202,-0.221158 0,0 0.4208,-0.204047 0.4208,-0.204047 z"
         inkscape:connector-curvature="0" />
      <path
         style="fill:#000000;fill-opacity:1;stroke:none;stroke-width:0.26499999;stroke-miterlimit:4;stroke-dasharray:none;stroke-opacity:1"
         id="path1089"
         d="m 136.69712,33.250632 c 0.002,0.09374 10e-4,0.187497 10e-4,0.281246 -0.003,0.117789 -0.002,0.235598 -10e-4,0.353403 10e-4,0.105107 5.3e-4,0.210208 1.6e-4,0.315313 3e-5,0.103637 5.3e-4,0.207274 7.9e-4,0.310911 2e-4,0.09451 2.3e-4,0.189028 2.5e-4,0.283542 -2.6e-4,0.109451 -0.001,0.218902 -0.002,0.328355 -10e-4,0.120569 2e-5,0.241146 7.9e-4,0.361715 0.001,0.111634 -7.9e-4,0.223262 -7.9e-4,0.334895 -0.002,0.128804 0.003,0.257809 -0.004,0.386428 -0.0132,0.108455 -0.0269,0.216697 -0.0353,0.325645 -0.006,0.109862 -0.006,0.219944 -0.007,0.329934 -1.9e-4,0.121174 -5.3e-4,0.242348 -5.3e-4,0.363524 -1.5e-4,0.120143 2.5e-4,0.240282 0.001,0.360425 5.3e-4,0.09874 7.9e-4,0.197487 0.001,0.296231 -0.001,0.113518 -0.002,0.227044 -0.001,0.340568 -5.3e-4,0.124221 -7.9e-4,0.248447 -2.1e-4,0.37267 -2.7e-4,0.118185 7.9e-4,0.23638 1.1e-4,0.354564 3e-5,0.119595 -2.6e-4,0.239183 2.7e-4,0.358778 5.3e-4,0.101145 0.001,0.202291 0.001,0.303438 0.003,0.09019 -0.006,0.181144 0.004,0.270944 0.007,0.07502 0.04,0.13997 0.0722,0.206441 0.0379,0.05177 0.0862,0.142431 0.16066,0.133226 0.12509,-0.213085 0.0136,-0.01495 -0.5671,0.307083 -0.007,0.0039 0.013,-0.0098 0.0172,-0.01646 0.0189,-0.02967 0.0195,-0.07182 0.0231,-0.105293 0.006,-0.09223 0.005,-0.184756 0.004,-0.277125 -0.004,-0.09066 0.005,-0.182123 -0.005,-0.272381 -0.0181,-0.0815 -0.0301,-0.163716 -0.0368,-0.246882 -0.006,-0.09234 -0.006,-0.184916 -0.006,-0.277405 -10e-5,-0.09365 9e-5,-0.187301 1.8e-4,-0.280952 2.7e-4,-0.09555 -5.3e-4,-0.191093 7.9e-4,-0.286633 5.3e-4,-0.105467 3e-5,-0.210938 -2.6e-4,-0.316406 -2.6e-4,-0.09534 -2.6e-4,-0.19068 -2.6e-4,-0.286021 -3e-5,-0.09347 -3e-5,-0.186943 -2e-5,-0.280415 0.005,-0.09304 -0.003,-0.18393 -0.0184,-0.275481 -0.01,-0.09482 -0.0343,-0.186835 -0.052,-0.280252 -0.0169,-0.09918 -0.0412,-0.196191 -0.0538,-0.296179 -0.0202,-0.103485 -0.0411,-0.206498 -0.0527,-0.311388 -0.002,-0.0954 -0.0212,-0.188426 -0.0362,-0.282236 -0.0144,-0.09413 -0.0178,-0.189382 -0.0199,-0.284435 -0.001,-0.09372 -0.001,-0.187446 -0.001,-0.281169 -0.005,-0.08514 0.018,-0.167426 0.0314,-0.250673 0.0124,-0.0875 0.014,-0.175987 0.0153,-0.264193 5.3e-4,-0.09793 0.001,-0.195851 0.001,-0.293777 -4e-5,-0.103647 -5.3e-4,-0.207293 -7.9e-4,-0.310939 -2.3e-4,-0.09463 -2.6e-4,-0.189254 -2.7e-4,-0.283881 -1e-5,-0.09345 0,-0.18691 0,-0.280365 -0.003,-0.09588 0.0195,-0.189803 0.0321,-0.284335 0.0112,-0.09197 0.0131,-0.184684 0.0144,-0.277216 0.006,-0.08254 0.0267,-0.162769 0.0367,-0.244889 0.006,-0.09212 0.0708,-0.338854 0.0838,-0.430106 0.44195,-0.964607 0.9905,-0.960262 0.39925,1.24817 -0.007,0.08109 0.11667,-0.964113 0.0954,-0.885427 -8e-4,0.09475 -0.002,0.189661 -0.0111,0.28405 -0.0104,0.0926 -0.0335,0.183841 -0.0357,0.276792 0,0.09346 0,0.186914 -1e-5,0.280371 -3e-5,0.09471 -6e-5,0.189421 -2.5e-4,0.284131 -2.2e-4,0.103849 -5.3e-4,0.207699 -5.3e-4,0.311549 5.3e-4,0.09785 0.002,0.195705 7.9e-4,0.293565 -7.9e-4,0.09056 -10e-4,0.18129 -0.0103,0.271488 -0.01,0.0817 -0.0352,0.160866 -0.0369,0.242803 -1.3e-4,0.09332 -5.3e-4,0.186642 5.3e-4,0.279959 10e-4,0.09225 0.003,0.184725 0.0155,0.276304 0.014,0.09522 0.038,0.188941 0.0375,0.285744 0.009,0.104832 0.027,0.208194 0.0507,0.310736 0.0115,0.0988 0.0367,0.194061 0.0536,0.291726 0.0162,0.09408 0.0439,0.185675 0.0524,0.281007 0.0161,0.09503 0.0317,0.188639 0.0239,0.285584 0,0.09348 1e-5,0.186956 -2e-5,0.280434 -4e-5,0.09546 -1e-4,0.190925 -2.6e-4,0.286388 -2.7e-4,0.105565 -8e-4,0.211131 -2.7e-4,0.316696 0.001,0.09534 5.3e-4,0.190681 5.3e-4,0.286023 -8e-5,0.09357 -2.5e-4,0.18715 -2.4e-4,0.280726 1.5e-4,0.0909 6e-5,0.181871 0.005,0.272679 0.006,0.08184 0.0157,0.163 0.0352,0.242811 0.0146,0.09281 0.004,0.187407 0.008,0.281094 5.3e-4,0.09381 0.002,0.187642 -5.3e-4,0.281434 -0.0128,0.303078 -0.15109,0.65009 -0.66174,0.518031 -0.0814,-0.04061 -0.14381,-0.108797 -0.19039,-0.18628 -0.0361,-0.07272 -0.074,-0.143563 -0.0826,-0.225973 -0.0145,-0.09245 -0.004,-0.186669 -0.007,-0.279992 1.8e-4,-0.101529 5.3e-4,-0.20306 0.001,-0.304589 5.3e-4,-0.119687 2.5e-4,-0.239369 2.6e-4,-0.359058 -7.9e-4,-0.118224 5.3e-4,-0.23646 1.2e-4,-0.354685 5.3e-4,-0.124149 2.1e-4,-0.248302 -2.1e-4,-0.37245 2.6e-4,-0.113061 -2.7e-4,-0.226124 -10e-4,-0.339179 1.2e-4,-0.09906 2.7e-4,-0.198119 10e-4,-0.297177 7.9e-4,-0.120419 0.001,-0.240834 7.9e-4,-0.361254 -1e-5,-0.121034 -7.9e-4,-0.242067 -7.9e-4,-0.3631 -7e-5,-0.111037 -5.3e-4,-0.222091 0.004,-0.333061 0.005,-0.110304 0.0188,-0.219569 0.0366,-0.3285 0.015,-0.126287 0.003,-0.253867 0.007,-0.380816 -1.9e-4,-0.111325 -0.002,-0.222645 -8e-4,-0.33397 8e-4,-0.120816 0.002,-0.24164 8e-4,-0.362456 -1.9e-4,-0.108923 -0.001,-0.217842 -0.002,-0.326762 2e-5,-0.0946 5e-5,-0.189197 2.5e-4,-0.283795 2.4e-4,-0.103891 7.9e-4,-0.207782 7.9e-4,-0.311673 -2.6e-4,-0.105174 -0.001,-0.210344 2.1e-4,-0.31552 5.3e-4,-0.117418 0.001,-0.23484 -0.001,-0.352247 1.1e-4,-0.09333 5.3e-4,-0.186653 -5.3e-4,-0.279975 -0.001,-0.09232 -0.004,-0.184847 -0.0157,-0.276505 -0.0137,-0.09496 -0.0374,-0.188846 -0.0303,-0.28548 -2.6e-4,-0.09878 0.0947,-0.398695 0.0882,-0.497334 0.82242,0.0018 0.55514,0.483135 0.56999,0.745171 z"
         inkscape:connector-curvature="0"
         sodipodi:nodetypes="ccccccccccccccccccccccccccccccccccccccccccccccccccccccccccccccccccccccccccccccccccccccccccccccccccccccccc" />
    </g>
  </g>
  <g
     inkscape:groupmode="layer"
     id="layer2"
     inkscape:label="X"
     transform="translate(-49.488285,-12.99905)" />
</svg>
