<?xml version="1.0" encoding="UTF-8" standalone="no"?><!DOCTYPE svg PUBLIC "-//W3C//DTD SVG 1.1//EN" "http://www.w3.org/Graphics/SVG/1.1/DTD/svg11.dtd"><svg width="100%" height="100%" viewBox="0 0 571 654" version="1.1" xmlns="http://www.w3.org/2000/svg" xmlns:xlink="http://www.w3.org/1999/xlink" xml:space="preserve" xmlns:serif="http://www.serif.com/" style="fill-rule:evenodd;clip-rule:evenodd;stroke-linecap:round;stroke-linejoin:round;stroke-miterlimit:1.5;"><path d="M559.942,373.991c12.518,-7.227 13.879,-18.176 3.039,-24.435l-303.663,-175.32c-10.841,-6.258 -29.805,-5.472 -42.322,1.755l-206.64,119.303c-12.517,7.227 -13.879,18.176 -3.038,24.435l303.663,175.32c10.84,6.258 29.804,5.472 42.321,-1.755l206.64,-119.303Z" style="fill:#161616;"/><clipPath id="_clip1"><path d="M559.942,373.991c12.518,-7.227 13.879,-18.176 3.039,-24.435l-303.663,-175.32c-10.841,-6.258 -29.805,-5.472 -42.322,1.755l-206.64,119.303c-12.517,7.227 -13.879,18.176 -3.038,24.435l303.663,175.32c10.84,6.258 29.804,5.472 42.321,-1.755l206.64,-119.303Z"/></clipPath><g clip-path="url(#_clip1)"><path d="M281.618,228.681c8.604,4.967 7.523,13.657 -2.411,19.392c-9.935,5.736 -24.985,6.36 -33.589,1.392c-8.603,-4.967 -7.523,-13.656 2.412,-19.392c9.934,-5.735 24.985,-6.359 33.588,-1.392Z" style="fill:#fff;"/><path d="M339.149,303.465c8.604,4.968 7.523,13.657 -2.411,19.393c-9.935,5.735 -24.985,6.359 -33.589,1.392c-8.603,-4.967 -7.523,-13.657 2.412,-19.392c9.934,-5.736 24.985,-6.36 33.588,-1.393Z" style="fill:#fff;"/><path d="M249.544,310.339l0.716,0.291l0.605,0.482l0.444,0.632l0.249,0.733l0.032,0.772l-0.187,0.75l-0.391,0.667l-0.563,0.53l-0.689,0.35l-0.76,0.142l-210.992,8.746l-0.769,-0.078l-0.716,-0.292l-0.604,-0.482l-0.445,-0.632l-0.248,-0.732l-0.032,-0.773l0.187,-0.75l0.39,-0.667l0.563,-0.53l0.689,-0.35l0.76,-0.142l210.992,-8.746l0.769,0.079Z" style="fill:#fab7ac;"/><path d="M274.025,324.472l0.715,0.292l0.605,0.482l0.445,0.632l0.248,0.732l0.032,0.773l-0.187,0.75l-0.391,0.667l-0.562,0.53l-0.69,0.35l-0.76,0.142l-210.991,8.746l-0.769,-0.079l-0.716,-0.291l-0.605,-0.482l-0.444,-0.633l-0.249,-0.732l-0.032,-0.772l0.187,-0.75l0.391,-0.667l0.563,-0.53l0.689,-0.35l0.76,-0.142l210.991,-8.746l0.77,0.078Z" style="fill:#fab7ac;"/><path d="M204.795,309.035c8.604,4.967 7.523,13.656 -2.411,19.392c-9.935,5.736 -24.985,6.36 -33.589,1.392c-8.603,-4.967 -7.523,-13.656 2.412,-19.392c9.934,-5.736 24.985,-6.36 33.588,-1.392Z" style="fill:#fff;"/><g><path d="M-11.065,293.453l210.992,-8.746" style="fill:none;"/><path d="M200.583,282.071l0.716,0.292l0.605,0.481l0.444,0.633l0.249,0.732l0.032,0.772l-0.187,0.751l-0.391,0.667l-0.562,0.53l-0.69,0.35l-0.76,0.141l-210.991,8.746l-0.769,-0.078l-0.716,-0.292l-0.605,-0.481l-0.445,-0.633l-0.248,-0.732l-0.032,-0.772l0.187,-0.75l0.391,-0.667l0.562,-0.53l0.69,-0.35l0.76,-0.142l210.991,-8.746l0.769,0.078Z" style="fill:#fab7ac;"/><path d="M1.175,300.519l210.992,-8.746" style="fill:none;"/><path d="M212.824,289.138l0.715,0.292l0.605,0.481l0.445,0.633l0.248,0.732l0.032,0.772l-0.187,0.75l-0.391,0.668l-0.562,0.53l-0.69,0.35l-0.76,0.141l-210.991,8.746l-0.769,-0.078l-0.716,-0.292l-0.605,-0.481l-0.444,-0.633l-0.249,-0.732l-0.032,-0.772l0.187,-0.751l0.391,-0.667l0.563,-0.53l0.689,-0.35l0.76,-0.141l210.991,-8.746l0.77,0.078Z" style="fill:#fab7ac;"/><path d="M13.416,307.586l210.991,-8.746" style="fill:none;"/><path d="M225.064,296.205l0.716,0.292l0.604,0.481l0.445,0.633l0.248,0.732l0.032,0.772l-0.187,0.75l-0.39,0.667l-0.563,0.53l-0.689,0.35l-0.76,0.142l-210.992,8.746l-0.769,-0.078l-0.716,-0.292l-0.605,-0.482l-0.444,-0.632l-0.248,-0.732l-0.032,-0.773l0.186,-0.75l0.391,-0.667l0.563,-0.53l0.689,-0.35l0.76,-0.141l210.992,-8.746l0.769,0.078Z" style="fill:#fab7ac;"/><path d="M25.656,314.653l210.991,-8.746" style="fill:none;"/><path d="M237.304,303.272l0.716,0.292l0.605,0.481l0.444,0.633l0.248,0.732l0.032,0.772l-0.186,0.75l-0.391,0.667l-0.563,0.53l-0.689,0.35l-0.76,0.142l-210.992,8.746l-0.769,-0.078l-0.716,-0.292l-0.604,-0.482l-0.445,-0.632l-0.248,-0.732l-0.032,-0.773l0.187,-0.75l0.39,-0.667l0.563,-0.53l0.689,-0.35l0.76,-0.141l210.992,-8.746l0.769,0.078Z" style="fill:#fab7ac;"/><path d="M50.136,328.787l210.992,-8.746" style="fill:none;"/><path d="M261.784,317.406l0.716,0.291l0.605,0.482l0.444,0.632l0.249,0.732l0.032,0.773l-0.187,0.75l-0.391,0.667l-0.563,0.53l-0.689,0.35l-0.76,0.142l-210.991,8.746l-0.769,-0.079l-0.716,-0.291l-0.605,-0.482l-0.445,-0.632l-0.248,-0.732l-0.032,-0.773l0.187,-0.75l0.391,-0.667l0.562,-0.53l0.69,-0.35l0.76,-0.142l210.991,-8.746l0.769,0.079Z" style="fill:#fab7ac;"/><path d="M74.617,342.921l210.991,-8.746" style="fill:none;"/><path d="M286.265,331.539l0.716,0.292l0.604,0.482l0.445,0.632l0.248,0.732l0.032,0.773l-0.187,0.75l-0.39,0.667l-0.563,0.53l-0.689,0.35l-0.76,0.141l-210.992,8.746l-0.769,-0.078l-0.716,-0.292l-0.605,-0.481l-0.444,-0.633l-0.249,-0.732l-0.032,-0.772l0.187,-0.75l0.391,-0.667l0.563,-0.53l0.689,-0.35l0.76,-0.142l210.992,-8.746l0.769,0.078Z" style="fill:#fab7ac;"/><path d="M86.857,349.988l210.991,-8.746" style="fill:none;"/><path d="M298.505,338.606l0.716,0.292l0.605,0.482l0.444,0.632l0.248,0.732l0.032,0.772l-0.187,0.751l-0.39,0.667l-0.563,0.53l-0.689,0.35l-0.76,0.141l-210.992,8.746l-0.769,-0.078l-0.716,-0.292l-0.604,-0.481l-0.445,-0.633l-0.248,-0.732l-0.032,-0.772l0.187,-0.75l0.39,-0.667l0.563,-0.53l0.689,-0.35l0.76,-0.142l210.992,-8.746l0.769,0.078Z" style="fill:#fab7ac;"/><path d="M111.337,364.121l210.992,-8.746" style="fill:none;"/><path d="M322.985,352.74l0.716,0.292l0.605,0.481l0.444,0.633l0.249,0.732l0.032,0.772l-0.187,0.75l-0.391,0.667l-0.563,0.53l-0.689,0.35l-0.76,0.142l-210.991,8.746l-0.769,-0.078l-0.716,-0.292l-0.605,-0.482l-0.445,-0.632l-0.248,-0.732l-0.032,-0.773l0.187,-0.75l0.391,-0.667l0.562,-0.53l0.69,-0.35l0.76,-0.141l210.991,-8.746l0.769,0.078Z" style="fill:#fab7ac;"/></g><path d="M287.561,315.25l-40.823,59.569l-62.354,-36l103.177,-23.569Z" style="fill:#fff;"/><path d="M310.745,345.673l0.716,0.292l0.605,0.481l0.444,0.633l0.249,0.732l0.032,0.772l-0.187,0.75l-0.391,0.668l-0.563,0.53l-0.689,0.35l-0.76,0.141l-210.992,8.746l-0.769,-0.078l-0.716,-0.292l-0.604,-0.481l-0.445,-0.633l-0.248,-0.732l-0.032,-0.772l0.187,-0.75l0.39,-0.668l0.563,-0.53l0.689,-0.35l0.76,-0.141l210.992,-8.746l0.769,0.078Z" style="fill:#fab7ac;"/><g transform="matrix(0.207846,0.12,-0.24,0.138564,301.058,-145.74)"><g transform="matrix(125,0,0,125,2099.48,1484.84)"><path d="M0.565,-0.25c-0.02,0.06 -0.075,0.135 -0.18,0.135c-0.12,0 -0.21,-0.09 -0.21,-0.235c0,-0.145 0.09,-0.235 0.21,-0.235c0.105,0 0.16,0.075 0.18,0.13l0.135,0c-0.02,-0.095 -0.11,-0.255 -0.315,-0.255c-0.19,0 -0.34,0.15 -0.34,0.36c0,0.21 0.15,0.36 0.34,0.36c0.22,0 0.3,-0.18 0.315,-0.26l-0.135,0Z" style="fill:#fff;fill-rule:nonzero;"/></g><g transform="matrix(125,0,0,125,2191.35,1484.84)"><path d="M0.065,0l0.125,0l0,-0.295c0,-0.065 0.03,-0.095 0.095,-0.095l0.09,0l0,-0.12l-0.1,0c-0.06,0 -0.09,0.045 -0.09,0.045l-0.005,0l-0.01,-0.045l-0.105,0l0,0.51Z" style="fill:#fff;fill-rule:nonzero;"/></g><g transform="matrix(125,0,0,125,2236.98,1484.84)"><path d="M0.385,0l0.105,0l0,-0.325c0,-0.11 -0.085,-0.195 -0.215,-0.195c-0.135,0 -0.205,0.08 -0.215,0.165l0.125,0c0.005,-0.03 0.035,-0.065 0.09,-0.065c0.055,0 0.09,0.04 0.09,0.095l0,0.01l-0.115,0c-0.14,0 -0.21,0.07 -0.21,0.17c0,0.085 0.07,0.155 0.185,0.155c0.1,0 0.145,-0.06 0.145,-0.06l0.005,0l0.01,0.05Zm-0.02,-0.205c0,0.07 -0.045,0.115 -0.12,0.115c-0.05,0 -0.08,-0.025 -0.08,-0.065c0,-0.04 0.03,-0.065 0.095,-0.065l0.105,0l0,0.015Z" style="fill:#fff;fill-rule:nonzero;"/></g><g transform="matrix(125,0,0,125,2305.73,1484.84)"><path d="M0.11,0l0.125,0l0,-0.39l0.11,0l0,-0.12l-0.11,0l0,-0.055c0,-0.02 0.015,-0.035 0.035,-0.035l0.075,0l0,-0.11l-0.11,0c-0.075,0 -0.125,0.05 -0.125,0.125l0,0.075l-0.085,0l0,0.12l0.085,0l0,0.39Z" style="fill:#fff;fill-rule:nonzero;"/></g><g transform="matrix(125,0,0,125,2351.98,1484.84)"><path d="M0.105,-0.12c0,0.075 0.045,0.12 0.13,0.12l0.11,0l0,-0.11l-0.08,0c-0.025,0 -0.035,-0.01 -0.035,-0.035l0,-0.245l0.115,0l0,-0.12l-0.115,0l0,-0.145l-0.125,0l0,0.145l-0.08,0l0,0.12l0.08,0l0,0.27Z" style="fill:#fff;fill-rule:nonzero;"/></g><g transform="matrix(125,0,0,125,2099.48,1609.84)"><path d="M0.035,-0.22c0,0.13 0.105,0.23 0.285,0.23c0.18,0 0.27,-0.09 0.27,-0.21c0,-0.115 -0.065,-0.175 -0.205,-0.2l-0.11,-0.02c-0.075,-0.014 -0.095,-0.04 -0.095,-0.08c0,-0.05 0.04,-0.09 0.13,-0.09c0.09,0 0.14,0.05 0.14,0.11l0.13,0c0,-0.13 -0.09,-0.23 -0.27,-0.23c-0.165,0 -0.26,0.095 -0.26,0.21c0,0.1 0.055,0.17 0.175,0.19l0.12,0.02c0.09,0.015 0.115,0.05 0.115,0.09c0,0.05 -0.04,0.09 -0.14,0.09c-0.095,0 -0.155,-0.05 -0.155,-0.11l-0.13,0Z" style="fill:#fff;fill-rule:nonzero;"/></g><g transform="matrix(125,0,0,125,2178.85,1609.84)"><path d="M0.3,-0.105c-0.075,0 -0.135,-0.06 -0.135,-0.15c0,-0.09 0.06,-0.15 0.135,-0.15c0.075,0 0.135,0.06 0.135,0.15c0,0.09 -0.06,0.15 -0.135,0.15Zm0,-0.415c-0.15,0 -0.26,0.11 -0.26,0.265c0,0.155 0.11,0.265 0.26,0.265c0.15,0 0.26,-0.11 0.26,-0.265c0,-0.155 -0.11,-0.265 -0.26,-0.265Z" style="fill:#fff;fill-rule:nonzero;"/></g><g transform="matrix(125,0,0,125,2253.85,1609.84)"><path d="M0.065,0l0.125,0l0,-0.305c0,-0.055 0.04,-0.1 0.095,-0.1c0.05,0 0.085,0.035 0.085,0.1l0,0.305l0.125,0l0,-0.305c0,-0.055 0.04,-0.1 0.095,-0.1c0.05,0 0.085,0.035 0.085,0.1l0,0.305l0.125,0l0,-0.315c0,-0.115 -0.085,-0.205 -0.19,-0.205c-0.105,0 -0.15,0.07 -0.15,0.07l-0.005,0c0,0 -0.04,-0.07 -0.14,-0.07c-0.08,0 -0.12,0.06 -0.12,0.06l-0.005,0l-0.01,-0.05l-0.115,0l0,0.51Z" style="fill:#fff;fill-rule:nonzero;"/></g><g transform="matrix(125,0,0,125,2361.35,1609.84)"><path d="M0.165,-0.3c0.015,-0.065 0.06,-0.115 0.135,-0.115c0.07,0 0.115,0.05 0.125,0.115l-0.26,0Zm0.24,0.15c-0.01,0.02 -0.045,0.055 -0.105,0.055c-0.07,0 -0.125,-0.05 -0.135,-0.12l0.38,0c0,0 0.005,-0.02 0.005,-0.05c0,-0.145 -0.11,-0.255 -0.25,-0.255c-0.15,0 -0.26,0.11 -0.26,0.265c0,0.155 0.11,0.265 0.26,0.265c0.16,0 0.225,-0.12 0.235,-0.16l-0.13,0Z" style="fill:#fff;fill-rule:nonzero;"/></g><g transform="matrix(125,0,0,125,2432.6,1609.84)"><path d="M0.105,-0.12c0,0.075 0.045,0.12 0.13,0.12l0.11,0l0,-0.11l-0.08,0c-0.025,0 -0.035,-0.01 -0.035,-0.035l0,-0.245l0.115,0l0,-0.12l-0.115,0l0,-0.145l-0.125,0l0,0.145l-0.08,0l0,0.12l0.08,0l0,0.27Z" style="fill:#fff;fill-rule:nonzero;"/></g><g transform="matrix(125,0,0,125,2481.35,1609.84)"><path d="M0.07,0l0.125,0l0,-0.295c0,-0.065 0.045,-0.11 0.11,-0.11c0.065,0 0.11,0.045 0.11,0.11l0,0.295l0.125,0l0,-0.305c0,-0.13 -0.085,-0.215 -0.2,-0.215c-0.095,0 -0.14,0.06 -0.14,0.06l-0.005,0l0,-0.24l-0.125,0l0,0.7Z" style="fill:#fff;fill-rule:nonzero;"/></g><g transform="matrix(125,0,0,125,2556.35,1609.84)"><path d="M0.065,0l0.125,0l0,-0.51l-0.125,0l0,0.51Zm-0.005,-0.59l0.135,0l0,-0.12l-0.135,0l0,0.12Z" style="fill:#fff;fill-rule:nonzero;"/></g><g transform="matrix(125,0,0,125,2588.23,1609.84)"><path d="M0.065,0l0.125,0l0,-0.295c0,-0.065 0.045,-0.11 0.11,-0.11c0.065,0 0.11,0.045 0.11,0.11l0,0.295l0.125,0l0,-0.305c0,-0.13 -0.085,-0.215 -0.2,-0.215c-0.095,0 -0.14,0.06 -0.14,0.06l-0.005,0l-0.01,-0.05l-0.115,0l0,0.51Z" style="fill:#fff;fill-rule:nonzero;"/></g><g transform="matrix(125,0,0,125,2662.6,1609.84)"><path d="M0.055,0.025c0,0.035 0.04,0.185 0.24,0.185c0.15,0 0.245,-0.09 0.245,-0.224l0,-0.496l-0.11,0l-0.01,0.05l-0.005,0c0,0 -0.045,-0.06 -0.145,-0.06c-0.13,0 -0.23,0.1 -0.23,0.245c0,0.145 0.1,0.245 0.23,0.245c0.095,0 0.14,-0.055 0.14,-0.055l0.005,0l0,0.07c0,0.07 -0.05,0.115 -0.12,0.115c-0.08,0 -0.105,-0.05 -0.11,-0.075l-0.13,0Zm0.235,-0.435c0.07,0 0.125,0.055 0.125,0.135c0,0.08 -0.055,0.135 -0.125,0.135c-0.07,0 -0.125,-0.055 -0.125,-0.135c0,-0.08 0.055,-0.135 0.125,-0.135Z" style="fill:#fff;fill-rule:nonzero;"/></g><g transform="matrix(125,0,0,125,2099.48,1734.84)"><path d="M0.075,0l0.13,0l0,-0.485l0.02,0l0.255,0.485l0.175,0l0,-0.7l-0.13,0l0,0.485l-0.02,0l-0.255,-0.485l-0.175,0l0,0.7Z" style="fill:#fff;fill-rule:nonzero;"/></g><g transform="matrix(125,0,0,125,2190.73,1734.84)"><path d="M0.165,-0.3c0.015,-0.065 0.06,-0.115 0.135,-0.115c0.07,0 0.115,0.05 0.125,0.115l-0.26,0Zm0.24,0.15c-0.01,0.02 -0.045,0.055 -0.105,0.055c-0.07,0 -0.125,-0.05 -0.135,-0.12l0.38,0c0,0 0.005,-0.02 0.005,-0.05c0,-0.145 -0.11,-0.255 -0.25,-0.255c-0.15,0 -0.26,0.11 -0.26,0.265c0,0.155 0.11,0.265 0.26,0.265c0.16,0 0.225,-0.12 0.235,-0.16l-0.13,0Z" style="fill:#fff;fill-rule:nonzero;"/></g><g transform="matrix(125,0,0,125,2263.23,1734.84)"><path d="M0.135,0l0.165,0l0.085,-0.33l0.02,0l0.085,0.33l0.165,0l0.13,-0.51l-0.13,0l-0.085,0.335l-0.02,0l-0.085,-0.335l-0.14,0l-0.085,0.335l-0.02,0l-0.085,-0.335l-0.13,0l0.13,0.51Z" style="fill:#fff;fill-rule:nonzero;"/></g></g></g><path d="M271.885,2.491c-8.886,-5.13 -16.1,-2.081 -16.1,6.805l0,128.801c0,8.886 7.214,20.265 16.1,25.395l170.45,98.409c8.886,5.131 16.1,2.082 16.1,-6.804l0,-128.801c0,-8.886 -7.214,-20.266 -16.1,-25.396l-170.45,-98.409Z" style="fill:#fab7ac;"/><clipPath id="_clip2"><path d="M271.885,2.491c-8.886,-5.13 -16.1,-2.081 -16.1,6.805l0,128.801c0,8.886 7.214,20.265 16.1,25.395l170.45,98.409c8.886,5.131 16.1,2.082 16.1,-6.804l0,-128.801c0,-8.886 -7.214,-20.266 -16.1,-25.396l-170.45,-98.409Z"/></clipPath><g clip-path="url(#_clip2)"><g><path d="M502.352,405.139l-98.246,-154.969" style="fill:none;stroke:#fff;stroke-width:4.02px;"/><path d="M502.352,392.858l-98.246,-154.969" style="fill:none;stroke:#fff;stroke-width:4.02px;"/><path d="M502.352,380.577l-98.246,-154.969" style="fill:none;stroke:#fff;stroke-width:4.02px;"/><path d="M502.352,368.296l-98.246,-154.969" style="fill:none;stroke:#fff;stroke-width:4.02px;"/><path d="M502.352,356.015l-98.246,-154.968" style="fill:none;stroke:#fff;stroke-width:4.02px;"/><path d="M502.352,343.735l-98.246,-154.969" style="fill:none;stroke:#fff;stroke-width:4.02px;"/><path d="M502.352,331.454l-98.246,-154.969" style="fill:none;stroke:#fff;stroke-width:4.02px;"/><path d="M502.352,319.173l-98.246,-154.969" style="fill:none;stroke:#fff;stroke-width:4.02px;"/><path d="M502.352,306.892l-98.246,-154.968" style="fill:none;stroke:#fff;stroke-width:4.02px;"/><path d="M502.352,294.612l-98.246,-154.969" style="fill:none;stroke:#fff;stroke-width:4.02px;"/><path d="M502.352,282.331l-98.246,-154.969" style="fill:none;stroke:#fff;stroke-width:4.02px;"/></g><g transform="matrix(0.212467,0.122668,6.51589e-17,0.283289,-71.4351,-415.518)"><g transform="matrix(83.3333,0,0,83.3333,1599.02,890.849)"><path d="M0.075,0l0.13,0l0,-0.29l0.31,0l0,-0.12l-0.31,0l0,-0.17l0.335,0l0,-0.12l-0.465,0l0,0.7Z" style="fill:#231f20;fill-rule:nonzero;"/></g><g transform="matrix(83.3333,0,0,83.3333,1647.77,890.849)"><path d="M0.065,0l0.125,0l0,-0.51l-0.125,0l0,0.51Zm-0.005,-0.59l0.135,0l0,-0.12l-0.135,0l0,0.12Z" style="fill:#231f20;fill-rule:nonzero;"/></g><g transform="matrix(83.3333,0,0,83.3333,1669.02,890.849)"><path d="M0.065,0l0.125,0l0,-0.295c0,-0.065 0.045,-0.11 0.11,-0.11c0.065,0 0.11,0.045 0.11,0.11l0,0.295l0.125,0l0,-0.305c0,-0.13 -0.085,-0.215 -0.2,-0.215c-0.095,0 -0.14,0.06 -0.14,0.06l-0.005,0l-0.01,-0.05l-0.115,0l0,0.51Z" style="fill:#231f20;fill-rule:nonzero;"/></g><g transform="matrix(83.3333,0,0,83.3333,1718.61,890.849)"><path d="M0.295,-0.105c-0.075,0 -0.13,-0.055 -0.13,-0.15c0,-0.095 0.055,-0.15 0.13,-0.15c0.075,0 0.13,0.055 0.13,0.15c0,0.095 -0.055,0.15 -0.13,0.15Zm0.145,0.105l0.11,0l0,-0.7l-0.125,0l0,0.245l-0.005,0c0,0 -0.045,-0.065 -0.145,-0.065c-0.13,0 -0.235,0.105 -0.235,0.265c0,0.16 0.105,0.265 0.235,0.265c0.105,0 0.15,-0.065 0.15,-0.065l0.005,0l0.01,0.055Z" style="fill:#231f20;fill-rule:nonzero;"/></g><g transform="matrix(83.3333,0,0,83.3333,1599.02,974.182)"><rect x="0.075" y="-0.7" width="0.13" height="0.7" style="fill:#231f20;fill-rule:nonzero;"/></g><g transform="matrix(83.3333,0,0,83.3333,1622.36,974.182)"><path d="M0.065,0l0.125,0l0,-0.295c0,-0.065 0.045,-0.11 0.11,-0.11c0.065,0 0.11,0.045 0.11,0.11l0,0.295l0.125,0l0,-0.305c0,-0.13 -0.085,-0.215 -0.2,-0.215c-0.095,0 -0.14,0.06 -0.14,0.06l-0.005,0l-0.01,-0.05l-0.115,0l0,0.51Z" style="fill:#231f20;fill-rule:nonzero;"/></g><g transform="matrix(83.3333,0,0,83.3333,1671.94,974.182)"><path d="M0.03,-0.155c0,0.035 0.03,0.165 0.22,0.165c0.15,0 0.22,-0.07 0.22,-0.155c0,-0.09 -0.055,-0.139 -0.16,-0.155l-0.085,-0.013c-0.045,-0.007 -0.07,-0.022 -0.07,-0.047c0,-0.03 0.03,-0.06 0.09,-0.06c0.06,0 0.095,0.035 0.095,0.065l0.12,0c0,-0.06 -0.065,-0.165 -0.215,-0.165c-0.14,0 -0.215,0.075 -0.215,0.16c0,0.085 0.06,0.128 0.165,0.145l0.08,0.013c0.055,0.009 0.07,0.027 0.07,0.057c0,0.031 -0.025,0.055 -0.095,0.055c-0.07,0 -0.1,-0.04 -0.1,-0.065l-0.12,0Z" style="fill:#231f20;fill-rule:nonzero;"/></g><g transform="matrix(83.3333,0,0,83.3333,1714.02,974.182)"><path d="M0.45,-0.255c0,0.095 -0.055,0.15 -0.13,0.15c-0.075,0 -0.13,-0.055 -0.13,-0.15c0,-0.095 0.055,-0.15 0.13,-0.15c0.075,0 0.13,0.055 0.13,0.15Zm-0.385,0.455l0.125,0l0,-0.25l0.005,0c0,0 0.04,0.06 0.145,0.06c0.13,0 0.235,-0.105 0.235,-0.265c0,-0.16 -0.105,-0.265 -0.235,-0.265c-0.1,0 -0.145,0.065 -0.145,0.065l-0.005,0l-0.01,-0.055l-0.115,0l0,0.71Z" style="fill:#231f20;fill-rule:nonzero;"/></g><g transform="matrix(83.3333,0,0,83.3333,1765.27,974.182)"><path d="M0.065,0l0.125,0l0,-0.51l-0.125,0l0,0.51Zm-0.005,-0.59l0.135,0l0,-0.12l-0.135,0l0,0.12Z" style="fill:#231f20;fill-rule:nonzero;"/></g><g transform="matrix(83.3333,0,0,83.3333,1786.52,974.182)"><path d="M0.065,0l0.125,0l0,-0.295c0,-0.065 0.03,-0.095 0.095,-0.095l0.09,0l0,-0.12l-0.1,0c-0.06,0 -0.09,0.045 -0.09,0.045l-0.005,0l-0.01,-0.045l-0.105,0l0,0.51Z" style="fill:#231f20;fill-rule:nonzero;"/></g><g transform="matrix(83.3333,0,0,83.3333,1816.94,974.182)"><path d="M0.385,0l0.105,0l0,-0.325c0,-0.11 -0.085,-0.195 -0.215,-0.195c-0.135,0 -0.205,0.08 -0.215,0.165l0.125,0c0.005,-0.03 0.035,-0.065 0.09,-0.065c0.055,0 0.09,0.04 0.09,0.095l0,0.01l-0.115,0c-0.14,0 -0.21,0.07 -0.21,0.17c0,0.085 0.07,0.155 0.185,0.155c0.1,0 0.145,-0.06 0.145,-0.06l0.005,0l0.01,0.05Zm-0.02,-0.205c0,0.07 -0.045,0.115 -0.12,0.115c-0.05,0 -0.08,-0.025 -0.08,-0.065c0,-0.04 0.03,-0.065 0.095,-0.065l0.105,0l0,0.015Z" style="fill:#231f20;fill-rule:nonzero;"/></g><g transform="matrix(83.3333,0,0,83.3333,1861.11,974.182)"><path d="M0.105,-0.12c0,0.075 0.045,0.12 0.13,0.12l0.11,0l0,-0.11l-0.08,0c-0.025,0 -0.035,-0.01 -0.035,-0.035l0,-0.245l0.115,0l0,-0.12l-0.115,0l0,-0.145l-0.125,0l0,0.145l-0.08,0l0,0.12l0.08,0l0,0.27Z" style="fill:#231f20;fill-rule:nonzero;"/></g><g transform="matrix(83.3333,0,0,83.3333,1893.61,974.182)"><path d="M0.065,0l0.125,0l0,-0.51l-0.125,0l0,0.51Zm-0.005,-0.59l0.135,0l0,-0.12l-0.135,0l0,0.12Z" style="fill:#231f20;fill-rule:nonzero;"/></g><g transform="matrix(83.3333,0,0,83.3333,1914.86,974.182)"><path d="M0.3,-0.105c-0.075,0 -0.135,-0.06 -0.135,-0.15c0,-0.09 0.06,-0.15 0.135,-0.15c0.075,0 0.135,0.06 0.135,0.15c0,0.09 -0.06,0.15 -0.135,0.15Zm0,-0.415c-0.15,0 -0.26,0.11 -0.26,0.265c0,0.155 0.11,0.265 0.26,0.265c0.15,0 0.26,-0.11 0.26,-0.265c0,-0.155 -0.11,-0.265 -0.26,-0.265Z" style="fill:#231f20;fill-rule:nonzero;"/></g><g transform="matrix(83.3333,0,0,83.3333,1964.86,974.182)"><path d="M0.065,0l0.125,0l0,-0.295c0,-0.065 0.045,-0.11 0.11,-0.11c0.065,0 0.11,0.045 0.11,0.11l0,0.295l0.125,0l0,-0.305c0,-0.13 -0.085,-0.215 -0.2,-0.215c-0.095,0 -0.14,0.06 -0.14,0.06l-0.005,0l-0.01,-0.05l-0.115,0l0,0.51Z" style="fill:#231f20;fill-rule:nonzero;"/></g><g transform="matrix(83.3333,0,0,83.3333,1599.02,1057.52)"><path d="M0,0l0.145,0l0.053,-0.15l0.294,0l0.053,0.15l0.145,0l-0.25,-0.7l-0.19,0l-0.25,0.7Zm0.24,-0.27l0.095,-0.28l0.02,0l0.095,0.28l-0.21,0Z" style="fill:#231f20;fill-rule:nonzero;"/></g><g transform="matrix(83.3333,0,0,83.3333,1656.52,1057.52)"><path d="M0.065,0l0.125,0l0,-0.295c0,-0.065 0.045,-0.11 0.11,-0.11c0.065,0 0.11,0.045 0.11,0.11l0,0.295l0.125,0l0,-0.305c0,-0.13 -0.085,-0.215 -0.2,-0.215c-0.095,0 -0.14,0.06 -0.14,0.06l-0.005,0l-0.01,-0.05l-0.115,0l0,0.51Z" style="fill:#231f20;fill-rule:nonzero;"/></g><g transform="matrix(83.3333,0,0,83.3333,1704.44,1057.52)"><path d="M0.06,0.2l0.105,0c0.095,0 0.125,-0.03 0.15,-0.1l0.215,-0.61l-0.13,0l-0.12,0.345l-0.02,0l-0.13,-0.345l-0.13,0l0.207,0.545l-0.009,0.025c-0.005,0.015 -0.013,0.025 -0.038,0.025l-0.1,0l0,0.115Z" style="fill:#231f20;fill-rule:nonzero;"/></g><g transform="matrix(83.3333,0,0,83.3333,1748.61,1057.52)"><path d="M0.135,0l0.165,0l0.085,-0.33l0.02,0l0.085,0.33l0.165,0l0.13,-0.51l-0.13,0l-0.085,0.335l-0.02,0l-0.085,-0.335l-0.14,0l-0.085,0.335l-0.02,0l-0.085,-0.335l-0.13,0l0.13,0.51Z" style="fill:#231f20;fill-rule:nonzero;"/></g><g transform="matrix(83.3333,0,0,83.3333,1814.44,1057.52)"><path d="M0.07,0l0.125,0l0,-0.295c0,-0.065 0.045,-0.11 0.11,-0.11c0.065,0 0.11,0.045 0.11,0.11l0,0.295l0.125,0l0,-0.305c0,-0.13 -0.085,-0.215 -0.2,-0.215c-0.095,0 -0.14,0.06 -0.14,0.06l-0.005,0l0,-0.24l-0.125,0l0,0.7Z" style="fill:#231f20;fill-rule:nonzero;"/></g><g transform="matrix(83.3333,0,0,83.3333,1864.44,1057.52)"><path d="M0.165,-0.3c0.015,-0.065 0.06,-0.115 0.135,-0.115c0.07,0 0.115,0.05 0.125,0.115l-0.26,0Zm0.24,0.15c-0.01,0.02 -0.045,0.055 -0.105,0.055c-0.07,0 -0.125,-0.05 -0.135,-0.12l0.38,0c0,0 0.005,-0.02 0.005,-0.05c0,-0.145 -0.11,-0.255 -0.25,-0.255c-0.15,0 -0.26,0.11 -0.26,0.265c0,0.155 0.11,0.265 0.26,0.265c0.16,0 0.225,-0.12 0.235,-0.16l-0.13,0Z" style="fill:#231f20;fill-rule:nonzero;"/></g><g transform="matrix(83.3333,0,0,83.3333,1913.61,1057.52)"><path d="M0.065,0l0.125,0l0,-0.295c0,-0.065 0.03,-0.095 0.095,-0.095l0.09,0l0,-0.12l-0.1,0c-0.06,0 -0.09,0.045 -0.09,0.045l-0.005,0l-0.01,-0.045l-0.105,0l0,0.51Z" style="fill:#231f20;fill-rule:nonzero;"/></g><g transform="matrix(83.3333,0,0,83.3333,1944.02,1057.52)"><path d="M0.165,-0.3c0.015,-0.065 0.06,-0.115 0.135,-0.115c0.07,0 0.115,0.05 0.125,0.115l-0.26,0Zm0.24,0.15c-0.01,0.02 -0.045,0.055 -0.105,0.055c-0.07,0 -0.125,-0.05 -0.135,-0.12l0.38,0c0,0 0.005,-0.02 0.005,-0.05c0,-0.145 -0.11,-0.255 -0.25,-0.255c-0.15,0 -0.26,0.11 -0.26,0.265c0,0.155 0.11,0.265 0.26,0.265c0.16,0 0.225,-0.12 0.235,-0.16l-0.13,0Z" style="fill:#231f20;fill-rule:nonzero;"/></g></g></g><path d="M385.061,493.559c-8.692,5.019 -15.75,16.151 -15.75,24.843l0,126c0,8.693 7.058,11.676 15.75,6.657l166.743,-96.269c8.693,-5.019 15.75,-16.151 15.75,-24.843l0,-126c0,-8.693 -7.057,-11.676 -15.75,-6.657l-166.743,96.269Z" style="fill:#f78996;"/><clipPath id="_clip3"><path d="M385.061,493.559c-8.692,5.019 -15.75,16.151 -15.75,24.843l0,126c0,8.693 7.058,11.676 15.75,6.657l166.743,-96.269c8.693,-5.019 15.75,-16.151 15.75,-24.843l0,-126c0,-8.693 -7.057,-11.676 -15.75,-6.657l-166.743,96.269Z"/></clipPath><g clip-path="url(#_clip3)"><g transform="matrix(0.207846,-0.12,6.37419e-17,0.277128,49.2069,472.452)"><g transform="matrix(83.3333,0,0,83.3333,1599.02,890.849)"><path d="M0.075,0l0.255,0c0.19,0 0.34,-0.15 0.34,-0.35c0,-0.2 -0.15,-0.35 -0.34,-0.35l-0.255,0l0,0.7Zm0.13,-0.125l0,-0.45l0.125,0c0.12,0 0.21,0.09 0.21,0.225c0,0.135 -0.09,0.225 -0.21,0.225l-0.125,0Z" style="fill:#fff;fill-rule:nonzero;"/></g><g transform="matrix(83.3333,0,0,83.3333,1658.61,890.849)"><path d="M0.165,-0.3c0.015,-0.065 0.06,-0.115 0.135,-0.115c0.07,0 0.115,0.05 0.125,0.115l-0.26,0Zm0.24,0.15c-0.01,0.02 -0.045,0.055 -0.105,0.055c-0.07,0 -0.125,-0.05 -0.135,-0.12l0.38,0c0,0 0.005,-0.02 0.005,-0.05c0,-0.145 -0.11,-0.255 -0.25,-0.255c-0.15,0 -0.26,0.11 -0.26,0.265c0,0.155 0.11,0.265 0.26,0.265c0.16,0 0.225,-0.12 0.235,-0.16l-0.13,0Z" style="fill:#fff;fill-rule:nonzero;"/></g><g transform="matrix(83.3333,0,0,83.3333,1706.94,890.849)"><path d="M0.175,0l0.17,0l0.175,-0.51l-0.13,0l-0.12,0.355l-0.02,0l-0.12,-0.355l-0.13,0l0.175,0.51Z" style="fill:#fff;fill-rule:nonzero;"/></g><g transform="matrix(83.3333,0,0,83.3333,1749.44,890.849)"><path d="M0.165,-0.3c0.015,-0.065 0.06,-0.115 0.135,-0.115c0.07,0 0.115,0.05 0.125,0.115l-0.26,0Zm0.24,0.15c-0.01,0.02 -0.045,0.055 -0.105,0.055c-0.07,0 -0.125,-0.05 -0.135,-0.12l0.38,0c0,0 0.005,-0.02 0.005,-0.05c0,-0.145 -0.11,-0.255 -0.25,-0.255c-0.15,0 -0.26,0.11 -0.26,0.265c0,0.155 0.11,0.265 0.26,0.265c0.16,0 0.225,-0.12 0.235,-0.16l-0.13,0Z" style="fill:#fff;fill-rule:nonzero;"/></g><g transform="matrix(83.3333,0,0,83.3333,1798.61,890.849)"><rect x="0.07" y="-0.7" width="0.125" height="0.7" style="fill:#fff;fill-rule:nonzero;"/></g><g transform="matrix(83.3333,0,0,83.3333,1820.69,890.849)"><path d="M0.3,-0.105c-0.075,0 -0.135,-0.06 -0.135,-0.15c0,-0.09 0.06,-0.15 0.135,-0.15c0.075,0 0.135,0.06 0.135,0.15c0,0.09 -0.06,0.15 -0.135,0.15Zm0,-0.415c-0.15,0 -0.26,0.11 -0.26,0.265c0,0.155 0.11,0.265 0.26,0.265c0.15,0 0.26,-0.11 0.26,-0.265c0,-0.155 -0.11,-0.265 -0.26,-0.265Z" style="fill:#fff;fill-rule:nonzero;"/></g><g transform="matrix(83.3333,0,0,83.3333,1870.69,890.849)"><path d="M0.45,-0.255c0,0.095 -0.055,0.15 -0.13,0.15c-0.075,0 -0.13,-0.055 -0.13,-0.15c0,-0.095 0.055,-0.15 0.13,-0.15c0.075,0 0.13,0.055 0.13,0.15Zm-0.385,0.455l0.125,0l0,-0.25l0.005,0c0,0 0.04,0.06 0.145,0.06c0.13,0 0.235,-0.105 0.235,-0.265c0,-0.16 -0.105,-0.265 -0.235,-0.265c-0.1,0 -0.145,0.065 -0.145,0.065l-0.005,0l-0.01,-0.055l-0.115,0l0,0.71Z" style="fill:#fff;fill-rule:nonzero;"/></g><g transform="matrix(83.3333,0,0,83.3333,1599.02,974.182)"><path d="M0.075,0l0.13,0l0,-0.485l0.02,0l0.255,0.485l0.175,0l0,-0.7l-0.13,0l0,0.485l-0.02,0l-0.255,-0.485l-0.175,0l0,0.7Z" style="fill:#fff;fill-rule:nonzero;"/></g><g transform="matrix(83.3333,0,0,83.3333,1659.86,974.182)"><path d="M0.165,-0.3c0.015,-0.065 0.06,-0.115 0.135,-0.115c0.07,0 0.115,0.05 0.125,0.115l-0.26,0Zm0.24,0.15c-0.01,0.02 -0.045,0.055 -0.105,0.055c-0.07,0 -0.125,-0.05 -0.135,-0.12l0.38,0c0,0 0.005,-0.02 0.005,-0.05c0,-0.145 -0.11,-0.255 -0.25,-0.255c-0.15,0 -0.26,0.11 -0.26,0.265c0,0.155 0.11,0.265 0.26,0.265c0.16,0 0.225,-0.12 0.235,-0.16l-0.13,0Z" style="fill:#fff;fill-rule:nonzero;"/></g><g transform="matrix(83.3333,0,0,83.3333,1708.19,974.182)"><path d="M0.135,0l0.165,0l0.085,-0.33l0.02,0l0.085,0.33l0.165,0l0.13,-0.51l-0.13,0l-0.085,0.335l-0.02,0l-0.085,-0.335l-0.14,0l-0.085,0.335l-0.02,0l-0.085,-0.335l-0.13,0l0.13,0.51Z" style="fill:#fff;fill-rule:nonzero;"/></g><g transform="matrix(83.3333,0,0,83.3333,1599.02,1057.52)"><rect x="0.075" y="-0.7" width="0.13" height="0.7" style="fill:#fff;fill-rule:nonzero;"/></g><g transform="matrix(83.3333,0,0,83.3333,1622.36,1057.52)"><path d="M0.295,-0.105c-0.075,0 -0.13,-0.055 -0.13,-0.15c0,-0.095 0.055,-0.15 0.13,-0.15c0.075,0 0.13,0.055 0.13,0.15c0,0.095 -0.055,0.15 -0.13,0.15Zm0.145,0.105l0.11,0l0,-0.7l-0.125,0l0,0.245l-0.005,0c0,0 -0.045,-0.065 -0.145,-0.065c-0.13,0 -0.235,0.105 -0.235,0.265c0,0.16 0.105,0.265 0.235,0.265c0.105,0 0.15,-0.065 0.15,-0.065l0.005,0l0.01,0.055Z" style="fill:#fff;fill-rule:nonzero;"/></g><g transform="matrix(83.3333,0,0,83.3333,1674.02,1057.52)"><path d="M0.165,-0.3c0.015,-0.065 0.06,-0.115 0.135,-0.115c0.07,0 0.115,0.05 0.125,0.115l-0.26,0Zm0.24,0.15c-0.01,0.02 -0.045,0.055 -0.105,0.055c-0.07,0 -0.125,-0.05 -0.135,-0.12l0.38,0c0,0 0.005,-0.02 0.005,-0.05c0,-0.145 -0.11,-0.255 -0.25,-0.255c-0.15,0 -0.26,0.11 -0.26,0.265c0,0.155 0.11,0.265 0.26,0.265c0.16,0 0.225,-0.12 0.235,-0.16l-0.13,0Z" style="fill:#fff;fill-rule:nonzero;"/></g><g transform="matrix(83.3333,0,0,83.3333,1723.19,1057.52)"><path d="M0.385,0l0.105,0l0,-0.325c0,-0.11 -0.085,-0.195 -0.215,-0.195c-0.135,0 -0.205,0.08 -0.215,0.165l0.125,0c0.005,-0.03 0.035,-0.065 0.09,-0.065c0.055,0 0.09,0.04 0.09,0.095l0,0.01l-0.115,0c-0.14,0 -0.21,0.07 -0.21,0.17c0,0.085 0.07,0.155 0.185,0.155c0.1,0 0.145,-0.06 0.145,-0.06l0.005,0l0.01,0.05Zm-0.02,-0.205c0,0.07 -0.045,0.115 -0.12,0.115c-0.05,0 -0.08,-0.025 -0.08,-0.065c0,-0.04 0.03,-0.065 0.095,-0.065l0.105,0l0,0.015Z" style="fill:#fff;fill-rule:nonzero;"/></g><g transform="matrix(83.3333,0,0,83.3333,1769.02,1057.52)"><path d="M0.03,-0.155c0,0.035 0.03,0.165 0.22,0.165c0.15,0 0.22,-0.07 0.22,-0.155c0,-0.09 -0.055,-0.139 -0.16,-0.155l-0.085,-0.013c-0.045,-0.007 -0.07,-0.022 -0.07,-0.047c0,-0.03 0.03,-0.06 0.09,-0.06c0.06,0 0.095,0.035 0.095,0.065l0.12,0c0,-0.06 -0.065,-0.165 -0.215,-0.165c-0.14,0 -0.215,0.075 -0.215,0.16c0,0.085 0.06,0.128 0.165,0.145l0.08,0.013c0.055,0.009 0.07,0.027 0.07,0.057c0,0.031 -0.025,0.055 -0.095,0.055c-0.07,0 -0.1,-0.04 -0.1,-0.065l-0.12,0Z" style="fill:#fff;fill-rule:nonzero;"/></g></g></g></svg>