<?xml version="1.0" encoding="UTF-8" standalone="no"?><!DOCTYPE svg PUBLIC "-//W3C//DTD SVG 1.1//EN" "http://www.w3.org/Graphics/SVG/1.1/DTD/svg11.dtd"><svg width="100%" height="100%" viewBox="0 0 448 448" version="1.1" xmlns="http://www.w3.org/2000/svg" xmlns:xlink="http://www.w3.org/1999/xlink" xml:space="preserve" xmlns:serif="http://www.serif.com/" style="fill-rule:evenodd;clip-rule:evenodd;stroke-linejoin:round;stroke-miterlimit:2;"><g><rect x="0" y="0" width="447.52" height="447.52" style="fill:#141414;"/><g><path d="M100.881,179.466c-0.124,1.247 -0.248,2.245 -0.248,3.118c0,12.472 12.085,23.68 30.415,23.68c22.578,0 32.165,-12.206 32.165,-27.422c0,-9.977 -7.965,-16.961 -21.936,-19.456l-8.607,-1.496c-11.102,-1.746 -17.838,-6.61 -17.838,-15.216c0,-12.472 9.106,-20.579 23.701,-20.579c16.59,0 25.319,8.731 25.319,19.332c0,0.623 0,1.122 -0.127,1.871l5.599,0c0.124,-1.123 0.124,-1.871 0.124,-2.495c0,-13.095 -10.587,-24.303 -29.917,-24.303c-18.711,0 -30.294,11.208 -30.294,26.673c0,10.726 7.716,17.835 22.31,20.329l8.732,1.497c11.351,1.995 17.339,7.483 17.339,15.09c0,10.602 -6.611,20.579 -25.572,20.579c-16.84,0 -25.818,-9.354 -25.818,-19.331c0,-0.998 0,-1.248 0.126,-1.871l-5.473,0Z" style="fill:#ebebeb;fill-rule:nonzero;"/><path d="M189.781,205.017l54.242,0l0.872,-5.596l-48.63,0l6.359,-35.553l46.137,0l0.998,-5.596l-46.137,0l6.11,-34.93l48.63,0l0.998,-5.595l-54.242,0l-15.337,87.27Z" style="fill:#ebebeb;fill-rule:nonzero;"/><path d="M275.204,205.017l5.611,0l6.11,-34.915l12.719,0l30.674,34.915l7.233,0l-30.675,-34.915l10.724,0c16.833,0 29.287,-12.456 29.287,-30.294c0,-13.347 -9.336,-22.061 -23.053,-22.061l-33.293,0l-15.337,87.27Zm12.719,-40.51l7.232,-41.165l28.679,0c10.599,0 17.457,7.485 17.457,17.339c0,13.847 -9.352,23.826 -22.444,23.826l-30.924,0Z" style="fill:#ebebeb;fill-rule:nonzero;"/><path d="M170.196,329.773l4.988,0l7.606,-43.627l-34.914,0l-0.998,5.596l29.303,0l-0.997,5.486c-3.242,17.593 -19.951,28.196 -34.54,28.196c-18.205,0 -31.298,-12.974 -31.298,-32.684c0,-27.8 20.2,-45.888 40.026,-45.888c24.316,0 28.929,21.955 28.929,21.83l5.986,0c0,0 -4.614,-27.426 -34.541,-27.426c-23.068,0 -45.996,20.939 -45.996,52.107c0,22.456 15.072,37.657 36.021,37.657c13.592,0 25.437,-7.467 31.672,-15.576l0.624,0l-1.871,14.329Z" style="fill:#ebebeb;fill-rule:nonzero;"/><path d="M219.084,329.773l5.611,0l15.337,-87.27l-5.611,0l-15.337,87.27Z" style="fill:#ebebeb;fill-rule:nonzero;"/><path d="M260.233,329.773l7.357,0l34.54,-40.512l2.494,0l20.325,40.512l6.359,0l-22.694,-44.875l36.161,-42.395l-7.357,0l-32.295,38.032l-2.494,0l-18.829,-38.032l-6.359,0l21.197,42.395l-38.405,44.875Z" style="fill:#ebebeb;fill-rule:nonzero;"/></g></g></svg>