<?xml version="1.0" encoding="UTF-8" standalone="no"?><!DOCTYPE svg PUBLIC "-//W3C//DTD SVG 1.1//EN" "http://www.w3.org/Graphics/SVG/1.1/DTD/svg11.dtd"><svg width="100%" height="100%" viewBox="0 0 579 647" version="1.1" xmlns="http://www.w3.org/2000/svg" xmlns:xlink="http://www.w3.org/1999/xlink" xml:space="preserve" xmlns:serif="http://www.serif.com/" style="fill-rule:evenodd;clip-rule:evenodd;stroke-linecap:round;stroke-linejoin:round;stroke-miterlimit:1.5;"><path d="M562.584,357.997c12.122,-7.873 12.908,-18.877 1.755,-24.56l-312.422,-159.188c-11.154,-5.682 -30.05,-3.905 -42.172,3.967l-200.113,129.955c-12.122,7.872 -12.909,18.877 -1.756,24.56l312.423,159.187c11.153,5.683 30.05,3.906 42.172,-3.967l200.113,-129.954Z" style="fill:#161616;"/><clipPath id="_clip1"><path d="M562.584,357.997c12.122,-7.873 12.908,-18.877 1.755,-24.56l-312.422,-159.188c-11.154,-5.682 -30.05,-3.905 -42.172,3.967l-200.113,129.955c-12.122,7.872 -12.909,18.877 -1.756,24.56l312.423,159.187c11.153,5.683 30.05,3.906 42.172,-3.967l200.113,-129.954Z"/></clipPath><g clip-path="url(#_clip1)"><path d="M277.036,227.452c8.852,4.51 8.228,13.245 -1.393,19.492c-9.621,6.248 -24.618,7.659 -33.47,3.149c-8.851,-4.511 -8.227,-13.245 1.394,-19.492c9.62,-6.248 24.618,-7.659 33.469,-3.149Z" style="fill:#fff;"/><path d="M338.402,299.124c8.852,4.51 8.227,13.244 -1.393,19.491c-9.621,6.248 -24.618,7.659 -33.47,3.149c-8.851,-4.51 -8.227,-13.244 1.394,-19.492c9.62,-6.248 24.617,-7.659 33.469,-3.148Z" style="fill:#fff;"/><path d="M249.28,310.677l0.73,0.254l0.629,0.449l0.477,0.608l0.286,0.718l0.073,0.77l-0.148,0.759l-0.355,0.687l-0.534,0.558l-0.67,0.386l-0.752,0.181l-210.244,19.777l-0.773,-0.038l-0.73,-0.254l-0.629,-0.45l-0.477,-0.608l-0.286,-0.718l-0.073,-0.77l0.148,-0.758l0.355,-0.687l0.534,-0.559l0.67,-0.385l0.752,-0.182l210.245,-19.776l0.772,0.038Z" style="fill:#fab7ac;"/><path d="M274.466,323.51l0.73,0.254l0.629,0.449l0.477,0.609l0.287,0.718l0.072,0.769l-0.147,0.759l-0.355,0.687l-0.535,0.558l-0.67,0.386l-0.751,0.181l-210.245,19.777l-0.772,-0.038l-0.73,-0.254l-0.629,-0.449l-0.477,-0.609l-0.287,-0.718l-0.072,-0.769l0.147,-0.759l0.356,-0.687l0.534,-0.559l0.67,-0.385l0.751,-0.181l210.245,-19.777l0.772,0.038Z" style="fill:#fab7ac;"/><path d="M204.524,311.717c8.852,4.51 8.227,13.244 -1.393,19.492c-9.621,6.247 -24.618,7.658 -33.47,3.148c-8.852,-4.51 -8.227,-13.244 1.393,-19.492c9.621,-6.248 24.618,-7.658 33.47,-3.148Z" style="fill:#fff;"/><g><path d="M-11.856,307.453l210.245,-19.776" style="fill:none;"/><path d="M198.907,285.01l0.73,0.254l0.629,0.45l0.477,0.608l0.286,0.718l0.073,0.77l-0.148,0.759l-0.355,0.686l-0.534,0.559l-0.67,0.386l-0.752,0.181l-210.245,19.776l-0.772,-0.038l-0.73,-0.254l-0.629,-0.449l-0.477,-0.608l-0.286,-0.718l-0.073,-0.77l0.148,-0.759l0.355,-0.686l0.534,-0.559l0.67,-0.386l0.752,-0.181l210.244,-19.776l0.773,0.037Z" style="fill:#fab7ac;"/><path d="M0.737,313.87l210.245,-19.777" style="fill:none;"/><path d="M211.5,291.427l0.73,0.254l0.629,0.449l0.477,0.609l0.286,0.718l0.073,0.769l-0.148,0.759l-0.355,0.687l-0.534,0.559l-0.67,0.385l-0.752,0.181l-210.244,19.777l-0.772,-0.038l-0.731,-0.254l-0.629,-0.449l-0.477,-0.609l-0.286,-0.718l-0.072,-0.769l0.147,-0.759l0.355,-0.687l0.534,-0.559l0.67,-0.385l0.752,-0.181l210.245,-19.777l0.772,0.038Z" style="fill:#fab7ac;"/><path d="M13.331,320.286l210.244,-19.776" style="fill:none;"/><path d="M224.093,297.844l0.73,0.254l0.629,0.449l0.477,0.608l0.287,0.718l0.072,0.77l-0.147,0.759l-0.355,0.686l-0.535,0.559l-0.67,0.386l-0.751,0.181l-210.245,19.776l-0.772,-0.038l-0.73,-0.253l-0.629,-0.45l-0.477,-0.608l-0.287,-0.718l-0.072,-0.77l0.147,-0.759l0.355,-0.686l0.535,-0.559l0.67,-0.386l0.751,-0.181l210.245,-19.776l0.772,0.038Z" style="fill:#fab7ac;"/><path d="M25.924,326.703l210.245,-19.777" style="fill:none;"/><path d="M236.686,304.26l0.731,0.254l0.629,0.449l0.477,0.609l0.286,0.718l0.072,0.769l-0.147,0.759l-0.355,0.687l-0.534,0.559l-0.671,0.385l-0.751,0.181l-210.245,19.777l-0.772,-0.038l-0.73,-0.254l-0.629,-0.449l-0.477,-0.608l-0.286,-0.719l-0.073,-0.769l0.148,-0.759l0.355,-0.687l0.534,-0.558l0.67,-0.386l0.752,-0.181l210.244,-19.777l0.772,0.038Z" style="fill:#fab7ac;"/><path d="M51.11,339.536l210.245,-19.776" style="fill:none;"/><path d="M261.873,317.093l0.73,0.254l0.629,0.45l0.477,0.608l0.287,0.718l0.072,0.77l-0.147,0.759l-0.356,0.686l-0.534,0.559l-0.67,0.385l-0.751,0.182l-210.245,19.776l-0.772,-0.038l-0.731,-0.254l-0.629,-0.449l-0.477,-0.608l-0.286,-0.718l-0.072,-0.77l0.147,-0.759l0.355,-0.686l0.535,-0.559l0.67,-0.386l0.751,-0.181l210.245,-19.776l0.772,0.037Z" style="fill:#fab7ac;"/><path d="M76.297,352.369l210.245,-19.776" style="fill:none;"/><path d="M287.059,329.927l0.731,0.253l0.629,0.45l0.477,0.608l0.286,0.718l0.072,0.77l-0.147,0.759l-0.355,0.686l-0.534,0.559l-0.67,0.386l-0.752,0.181l-210.245,19.776l-0.772,-0.038l-0.73,-0.253l-0.629,-0.45l-0.477,-0.608l-0.286,-0.718l-0.073,-0.77l0.148,-0.759l0.355,-0.686l0.534,-0.559l0.67,-0.386l0.752,-0.181l210.244,-19.776l0.772,0.038Z" style="fill:#fab7ac;"/><path d="M88.89,358.786l210.245,-19.777" style="fill:none;"/><path d="M299.653,336.343l0.73,0.254l0.629,0.449l0.477,0.609l0.286,0.718l0.073,0.769l-0.148,0.759l-0.355,0.687l-0.534,0.559l-0.67,0.385l-0.752,0.181l-210.244,19.777l-0.773,-0.038l-0.73,-0.254l-0.629,-0.449l-0.477,-0.608l-0.286,-0.719l-0.072,-0.769l0.147,-0.759l0.355,-0.687l0.534,-0.558l0.67,-0.386l0.752,-0.181l210.245,-19.777l0.772,0.038Z" style="fill:#fab7ac;"/><path d="M114.077,371.619l210.245,-19.776" style="fill:none;"/><path d="M324.839,349.176l0.73,0.254l0.63,0.45l0.477,0.608l0.286,0.718l0.072,0.77l-0.147,0.759l-0.355,0.686l-0.535,0.559l-0.67,0.385l-0.751,0.182l-210.245,19.776l-0.772,-0.038l-0.73,-0.254l-0.629,-0.449l-0.477,-0.608l-0.287,-0.718l-0.072,-0.77l0.147,-0.759l0.356,-0.687l0.534,-0.558l0.67,-0.386l0.751,-0.181l210.245,-19.776l0.772,0.037Z" style="fill:#fab7ac;"/></g><path d="M287.501,313.592l-37.649,61.624l-64.153,-32.687l101.802,-28.937Z" style="fill:#fff;"/><path d="M312.246,342.76l0.73,0.254l0.629,0.449l0.477,0.608l0.287,0.718l0.072,0.77l-0.147,0.759l-0.356,0.687l-0.534,0.558l-0.67,0.386l-0.751,0.181l-210.245,19.777l-0.772,-0.038l-0.73,-0.254l-0.63,-0.45l-0.477,-0.608l-0.286,-0.718l-0.072,-0.77l0.147,-0.758l0.355,-0.687l0.535,-0.559l0.67,-0.385l0.751,-0.182l210.245,-19.776l0.772,0.038Z" style="fill:#fab7ac;"/><g transform="matrix(0.213842,0.108958,-0.232419,0.150935,276.853,-147.472)"><g transform="matrix(125,0,0,125,2099.48,1484.84)"><path d="M0.565,-0.25c-0.02,0.06 -0.075,0.135 -0.18,0.135c-0.12,0 -0.21,-0.09 -0.21,-0.235c0,-0.145 0.09,-0.235 0.21,-0.235c0.105,0 0.16,0.075 0.18,0.13l0.135,0c-0.02,-0.095 -0.11,-0.255 -0.315,-0.255c-0.19,0 -0.34,0.15 -0.34,0.36c0,0.21 0.15,0.36 0.34,0.36c0.22,0 0.3,-0.18 0.315,-0.26l-0.135,0Z" style="fill:#fff;fill-rule:nonzero;"/></g><g transform="matrix(125,0,0,125,2191.35,1484.84)"><path d="M0.065,0l0.125,0l0,-0.295c0,-0.065 0.03,-0.095 0.095,-0.095l0.09,0l0,-0.12l-0.1,0c-0.06,0 -0.09,0.045 -0.09,0.045l-0.005,0l-0.01,-0.045l-0.105,0l0,0.51Z" style="fill:#fff;fill-rule:nonzero;"/></g><g transform="matrix(125,0,0,125,2236.98,1484.84)"><path d="M0.385,0l0.105,0l0,-0.325c0,-0.11 -0.085,-0.195 -0.215,-0.195c-0.135,0 -0.205,0.08 -0.215,0.165l0.125,0c0.005,-0.03 0.035,-0.065 0.09,-0.065c0.055,0 0.09,0.04 0.09,0.095l0,0.01l-0.115,0c-0.14,0 -0.21,0.07 -0.21,0.17c0,0.085 0.07,0.155 0.185,0.155c0.1,0 0.145,-0.06 0.145,-0.06l0.005,0l0.01,0.05Zm-0.02,-0.205c0,0.07 -0.045,0.115 -0.12,0.115c-0.05,0 -0.08,-0.025 -0.08,-0.065c0,-0.04 0.03,-0.065 0.095,-0.065l0.105,0l0,0.015Z" style="fill:#fff;fill-rule:nonzero;"/></g><g transform="matrix(125,0,0,125,2305.73,1484.84)"><path d="M0.11,0l0.125,0l0,-0.39l0.11,0l0,-0.12l-0.11,0l0,-0.055c0,-0.02 0.015,-0.035 0.035,-0.035l0.075,0l0,-0.11l-0.11,0c-0.075,0 -0.125,0.05 -0.125,0.125l0,0.075l-0.085,0l0,0.12l0.085,0l0,0.39Z" style="fill:#fff;fill-rule:nonzero;"/></g><g transform="matrix(125,0,0,125,2351.98,1484.84)"><path d="M0.105,-0.12c0,0.075 0.045,0.12 0.13,0.12l0.11,0l0,-0.11l-0.08,0c-0.025,0 -0.035,-0.01 -0.035,-0.035l0,-0.245l0.115,0l0,-0.12l-0.115,0l0,-0.145l-0.125,0l0,0.145l-0.08,0l0,0.12l0.08,0l0,0.27Z" style="fill:#fff;fill-rule:nonzero;"/></g><g transform="matrix(125,0,0,125,2099.48,1609.84)"><path d="M0.035,-0.22c0,0.13 0.105,0.23 0.285,0.23c0.18,0 0.27,-0.09 0.27,-0.21c0,-0.115 -0.065,-0.175 -0.205,-0.2l-0.11,-0.02c-0.075,-0.014 -0.095,-0.04 -0.095,-0.08c0,-0.05 0.04,-0.09 0.13,-0.09c0.09,0 0.14,0.05 0.14,0.11l0.13,0c0,-0.13 -0.09,-0.23 -0.27,-0.23c-0.165,0 -0.26,0.095 -0.26,0.21c0,0.1 0.055,0.17 0.175,0.19l0.12,0.02c0.09,0.015 0.115,0.05 0.115,0.09c0,0.05 -0.04,0.09 -0.14,0.09c-0.095,0 -0.155,-0.05 -0.155,-0.11l-0.13,0Z" style="fill:#fff;fill-rule:nonzero;"/></g><g transform="matrix(125,0,0,125,2178.85,1609.84)"><path d="M0.3,-0.105c-0.075,0 -0.135,-0.06 -0.135,-0.15c0,-0.09 0.06,-0.15 0.135,-0.15c0.075,0 0.135,0.06 0.135,0.15c0,0.09 -0.06,0.15 -0.135,0.15Zm0,-0.415c-0.15,0 -0.26,0.11 -0.26,0.265c0,0.155 0.11,0.265 0.26,0.265c0.15,0 0.26,-0.11 0.26,-0.265c0,-0.155 -0.11,-0.265 -0.26,-0.265Z" style="fill:#fff;fill-rule:nonzero;"/></g><g transform="matrix(125,0,0,125,2253.85,1609.84)"><path d="M0.065,0l0.125,0l0,-0.305c0,-0.055 0.04,-0.1 0.095,-0.1c0.05,0 0.085,0.035 0.085,0.1l0,0.305l0.125,0l0,-0.305c0,-0.055 0.04,-0.1 0.095,-0.1c0.05,0 0.085,0.035 0.085,0.1l0,0.305l0.125,0l0,-0.315c0,-0.115 -0.085,-0.205 -0.19,-0.205c-0.105,0 -0.15,0.07 -0.15,0.07l-0.005,0c0,0 -0.04,-0.07 -0.14,-0.07c-0.08,0 -0.12,0.06 -0.12,0.06l-0.005,0l-0.01,-0.05l-0.115,0l0,0.51Z" style="fill:#fff;fill-rule:nonzero;"/></g><g transform="matrix(125,0,0,125,2361.35,1609.84)"><path d="M0.165,-0.3c0.015,-0.065 0.06,-0.115 0.135,-0.115c0.07,0 0.115,0.05 0.125,0.115l-0.26,0Zm0.24,0.15c-0.01,0.02 -0.045,0.055 -0.105,0.055c-0.07,0 -0.125,-0.05 -0.135,-0.12l0.38,0c0,0 0.005,-0.02 0.005,-0.05c0,-0.145 -0.11,-0.255 -0.25,-0.255c-0.15,0 -0.26,0.11 -0.26,0.265c0,0.155 0.11,0.265 0.26,0.265c0.16,0 0.225,-0.12 0.235,-0.16l-0.13,0Z" style="fill:#fff;fill-rule:nonzero;"/></g><g transform="matrix(125,0,0,125,2432.6,1609.84)"><path d="M0.105,-0.12c0,0.075 0.045,0.12 0.13,0.12l0.11,0l0,-0.11l-0.08,0c-0.025,0 -0.035,-0.01 -0.035,-0.035l0,-0.245l0.115,0l0,-0.12l-0.115,0l0,-0.145l-0.125,0l0,0.145l-0.08,0l0,0.12l0.08,0l0,0.27Z" style="fill:#fff;fill-rule:nonzero;"/></g><g transform="matrix(125,0,0,125,2481.35,1609.84)"><path d="M0.07,0l0.125,0l0,-0.295c0,-0.065 0.045,-0.11 0.11,-0.11c0.065,0 0.11,0.045 0.11,0.11l0,0.295l0.125,0l0,-0.305c0,-0.13 -0.085,-0.215 -0.2,-0.215c-0.095,0 -0.14,0.06 -0.14,0.06l-0.005,0l0,-0.24l-0.125,0l0,0.7Z" style="fill:#fff;fill-rule:nonzero;"/></g><g transform="matrix(125,0,0,125,2556.35,1609.84)"><path d="M0.065,0l0.125,0l0,-0.51l-0.125,0l0,0.51Zm-0.005,-0.59l0.135,0l0,-0.12l-0.135,0l0,0.12Z" style="fill:#fff;fill-rule:nonzero;"/></g><g transform="matrix(125,0,0,125,2588.23,1609.84)"><path d="M0.065,0l0.125,0l0,-0.295c0,-0.065 0.045,-0.11 0.11,-0.11c0.065,0 0.11,0.045 0.11,0.11l0,0.295l0.125,0l0,-0.305c0,-0.13 -0.085,-0.215 -0.2,-0.215c-0.095,0 -0.14,0.06 -0.14,0.06l-0.005,0l-0.01,-0.05l-0.115,0l0,0.51Z" style="fill:#fff;fill-rule:nonzero;"/></g><g transform="matrix(125,0,0,125,2662.6,1609.84)"><path d="M0.055,0.025c0,0.035 0.04,0.185 0.24,0.185c0.15,0 0.245,-0.09 0.245,-0.224l0,-0.496l-0.11,0l-0.01,0.05l-0.005,0c0,0 -0.045,-0.06 -0.145,-0.06c-0.13,0 -0.23,0.1 -0.23,0.245c0,0.145 0.1,0.245 0.23,0.245c0.095,0 0.14,-0.055 0.14,-0.055l0.005,0l0,0.07c0,0.07 -0.05,0.115 -0.12,0.115c-0.08,0 -0.105,-0.05 -0.11,-0.075l-0.13,0Zm0.235,-0.435c0.07,0 0.125,0.055 0.125,0.135c0,0.08 -0.055,0.135 -0.125,0.135c-0.07,0 -0.125,-0.055 -0.125,-0.135c0,-0.08 0.055,-0.135 0.125,-0.135Z" style="fill:#fff;fill-rule:nonzero;"/></g><g transform="matrix(125,0,0,125,2099.48,1734.84)"><path d="M0.075,0l0.13,0l0,-0.485l0.02,0l0.255,0.485l0.175,0l0,-0.7l-0.13,0l0,0.485l-0.02,0l-0.255,-0.485l-0.175,0l0,0.7Z" style="fill:#fff;fill-rule:nonzero;"/></g><g transform="matrix(125,0,0,125,2190.73,1734.84)"><path d="M0.165,-0.3c0.015,-0.065 0.06,-0.115 0.135,-0.115c0.07,0 0.115,0.05 0.125,0.115l-0.26,0Zm0.24,0.15c-0.01,0.02 -0.045,0.055 -0.105,0.055c-0.07,0 -0.125,-0.05 -0.135,-0.12l0.38,0c0,0 0.005,-0.02 0.005,-0.05c0,-0.145 -0.11,-0.255 -0.25,-0.255c-0.15,0 -0.26,0.11 -0.26,0.265c0,0.155 0.11,0.265 0.26,0.265c0.16,0 0.225,-0.12 0.235,-0.16l-0.13,0Z" style="fill:#fff;fill-rule:nonzero;"/></g><g transform="matrix(125,0,0,125,2263.23,1734.84)"><path d="M0.135,0l0.165,0l0.085,-0.33l0.02,0l0.085,0.33l0.165,0l0.13,-0.51l-0.13,0l-0.085,0.335l-0.02,0l-0.085,-0.335l-0.14,0l-0.085,0.335l-0.02,0l-0.085,-0.335l-0.13,0l0.13,0.51Z" style="fill:#fff;fill-rule:nonzero;"/></g></g></g><path d="M255.479,2.082c-9.143,-4.658 -16.187,-1.236 -15.722,7.638l6.741,128.624c0.465,8.874 8.264,19.86 17.407,24.518l175.366,89.354c9.142,4.658 16.187,1.236 15.722,-7.638l-6.741,-128.624c-0.465,-8.874 -8.265,-19.86 -17.407,-24.519l-175.366,-89.353Z" style="fill:#fab7ac;"/><clipPath id="_clip2"><path d="M255.479,2.082c-9.143,-4.658 -16.187,-1.236 -15.722,7.638l6.741,128.624c0.465,8.874 8.264,19.86 17.407,24.518l175.366,89.354c9.142,4.658 16.187,1.236 15.722,-7.638l-6.741,-128.624c-0.465,-8.874 -8.265,-19.86 -17.407,-24.519l-175.366,-89.353Z"/></clipPath><g clip-path="url(#_clip2)"><g><path d="M506.703,392.116l-106.222,-149.615" style="fill:none;stroke:#fff;stroke-width:4.02px;"/><path d="M506.06,379.852l-106.222,-149.615" style="fill:none;stroke:#fff;stroke-width:4.02px;"/><path d="M505.417,367.588l-106.222,-149.615" style="fill:none;stroke:#fff;stroke-width:4.02px;"/><path d="M504.774,355.324l-106.222,-149.615" style="fill:none;stroke:#fff;stroke-width:4.02px;"/><path d="M504.132,343.06l-106.222,-149.615" style="fill:none;stroke:#fff;stroke-width:4.02px;"/><path d="M503.489,330.796l-106.222,-149.614" style="fill:none;stroke:#fff;stroke-width:4.02px;"/><path d="M502.846,318.532l-106.222,-149.614" style="fill:none;stroke:#fff;stroke-width:4.02px;"/><path d="M502.204,306.268l-106.223,-149.614" style="fill:none;stroke:#fff;stroke-width:4.02px;"/><path d="M501.561,294.004l-106.222,-149.614" style="fill:none;stroke:#fff;stroke-width:4.02px;"/><path d="M500.918,281.74l-106.222,-149.614" style="fill:none;stroke:#fff;stroke-width:4.02px;"/><path d="M500.275,269.476l-106.222,-149.614" style="fill:none;stroke:#fff;stroke-width:4.02px;"/></g><g transform="matrix(0.218595,0.11138,0.0148262,0.2829,-109.248,-397.386)"><g transform="matrix(83.3333,0,0,83.3333,1599.02,890.849)"><path d="M0.075,0l0.13,0l0,-0.29l0.31,0l0,-0.12l-0.31,0l0,-0.17l0.335,0l0,-0.12l-0.465,0l0,0.7Z" style="fill:#231f20;fill-rule:nonzero;"/></g><g transform="matrix(83.3333,0,0,83.3333,1647.77,890.849)"><path d="M0.065,0l0.125,0l0,-0.51l-0.125,0l0,0.51Zm-0.005,-0.59l0.135,0l0,-0.12l-0.135,0l0,0.12Z" style="fill:#231f20;fill-rule:nonzero;"/></g><g transform="matrix(83.3333,0,0,83.3333,1669.02,890.849)"><path d="M0.065,0l0.125,0l0,-0.295c0,-0.065 0.045,-0.11 0.11,-0.11c0.065,0 0.11,0.045 0.11,0.11l0,0.295l0.125,0l0,-0.305c0,-0.13 -0.085,-0.215 -0.2,-0.215c-0.095,0 -0.14,0.06 -0.14,0.06l-0.005,0l-0.01,-0.05l-0.115,0l0,0.51Z" style="fill:#231f20;fill-rule:nonzero;"/></g><g transform="matrix(83.3333,0,0,83.3333,1718.61,890.849)"><path d="M0.295,-0.105c-0.075,0 -0.13,-0.055 -0.13,-0.15c0,-0.095 0.055,-0.15 0.13,-0.15c0.075,0 0.13,0.055 0.13,0.15c0,0.095 -0.055,0.15 -0.13,0.15Zm0.145,0.105l0.11,0l0,-0.7l-0.125,0l0,0.245l-0.005,0c0,0 -0.045,-0.065 -0.145,-0.065c-0.13,0 -0.235,0.105 -0.235,0.265c0,0.16 0.105,0.265 0.235,0.265c0.105,0 0.15,-0.065 0.15,-0.065l0.005,0l0.01,0.055Z" style="fill:#231f20;fill-rule:nonzero;"/></g><g transform="matrix(83.3333,0,0,83.3333,1599.02,974.182)"><rect x="0.075" y="-0.7" width="0.13" height="0.7" style="fill:#231f20;fill-rule:nonzero;"/></g><g transform="matrix(83.3333,0,0,83.3333,1622.36,974.182)"><path d="M0.065,0l0.125,0l0,-0.295c0,-0.065 0.045,-0.11 0.11,-0.11c0.065,0 0.11,0.045 0.11,0.11l0,0.295l0.125,0l0,-0.305c0,-0.13 -0.085,-0.215 -0.2,-0.215c-0.095,0 -0.14,0.06 -0.14,0.06l-0.005,0l-0.01,-0.05l-0.115,0l0,0.51Z" style="fill:#231f20;fill-rule:nonzero;"/></g><g transform="matrix(83.3333,0,0,83.3333,1671.94,974.182)"><path d="M0.03,-0.155c0,0.035 0.03,0.165 0.22,0.165c0.15,0 0.22,-0.07 0.22,-0.155c0,-0.09 -0.055,-0.139 -0.16,-0.155l-0.085,-0.013c-0.045,-0.007 -0.07,-0.022 -0.07,-0.047c0,-0.03 0.03,-0.06 0.09,-0.06c0.06,0 0.095,0.035 0.095,0.065l0.12,0c0,-0.06 -0.065,-0.165 -0.215,-0.165c-0.14,0 -0.215,0.075 -0.215,0.16c0,0.085 0.06,0.128 0.165,0.145l0.08,0.013c0.055,0.009 0.07,0.027 0.07,0.057c0,0.031 -0.025,0.055 -0.095,0.055c-0.07,0 -0.1,-0.04 -0.1,-0.065l-0.12,0Z" style="fill:#231f20;fill-rule:nonzero;"/></g><g transform="matrix(83.3333,0,0,83.3333,1714.02,974.182)"><path d="M0.45,-0.255c0,0.095 -0.055,0.15 -0.13,0.15c-0.075,0 -0.13,-0.055 -0.13,-0.15c0,-0.095 0.055,-0.15 0.13,-0.15c0.075,0 0.13,0.055 0.13,0.15Zm-0.385,0.455l0.125,0l0,-0.25l0.005,0c0,0 0.04,0.06 0.145,0.06c0.13,0 0.235,-0.105 0.235,-0.265c0,-0.16 -0.105,-0.265 -0.235,-0.265c-0.1,0 -0.145,0.065 -0.145,0.065l-0.005,0l-0.01,-0.055l-0.115,0l0,0.71Z" style="fill:#231f20;fill-rule:nonzero;"/></g><g transform="matrix(83.3333,0,0,83.3333,1765.27,974.182)"><path d="M0.065,0l0.125,0l0,-0.51l-0.125,0l0,0.51Zm-0.005,-0.59l0.135,0l0,-0.12l-0.135,0l0,0.12Z" style="fill:#231f20;fill-rule:nonzero;"/></g><g transform="matrix(83.3333,0,0,83.3333,1786.52,974.182)"><path d="M0.065,0l0.125,0l0,-0.295c0,-0.065 0.03,-0.095 0.095,-0.095l0.09,0l0,-0.12l-0.1,0c-0.06,0 -0.09,0.045 -0.09,0.045l-0.005,0l-0.01,-0.045l-0.105,0l0,0.51Z" style="fill:#231f20;fill-rule:nonzero;"/></g><g transform="matrix(83.3333,0,0,83.3333,1816.94,974.182)"><path d="M0.385,0l0.105,0l0,-0.325c0,-0.11 -0.085,-0.195 -0.215,-0.195c-0.135,0 -0.205,0.08 -0.215,0.165l0.125,0c0.005,-0.03 0.035,-0.065 0.09,-0.065c0.055,0 0.09,0.04 0.09,0.095l0,0.01l-0.115,0c-0.14,0 -0.21,0.07 -0.21,0.17c0,0.085 0.07,0.155 0.185,0.155c0.1,0 0.145,-0.06 0.145,-0.06l0.005,0l0.01,0.05Zm-0.02,-0.205c0,0.07 -0.045,0.115 -0.12,0.115c-0.05,0 -0.08,-0.025 -0.08,-0.065c0,-0.04 0.03,-0.065 0.095,-0.065l0.105,0l0,0.015Z" style="fill:#231f20;fill-rule:nonzero;"/></g><g transform="matrix(83.3333,0,0,83.3333,1861.11,974.182)"><path d="M0.105,-0.12c0,0.075 0.045,0.12 0.13,0.12l0.11,0l0,-0.11l-0.08,0c-0.025,0 -0.035,-0.01 -0.035,-0.035l0,-0.245l0.115,0l0,-0.12l-0.115,0l0,-0.145l-0.125,0l0,0.145l-0.08,0l0,0.12l0.08,0l0,0.27Z" style="fill:#231f20;fill-rule:nonzero;"/></g><g transform="matrix(83.3333,0,0,83.3333,1893.61,974.182)"><path d="M0.065,0l0.125,0l0,-0.51l-0.125,0l0,0.51Zm-0.005,-0.59l0.135,0l0,-0.12l-0.135,0l0,0.12Z" style="fill:#231f20;fill-rule:nonzero;"/></g><g transform="matrix(83.3333,0,0,83.3333,1914.86,974.182)"><path d="M0.3,-0.105c-0.075,0 -0.135,-0.06 -0.135,-0.15c0,-0.09 0.06,-0.15 0.135,-0.15c0.075,0 0.135,0.06 0.135,0.15c0,0.09 -0.06,0.15 -0.135,0.15Zm0,-0.415c-0.15,0 -0.26,0.11 -0.26,0.265c0,0.155 0.11,0.265 0.26,0.265c0.15,0 0.26,-0.11 0.26,-0.265c0,-0.155 -0.11,-0.265 -0.26,-0.265Z" style="fill:#231f20;fill-rule:nonzero;"/></g><g transform="matrix(83.3333,0,0,83.3333,1964.86,974.182)"><path d="M0.065,0l0.125,0l0,-0.295c0,-0.065 0.045,-0.11 0.11,-0.11c0.065,0 0.11,0.045 0.11,0.11l0,0.295l0.125,0l0,-0.305c0,-0.13 -0.085,-0.215 -0.2,-0.215c-0.095,0 -0.14,0.06 -0.14,0.06l-0.005,0l-0.01,-0.05l-0.115,0l0,0.51Z" style="fill:#231f20;fill-rule:nonzero;"/></g><g transform="matrix(83.3333,0,0,83.3333,1599.02,1057.52)"><path d="M0,0l0.145,0l0.053,-0.15l0.294,0l0.053,0.15l0.145,0l-0.25,-0.7l-0.19,0l-0.25,0.7Zm0.24,-0.27l0.095,-0.28l0.02,0l0.095,0.28l-0.21,0Z" style="fill:#231f20;fill-rule:nonzero;"/></g><g transform="matrix(83.3333,0,0,83.3333,1656.52,1057.52)"><path d="M0.065,0l0.125,0l0,-0.295c0,-0.065 0.045,-0.11 0.11,-0.11c0.065,0 0.11,0.045 0.11,0.11l0,0.295l0.125,0l0,-0.305c0,-0.13 -0.085,-0.215 -0.2,-0.215c-0.095,0 -0.14,0.06 -0.14,0.06l-0.005,0l-0.01,-0.05l-0.115,0l0,0.51Z" style="fill:#231f20;fill-rule:nonzero;"/></g><g transform="matrix(83.3333,0,0,83.3333,1704.44,1057.52)"><path d="M0.06,0.2l0.105,0c0.095,0 0.125,-0.03 0.15,-0.1l0.215,-0.61l-0.13,0l-0.12,0.345l-0.02,0l-0.13,-0.345l-0.13,0l0.207,0.545l-0.009,0.025c-0.005,0.015 -0.013,0.025 -0.038,0.025l-0.1,0l0,0.115Z" style="fill:#231f20;fill-rule:nonzero;"/></g><g transform="matrix(83.3333,0,0,83.3333,1748.61,1057.52)"><path d="M0.135,0l0.165,0l0.085,-0.33l0.02,0l0.085,0.33l0.165,0l0.13,-0.51l-0.13,0l-0.085,0.335l-0.02,0l-0.085,-0.335l-0.14,0l-0.085,0.335l-0.02,0l-0.085,-0.335l-0.13,0l0.13,0.51Z" style="fill:#231f20;fill-rule:nonzero;"/></g><g transform="matrix(83.3333,0,0,83.3333,1814.44,1057.52)"><path d="M0.07,0l0.125,0l0,-0.295c0,-0.065 0.045,-0.11 0.11,-0.11c0.065,0 0.11,0.045 0.11,0.11l0,0.295l0.125,0l0,-0.305c0,-0.13 -0.085,-0.215 -0.2,-0.215c-0.095,0 -0.14,0.06 -0.14,0.06l-0.005,0l0,-0.24l-0.125,0l0,0.7Z" style="fill:#231f20;fill-rule:nonzero;"/></g><g transform="matrix(83.3333,0,0,83.3333,1864.44,1057.52)"><path d="M0.165,-0.3c0.015,-0.065 0.06,-0.115 0.135,-0.115c0.07,0 0.115,0.05 0.125,0.115l-0.26,0Zm0.24,0.15c-0.01,0.02 -0.045,0.055 -0.105,0.055c-0.07,0 -0.125,-0.05 -0.135,-0.12l0.38,0c0,0 0.005,-0.02 0.005,-0.05c0,-0.145 -0.11,-0.255 -0.25,-0.255c-0.15,0 -0.26,0.11 -0.26,0.265c0,0.155 0.11,0.265 0.26,0.265c0.16,0 0.225,-0.12 0.235,-0.16l-0.13,0Z" style="fill:#231f20;fill-rule:nonzero;"/></g><g transform="matrix(83.3333,0,0,83.3333,1913.61,1057.52)"><path d="M0.065,0l0.125,0l0,-0.295c0,-0.065 0.03,-0.095 0.095,-0.095l0.09,0l0,-0.12l-0.1,0c-0.06,0 -0.09,0.045 -0.09,0.045l-0.005,0l-0.01,-0.045l-0.105,0l0,0.51Z" style="fill:#231f20;fill-rule:nonzero;"/></g><g transform="matrix(83.3333,0,0,83.3333,1944.02,1057.52)"><path d="M0.165,-0.3c0.015,-0.065 0.06,-0.115 0.135,-0.115c0.07,0 0.115,0.05 0.125,0.115l-0.26,0Zm0.24,0.15c-0.01,0.02 -0.045,0.055 -0.105,0.055c-0.07,0 -0.125,-0.05 -0.135,-0.12l0.38,0c0,0 0.005,-0.02 0.005,-0.05c0,-0.145 -0.11,-0.255 -0.25,-0.255c-0.15,0 -0.26,0.11 -0.26,0.265c0,0.155 0.11,0.265 0.26,0.265c0.16,0 0.225,-0.12 0.235,-0.16l-0.13,0Z" style="fill:#231f20;fill-rule:nonzero;"/></g></g></g><path d="M394.2,486.554c-8.418,5.467 -14.883,16.953 -14.428,25.633l6.594,125.828c0.455,8.68 7.659,11.29 16.077,5.823l161.476,-104.864c8.418,-5.467 14.883,-16.953 14.428,-25.633l-6.594,-125.828c-0.455,-8.68 -7.659,-11.29 -16.077,-5.823l-161.476,104.864Z" style="fill:#f78996;"/><clipPath id="_clip3"><path d="M394.2,486.554c-8.418,5.467 -14.883,16.953 -14.428,25.633l6.594,125.828c0.455,8.68 7.659,11.29 16.077,5.823l161.476,-104.864c8.418,-5.467 14.883,-16.953 14.428,-25.633l-6.594,-125.828c-0.455,-8.68 -7.659,-11.29 -16.077,-5.823l-161.476,104.864Z"/></clipPath><g clip-path="url(#_clip3)"><g transform="matrix(0.201281,-0.130713,0.0145038,0.276748,57.7013,483.053)"><g transform="matrix(83.3333,0,0,83.3333,1599.02,890.849)"><path d="M0.075,0l0.255,0c0.19,0 0.34,-0.15 0.34,-0.35c0,-0.2 -0.15,-0.35 -0.34,-0.35l-0.255,0l0,0.7Zm0.13,-0.125l0,-0.45l0.125,0c0.12,0 0.21,0.09 0.21,0.225c0,0.135 -0.09,0.225 -0.21,0.225l-0.125,0Z" style="fill:#fff;fill-rule:nonzero;"/></g><g transform="matrix(83.3333,0,0,83.3333,1658.61,890.849)"><path d="M0.165,-0.3c0.015,-0.065 0.06,-0.115 0.135,-0.115c0.07,0 0.115,0.05 0.125,0.115l-0.26,0Zm0.24,0.15c-0.01,0.02 -0.045,0.055 -0.105,0.055c-0.07,0 -0.125,-0.05 -0.135,-0.12l0.38,0c0,0 0.005,-0.02 0.005,-0.05c0,-0.145 -0.11,-0.255 -0.25,-0.255c-0.15,0 -0.26,0.11 -0.26,0.265c0,0.155 0.11,0.265 0.26,0.265c0.16,0 0.225,-0.12 0.235,-0.16l-0.13,0Z" style="fill:#fff;fill-rule:nonzero;"/></g><g transform="matrix(83.3333,0,0,83.3333,1706.94,890.849)"><path d="M0.175,0l0.17,0l0.175,-0.51l-0.13,0l-0.12,0.355l-0.02,0l-0.12,-0.355l-0.13,0l0.175,0.51Z" style="fill:#fff;fill-rule:nonzero;"/></g><g transform="matrix(83.3333,0,0,83.3333,1749.44,890.849)"><path d="M0.165,-0.3c0.015,-0.065 0.06,-0.115 0.135,-0.115c0.07,0 0.115,0.05 0.125,0.115l-0.26,0Zm0.24,0.15c-0.01,0.02 -0.045,0.055 -0.105,0.055c-0.07,0 -0.125,-0.05 -0.135,-0.12l0.38,0c0,0 0.005,-0.02 0.005,-0.05c0,-0.145 -0.11,-0.255 -0.25,-0.255c-0.15,0 -0.26,0.11 -0.26,0.265c0,0.155 0.11,0.265 0.26,0.265c0.16,0 0.225,-0.12 0.235,-0.16l-0.13,0Z" style="fill:#fff;fill-rule:nonzero;"/></g><g transform="matrix(83.3333,0,0,83.3333,1798.61,890.849)"><rect x="0.07" y="-0.7" width="0.125" height="0.7" style="fill:#fff;fill-rule:nonzero;"/></g><g transform="matrix(83.3333,0,0,83.3333,1820.69,890.849)"><path d="M0.3,-0.105c-0.075,0 -0.135,-0.06 -0.135,-0.15c0,-0.09 0.06,-0.15 0.135,-0.15c0.075,0 0.135,0.06 0.135,0.15c0,0.09 -0.06,0.15 -0.135,0.15Zm0,-0.415c-0.15,0 -0.26,0.11 -0.26,0.265c0,0.155 0.11,0.265 0.26,0.265c0.15,0 0.26,-0.11 0.26,-0.265c0,-0.155 -0.11,-0.265 -0.26,-0.265Z" style="fill:#fff;fill-rule:nonzero;"/></g><g transform="matrix(83.3333,0,0,83.3333,1870.69,890.849)"><path d="M0.45,-0.255c0,0.095 -0.055,0.15 -0.13,0.15c-0.075,0 -0.13,-0.055 -0.13,-0.15c0,-0.095 0.055,-0.15 0.13,-0.15c0.075,0 0.13,0.055 0.13,0.15Zm-0.385,0.455l0.125,0l0,-0.25l0.005,0c0,0 0.04,0.06 0.145,0.06c0.13,0 0.235,-0.105 0.235,-0.265c0,-0.16 -0.105,-0.265 -0.235,-0.265c-0.1,0 -0.145,0.065 -0.145,0.065l-0.005,0l-0.01,-0.055l-0.115,0l0,0.71Z" style="fill:#fff;fill-rule:nonzero;"/></g><g transform="matrix(83.3333,0,0,83.3333,1599.02,974.182)"><path d="M0.075,0l0.13,0l0,-0.485l0.02,0l0.255,0.485l0.175,0l0,-0.7l-0.13,0l0,0.485l-0.02,0l-0.255,-0.485l-0.175,0l0,0.7Z" style="fill:#fff;fill-rule:nonzero;"/></g><g transform="matrix(83.3333,0,0,83.3333,1659.86,974.182)"><path d="M0.165,-0.3c0.015,-0.065 0.06,-0.115 0.135,-0.115c0.07,0 0.115,0.05 0.125,0.115l-0.26,0Zm0.24,0.15c-0.01,0.02 -0.045,0.055 -0.105,0.055c-0.07,0 -0.125,-0.05 -0.135,-0.12l0.38,0c0,0 0.005,-0.02 0.005,-0.05c0,-0.145 -0.11,-0.255 -0.25,-0.255c-0.15,0 -0.26,0.11 -0.26,0.265c0,0.155 0.11,0.265 0.26,0.265c0.16,0 0.225,-0.12 0.235,-0.16l-0.13,0Z" style="fill:#fff;fill-rule:nonzero;"/></g><g transform="matrix(83.3333,0,0,83.3333,1708.19,974.182)"><path d="M0.135,0l0.165,0l0.085,-0.33l0.02,0l0.085,0.33l0.165,0l0.13,-0.51l-0.13,0l-0.085,0.335l-0.02,0l-0.085,-0.335l-0.14,0l-0.085,0.335l-0.02,0l-0.085,-0.335l-0.13,0l0.13,0.51Z" style="fill:#fff;fill-rule:nonzero;"/></g><g transform="matrix(83.3333,0,0,83.3333,1599.02,1057.52)"><rect x="0.075" y="-0.7" width="0.13" height="0.7" style="fill:#fff;fill-rule:nonzero;"/></g><g transform="matrix(83.3333,0,0,83.3333,1622.36,1057.52)"><path d="M0.295,-0.105c-0.075,0 -0.13,-0.055 -0.13,-0.15c0,-0.095 0.055,-0.15 0.13,-0.15c0.075,0 0.13,0.055 0.13,0.15c0,0.095 -0.055,0.15 -0.13,0.15Zm0.145,0.105l0.11,0l0,-0.7l-0.125,0l0,0.245l-0.005,0c0,0 -0.045,-0.065 -0.145,-0.065c-0.13,0 -0.235,0.105 -0.235,0.265c0,0.16 0.105,0.265 0.235,0.265c0.105,0 0.15,-0.065 0.15,-0.065l0.005,0l0.01,0.055Z" style="fill:#fff;fill-rule:nonzero;"/></g><g transform="matrix(83.3333,0,0,83.3333,1674.02,1057.52)"><path d="M0.165,-0.3c0.015,-0.065 0.06,-0.115 0.135,-0.115c0.07,0 0.115,0.05 0.125,0.115l-0.26,0Zm0.24,0.15c-0.01,0.02 -0.045,0.055 -0.105,0.055c-0.07,0 -0.125,-0.05 -0.135,-0.12l0.38,0c0,0 0.005,-0.02 0.005,-0.05c0,-0.145 -0.11,-0.255 -0.25,-0.255c-0.15,0 -0.26,0.11 -0.26,0.265c0,0.155 0.11,0.265 0.26,0.265c0.16,0 0.225,-0.12 0.235,-0.16l-0.13,0Z" style="fill:#fff;fill-rule:nonzero;"/></g><g transform="matrix(83.3333,0,0,83.3333,1723.19,1057.52)"><path d="M0.385,0l0.105,0l0,-0.325c0,-0.11 -0.085,-0.195 -0.215,-0.195c-0.135,0 -0.205,0.08 -0.215,0.165l0.125,0c0.005,-0.03 0.035,-0.065 0.09,-0.065c0.055,0 0.09,0.04 0.09,0.095l0,0.01l-0.115,0c-0.14,0 -0.21,0.07 -0.21,0.17c0,0.085 0.07,0.155 0.185,0.155c0.1,0 0.145,-0.06 0.145,-0.06l0.005,0l0.01,0.05Zm-0.02,-0.205c0,0.07 -0.045,0.115 -0.12,0.115c-0.05,0 -0.08,-0.025 -0.08,-0.065c0,-0.04 0.03,-0.065 0.095,-0.065l0.105,0l0,0.015Z" style="fill:#fff;fill-rule:nonzero;"/></g><g transform="matrix(83.3333,0,0,83.3333,1769.02,1057.52)"><path d="M0.03,-0.155c0,0.035 0.03,0.165 0.22,0.165c0.15,0 0.22,-0.07 0.22,-0.155c0,-0.09 -0.055,-0.139 -0.16,-0.155l-0.085,-0.013c-0.045,-0.007 -0.07,-0.022 -0.07,-0.047c0,-0.03 0.03,-0.06 0.09,-0.06c0.06,0 0.095,0.035 0.095,0.065l0.12,0c0,-0.06 -0.065,-0.165 -0.215,-0.165c-0.14,0 -0.215,0.075 -0.215,0.16c0,0.085 0.06,0.128 0.165,0.145l0.08,0.013c0.055,0.009 0.07,0.027 0.07,0.057c0,0.031 -0.025,0.055 -0.095,0.055c-0.07,0 -0.1,-0.04 -0.1,-0.065l-0.12,0Z" style="fill:#fff;fill-rule:nonzero;"/></g></g></g></svg>