<?xml version="1.0" encoding="UTF-8" standalone="no"?>
<!-- Created with Inkscape (http://www.inkscape.org/) -->

<svg
   xmlns:dc="http://purl.org/dc/elements/1.1/"
   xmlns:cc="http://creativecommons.org/ns#"
   xmlns:rdf="http://www.w3.org/1999/02/22-rdf-syntax-ns#"
   xmlns:svg="http://www.w3.org/2000/svg"
   xmlns="http://www.w3.org/2000/svg"
   xmlns:sodipodi="http://sodipodi.sourceforge.net/DTD/sodipodi-0.dtd"
   xmlns:inkscape="http://www.inkscape.org/namespaces/inkscape"
   width="42.3158mm"
   height="7.6306405mm"
   viewBox="0 0 42.3158 7.6306405"
   version="1.1"
   id="svg1218"
   inkscape:version="0.92.2 (5c3e80d, 2017-08-06)"
   sodipodi:docname="sergix.svg">
  <defs
     id="defs1212" />
  <sodipodi:namedview
     id="base"
     pagecolor="#ffffff"
     bordercolor="#666666"
     borderopacity="1.0"
     inkscape:pageopacity="0.0"
     inkscape:pageshadow="2"
     inkscape:zoom="5.6"
     inkscape:cx="86.801803"
     inkscape:cy="33.279123"
     inkscape:document-units="mm"
     inkscape:current-layer="layer1"
     showgrid="false"
     fit-margin-top="0"
     fit-margin-left="0"
     fit-margin-right="0"
     fit-margin-bottom="0"
     showguides="false"
     inkscape:window-width="1366"
     inkscape:window-height="745"
     inkscape:window-x="-4"
     inkscape:window-y="-4"
     inkscape:window-maximized="1" />
  <metadata
     id="metadata1215">
    <rdf:RDF>
      <cc:Work
         rdf:about="">
        <dc:format>image/svg+xml</dc:format>
        <dc:type
           rdf:resource="http://purl.org/dc/dcmitype/StillImage" />
        <dc:title></dc:title>
      </cc:Work>
    </rdf:RDF>
  </metadata>
  <g
     inkscape:label="Layer 1"
     inkscape:groupmode="layer"
     id="layer1"
     transform="translate(-15.12781,-180.54777)">
    <g
       transform="translate(-159.5117,41.952395)"
       aria-label="SERGIX"
       style="font-style:normal;font-variant:normal;font-weight:900;font-stretch:normal;font-size:10.58333302px;line-height:1.25;font-family:Loew;-inkscape-font-specification:'Loew Heavy';letter-spacing:0px;word-spacing:0px;fill:#181818;fill-opacity:1;stroke:none;stroke-width:0.26458332"
       id="text1176">
      <path
         inkscape:connector-curvature="0"
         d="m 178.03676,138.59544 c -1.72509,0.0106 -3.07975,0.762 -3.07975,2.42358 0,1.44992 1.2065,1.8415 2.88925,2.24367 1.21708,0.30691 1.42875,0.34925 1.42875,0.77258 0,0.33867 -0.35984,0.48683 -0.77259,0.48683 -0.94191,0 -2.01083,-0.27516 -2.97391,-0.81491 l -0.889,1.48166 c 1.016,0.67734 2.26483,1.03717 3.64066,1.03717 1.905,0 3.10092,-0.86783 3.10092,-2.44475 0,-1.51342 -1.23825,-1.93675 -2.97392,-2.40242 -1.15358,-0.28575 -1.29116,-0.381 -1.29116,-0.61383 0,-0.33867 0.32808,-0.48683 0.70908,-0.48683 0.73025,0 1.72508,0.254 2.57175,0.68791 l 0.83608,-1.53458 c -0.86783,-0.52917 -2.01083,-0.83608 -3.19616,-0.83608 z"
         style="font-style:normal;font-variant:normal;font-weight:900;font-stretch:normal;font-family:Loew;-inkscape-font-specification:'Loew Heavy';stroke-width:0.26458332"
         id="path1178" />
      <path
         id="path1182"
         style="font-style:normal;font-variant:normal;font-weight:900;font-stretch:normal;font-family:Loew;-inkscape-font-specification:'Loew Heavy';stroke-width:0.26458332"
         d="m 188.58817,138.70126 v 1.78858 l 3.18079,0.0106 -2.76373,3.35491 h 3.94906 l 1.43934,2.25425 h 2.29658 l -1.66158,-2.51883 c 1.02658,-0.34925 1.4605,-1.10067 1.4605,-2.30717 0,-1.80975 -0.96309,-2.57175 -3.37609,-2.57175 z m 3.18079,1.79918 h 1.43933 c 0.87842,0 1.2065,0.27516 1.2065,0.91016 0,0.64559 -0.32808,0.91017 -1.2065,0.91017 h -1.43933 z m -3.18079,-0.0106 v -1.78858 h -6.06425 v 7.40833 h 6.12775 v -1.78858 h -4.13808 v -1.11125 h 3.78883 v -1.69333 h -3.78883 v -1.02659 z"
         inkscape:connector-curvature="0"
         sodipodi:nodetypes="ccccccccssccsssccccccccccccccc" />
      <path
         inkscape:connector-curvature="0"
         d="m 201.59079,138.59544 c -2.10608,-0.0106 -4.09575,1.37583 -4.09575,3.82058 0,2.0955 1.778,3.79942 3.96875,3.79942 1.24883,0 2.40242,-0.41275 3.29142,-1.12184 v -3.2385 h -3.16442 v 1.41817 h 1.27 v 0.70908 c -0.40217,0.23284 -0.86783,0.37042 -1.397,0.37042 -1.11125,0 -1.88383,-0.86783 -1.88383,-1.93675 0,-1.23825 0.94191,-1.97908 2.01083,-1.97908 0.5715,0 1.15358,0.20108 1.61925,0.60325 l 1.30175,-1.36525 c -0.8255,-0.70909 -1.87325,-1.06892 -2.921,-1.0795 z"
         style="font-style:normal;font-variant:normal;font-weight:900;font-stretch:normal;font-family:Loew;-inkscape-font-specification:'Loew Heavy';stroke-width:0.26458332"
         id="path1184" />
      <path
         inkscape:connector-curvature="0"
         d="m 208.20207,146.1096 v -7.39775 h -1.98967 v 7.39775 z"
         style="font-style:normal;font-variant:normal;font-weight:900;font-stretch:normal;font-family:Loew;-inkscape-font-specification:'Loew Heavy';stroke-width:0.26458332"
         id="path1186" />
      <path
         inkscape:connector-curvature="0"
         d="m 214.35181,142.33135 2.49766,-3.63008 h -2.39183 l -1.35467,2.02142 -1.34408,-2.02142 h -2.44475 l 2.49767,3.64067 -2.6035,3.76766 h 2.39183 l 1.4605,-2.16958 1.4605,2.16958 h 2.43417 z"
         style="font-style:normal;font-variant:normal;font-weight:900;font-stretch:normal;font-family:Loew;-inkscape-font-specification:'Loew Heavy';stroke-width:0.26458332"
         id="path1188" />
    </g>
  </g>
</svg>
