<?xml version="1.0" encoding="UTF-8" standalone="no"?>
<!-- Created with Inkscape (http://www.inkscape.org/) -->

<svg
   xmlns:dc="http://purl.org/dc/elements/1.1/"
   xmlns:cc="http://creativecommons.org/ns#"
   xmlns:rdf="http://www.w3.org/1999/02/22-rdf-syntax-ns#"
   xmlns:svg="http://www.w3.org/2000/svg"
   xmlns="http://www.w3.org/2000/svg"
   xmlns:sodipodi="http://sodipodi.sourceforge.net/DTD/sodipodi-0.dtd"
   xmlns:inkscape="http://www.inkscape.org/namespaces/inkscape"
   width="11in"
   height="8.5in"
   viewBox="0 0 279.4 215.9"
   version="1.1"
   id="svg8"
   inkscape:version="0.92.2 (5c3e80d, 2017-08-06)"
   sodipodi:docname="sergix-templates.svg">
  <defs
     id="defs2">
    <inkscape:perspective
       sodipodi:type="inkscape:persp3d"
       inkscape:vp_x="0 : 107.95 : 1"
       inkscape:vp_y="0 : 1000 : 0"
       inkscape:vp_z="279.4 : 107.95 : 1"
       inkscape:persp3d-origin="139.7 : 71.966667 : 1"
       id="perspective1090" />
  </defs>
  <sodipodi:namedview
     id="base"
     pagecolor="#ffffff"
     bordercolor="#666666"
     borderopacity="1.0"
     inkscape:pageopacity="0.0"
     inkscape:pageshadow="2"
     inkscape:zoom="2.8284271"
     inkscape:cx="699.38658"
     inkscape:cy="387.76481"
     inkscape:document-units="mm"
     inkscape:current-layer="layer1"
     showgrid="false"
     inkscape:window-width="1366"
     inkscape:window-height="745"
     inkscape:window-x="-4"
     inkscape:window-y="-4"
     inkscape:window-maximized="1"
     fit-margin-top="0"
     fit-margin-left="0"
     fit-margin-right="0"
     fit-margin-bottom="0"
     units="in"
     showguides="false"
     inkscape:guide-bbox="true"
     inkscape:measure-start="112.039,349.992"
     inkscape:measure-end="112.039,351.653">
    <inkscape:grid
       type="xygrid"
       id="grid885" />
    <sodipodi:guide
       position="29.107267,92.432601"
       orientation="1,0"
       id="guide939"
       inkscape:locked="false" />
    <sodipodi:guide
       position="30.348535,92.027458"
       orientation="1,0"
       id="guide943"
       inkscape:locked="false" />
    <sodipodi:guide
       position="29.548584,89.0757"
       orientation="0,1"
       id="guide945"
       inkscape:locked="false" />
    <sodipodi:guide
       position="29.643669,92.6021"
       orientation="0,1"
       id="guide947"
       inkscape:locked="false" />
    <sodipodi:guide
       position="33.562809,87.607056"
       orientation="0,1"
       id="guide949"
       inkscape:locked="false" />
    <sodipodi:guide
       position="36.437052,94.035604"
       orientation="0,1"
       id="guide951"
       inkscape:locked="false" />
    <sodipodi:guide
       position="34.117814,92.545256"
       orientation="1,0"
       id="guide989"
       inkscape:locked="false" />
    <sodipodi:guide
       position="29.107267,95.349219"
       orientation="0,1"
       id="guide991"
       inkscape:locked="false" />
    <sodipodi:guide
       position="29.107267,88.635417"
       orientation="0,1"
       id="guide993"
       inkscape:locked="false" />
    <sodipodi:guide
       position="17.197917,96.936718"
       orientation="1,0"
       id="guide995"
       inkscape:locked="false" />
    <sodipodi:guide
       position="24.558311,100.54262"
       orientation="0,1"
       id="guide997"
       inkscape:locked="false" />
    <sodipodi:guide
       position="31.485417,88.639551"
       orientation="1,0"
       id="guide999"
       inkscape:locked="false" />
    <sodipodi:guide
       position="31.590837,88.596143"
       orientation="1,0"
       id="guide1001"
       inkscape:locked="false" />
    <sodipodi:guide
       position="29.644784,93.041534"
       orientation="0,1"
       id="guide1005"
       inkscape:locked="false" />
    <sodipodi:guide
       position="35.793164,92.527686"
       orientation="1,0"
       id="guide1043"
       inkscape:locked="false" />
    <sodipodi:guide
       position="37.041667,92.252767"
       orientation="1,0"
       id="guide1045"
       inkscape:locked="false" />
    <sodipodi:guide
       position="65.567057,88.77701"
       orientation="1,0"
       id="guide1074"
       inkscape:locked="false" />
    <sodipodi:guide
       position="64.29375,92.86875"
       orientation="1,0"
       id="guide1084"
       inkscape:locked="false" />
    <sodipodi:guide
       position="64.373332,92.969002"
       orientation="1,0"
       id="guide1086"
       inkscape:locked="false" />
    <sodipodi:guide
       position="158.61461,97.480355"
       orientation="1,0"
       id="guide1145"
       inkscape:locked="false" />
    <sodipodi:guide
       position="162.05419,96.736214"
       orientation="1,0"
       id="guide1147"
       inkscape:locked="false" />
    <sodipodi:guide
       position="188.4154,94.461545"
       orientation="0,1"
       id="guide1192"
       inkscape:locked="false" />
    <sodipodi:guide
       position="184.11133,93.756271"
       orientation="1,0"
       id="guide1194"
       inkscape:locked="false" />
    <sodipodi:guide
       position="187.22888,96.961523"
       orientation="1,0"
       id="guide1196"
       inkscape:locked="false" />
    <sodipodi:guide
       position="184.11278,92.207305"
       orientation="0,1"
       id="guide1198"
       inkscape:locked="false" />
    <sodipodi:guide
       position="183.76353,95.107135"
       orientation="0,1"
       id="guide1200"
       inkscape:locked="false" />
    <sodipodi:guide
       position="200.2162,96.57395"
       orientation="1,0"
       id="guide1206"
       inkscape:locked="false" />
  </sodipodi:namedview>
  <metadata
     id="metadata5">
    <rdf:RDF>
      <cc:Work
         rdf:about="">
        <dc:format>image/svg+xml</dc:format>
        <dc:type
           rdf:resource="http://purl.org/dc/dcmitype/StillImage" />
        <dc:title></dc:title>
      </cc:Work>
    </rdf:RDF>
  </metadata>
  <g
     inkscape:label="Layer 1"
     inkscape:groupmode="layer"
     id="layer1"
     transform="translate(-4.5388857,-22.416895)">
    <flowRoot
       xml:space="preserve"
       id="flowRoot815"
       style="font-style:normal;font-weight:normal;font-size:40px;line-height:1.25;font-family:sans-serif;letter-spacing:0px;word-spacing:0px;fill:#000000;fill-opacity:1;stroke:none"><flowRegion
         id="flowRegion817"><rect
           id="rect819"
           width="630"
           height="225.71428"
           x="80"
           y="62.474678" /></flowRegion><flowPara
         id="flowPara821" /></flowRoot>    <flowRoot
       xml:space="preserve"
       id="flowRoot823"
       style="font-style:normal;font-weight:normal;font-size:40px;line-height:1.25;font-family:sans-serif;letter-spacing:0px;word-spacing:0px;fill:#000000;fill-opacity:1;stroke:none"><flowRegion
         id="flowRegion825"><rect
           id="rect827"
           width="595.71429"
           height="311.42856"
           x="71.428574"
           y="2.474679" /></flowRegion><flowPara
         id="flowPara829" /></flowRoot>    <path
       style="opacity:0.98999999;fill:#000000;fill-opacity:1;stroke:#000000;stroke-width:0.26499999;stroke-miterlimit:4;stroke-dasharray:none;stroke-opacity:1"
       d="m 14.857637,225.08773 -1.322917,1.32292 h 3.96875 l 1.322917,-1.32292 z"
       id="path887"
       inkscape:connector-curvature="0" />
    <path
       style="opacity:0.98999999;fill:#000000;fill-opacity:1;stroke:#000000;stroke-width:0.26499999;stroke-miterlimit:4;stroke-dasharray:none;stroke-opacity:1"
       d="m 22.001387,222.4419 -6.614584,6.61458 h 1.322917 l 6.614584,-6.61458 z"
       id="path889"
       inkscape:connector-curvature="0" />
    <path
       style="opacity:0.98999999;fill:#000000;fill-opacity:1;stroke:#000000;stroke-width:0.26499999;stroke-miterlimit:4;stroke-dasharray:none;stroke-opacity:1"
       d="m 23.85347,222.4419 -6.614584,6.61458 h 1.322917 l 6.614584,-6.61458 z"
       id="path889-8"
       inkscape:connector-curvature="0" />
    <path
       style="opacity:0.98999999;fill:#000000;fill-opacity:1;stroke:#000000;stroke-width:0.26499999;stroke-miterlimit:4;stroke-dasharray:none;stroke-opacity:1"
       d="m 23.059719,225.08773 -1.322916,1.32292 h 3.96875 l 1.322916,-1.32292 z"
       id="path887-8"
       inkscape:connector-curvature="0" />
    <text
       xml:space="preserve"
       style="font-style:normal;font-variant:normal;font-weight:normal;font-stretch:normal;font-size:10.58333302px;line-height:1.25;font-family:Loew;-inkscape-font-specification:Loew;letter-spacing:-1.24354184px;word-spacing:0px;fill:#000000;fill-opacity:1;stroke:none;stroke-width:0.26458332"
       x="12.712621"
       y="219.41809"
       id="text961"><tspan
         sodipodi:role="line"
         id="tspan959"
         x="12.712621"
         y="219.41809"
         style="letter-spacing:-1.24354184px;word-spacing:0px;stroke-width:0.26458332">SERGIX</tspan></text>
    <text
       xml:space="preserve"
       style="font-style:italic;font-variant:normal;font-weight:bold;font-stretch:normal;font-size:10.58333302px;line-height:1.25;font-family:Loew;-inkscape-font-specification:'Loew Bold Italic';letter-spacing:-1.00012505px;word-spacing:0px;fill:#000000;fill-opacity:1;stroke:none;stroke-width:0.26458332"
       x="13.37408"
       y="208.22055"
       id="text965"><tspan
         sodipodi:role="line"
         id="tspan963"
         x="13.37408"
         y="208.22055"
         style="font-style:italic;font-variant:normal;font-weight:bold;font-stretch:normal;font-family:Loew;-inkscape-font-specification:'Loew Bold Italic';letter-spacing:-1.00012505px;stroke-width:0.26458332">sergix</tspan></text>
    <text
       xml:space="preserve"
       style="font-style:italic;font-variant:normal;font-weight:bold;font-stretch:normal;font-size:10.58333302px;line-height:1.25;font-family:'Neue Montreal';-inkscape-font-specification:'Neue Montreal Bold Italic';letter-spacing:-0.53710425px;word-spacing:0px;fill:#000000;fill-opacity:1;stroke:none;stroke-width:0.26458332"
       x="13.56863"
       y="198.5103"
       id="text981"><tspan
         sodipodi:role="line"
         id="tspan979"
         x="13.56863"
         y="198.5103"
         style="font-style:italic;font-variant:normal;font-weight:bold;font-stretch:normal;font-family:'Neue Montreal';-inkscape-font-specification:'Neue Montreal Bold Italic';letter-spacing:-0.53710425px;stroke-width:0.26458332">SERGIX</tspan></text>
    <text
       xml:space="preserve"
       style="font-style:italic;font-variant:normal;font-weight:900;font-stretch:normal;font-size:10.58333302px;line-height:1.25;font-family:Roboto;-inkscape-font-specification:'Roboto Heavy Italic';letter-spacing:-0.88635415px;word-spacing:0px;fill:#000000;fill-opacity:1;stroke:none;stroke-width:0.26458332"
       x="13.601056"
       y="187.31554"
       id="text985"><tspan
         sodipodi:role="line"
         id="tspan983"
         x="13.601056"
         y="187.31554"
         style="font-style:italic;font-variant:normal;font-weight:900;font-stretch:normal;font-family:Roboto;-inkscape-font-specification:'Roboto Heavy Italic';letter-spacing:-0.88635415px;stroke-width:0.26458332">sergix</tspan></text>
    <text
       xml:space="preserve"
       style="font-style:italic;font-variant:normal;font-weight:bold;font-stretch:normal;font-size:10.58333302px;line-height:1.25;font-family:Marske;-inkscape-font-specification:'Marske Bold Italic';letter-spacing:0px;word-spacing:0px;fill:#000000;fill-opacity:1;stroke:none;stroke-width:0.26458332"
       x="13.492394"
       y="178.81328"
       id="text866"><tspan
         sodipodi:role="line"
         id="tspan864"
         x="13.492394"
         y="178.81328"
         style="font-style:normal;font-variant:normal;font-weight:500;font-stretch:normal;font-family:Marske;-inkscape-font-specification:'Marske Medium';letter-spacing:-0.50006247px;stroke-width:0.26458332">sergix</tspan></text>
    <g
       aria-label="sergix"
       style="font-style:normal;font-variant:normal;font-weight:900;font-stretch:normal;font-size:7.05555534px;line-height:1.25;font-family:Loew;-inkscape-font-specification:'Loew Heavy';letter-spacing:-0.45772916px;word-spacing:0px;fill:#000000;fill-opacity:1;stroke:none;stroke-width:0.26458332"
       id="text924">
      <path
         d="m 28.125494,145.65157 c -0.832556,0 -1.481667,0.35983 -1.481667,1.15711 0,0.71966 0.578555,0.91722 1.382889,1.13594 0.451555,0.11995 0.557389,0.13406 0.557389,0.32456 0,0.16227 -0.162278,0.22577 -0.352778,0.22577 -0.416278,0 -0.896056,-0.127 -1.312333,-0.38805 l -0.437445,0.71261 c 0.493889,0.32456 1.093611,0.50094 1.756833,0.50094 0.917223,0 1.495778,-0.41627 1.495778,-1.16416 0,-0.74084 -0.592667,-0.95956 -1.432278,-1.18534 -0.4445,-0.11994 -0.500944,-0.15522 -0.500944,-0.26811 0,-0.16227 0.148167,-0.23283 0.3175,-0.23283 0.324556,0 0.762,0.11994 1.135944,0.33161 l 0.402167,-0.75494 c -0.416278,-0.254 -0.966611,-0.40217 -1.531055,-0.39511 z"
         style="font-style:normal;font-variant:normal;font-weight:900;font-stretch:normal;font-size:7.05555534px;font-family:Loew;-inkscape-font-specification:'Loew Heavy';letter-spacing:-0.45772916px;stroke-width:0.26458332"
         id="path953"
         inkscape:connector-curvature="0" />
      <path
         d="m 31.64346,145.64451 c -1.023056,0 -1.848556,0.81844 -1.848556,1.83444 0,1.016 0.846667,1.83445 1.883833,1.83445 0.592667,0 1.040038,-0.31632 1.435149,-0.69026 l -0.553204,-0.49507 c -0.197556,0.19755 -0.486834,0.29633 -0.776111,0.29633 -0.409223,0 -0.776111,-0.23989 -0.790223,-0.64206 h 2.497667 v -0.29633 c 0,-1.016 -0.691444,-1.83444 -1.848555,-1.83444 z m 0.02117,0.87489 c 0.416278,0 0.663222,0.30339 0.663222,0.68439 h -1.326444 c 0,-0.37395 0.303389,-0.68439 0.663222,-0.68439 z"
         style="font-style:normal;font-variant:normal;font-weight:900;font-stretch:normal;font-size:7.05555534px;font-family:Loew;-inkscape-font-specification:'Loew Heavy';letter-spacing:-0.45772916px;stroke-width:0.26458332"
         id="path955"
         inkscape:connector-curvature="0"
         sodipodi:nodetypes="cssccsccsccsccs" />
      <path
         d="m 36.101689,145.65157 c -0.416278,0 -0.867833,0.254 -1.213556,0.71966 v -0.65616 h -1.241777 l -2.03e-4,2.90807 1.241268,1.05834 7.12e-4,-2.40008 c 0.338667,-0.40922 0.762,-0.62795 1.213556,-0.62795 z"
         style="font-style:normal;font-variant:normal;font-weight:900;font-stretch:normal;font-size:7.05555534px;font-family:Loew;-inkscape-font-specification:'Loew Heavy';letter-spacing:-0.45772916px;stroke-width:0.26458332"
         id="path957"
         inkscape:connector-curvature="0"
         sodipodi:nodetypes="ccccccccc" />
      <path
         d="m 37.52184,145.64451 c -0.966611,0 -1.531056,0.81844 -1.531056,1.83444 0,1.00895 0.564445,1.76389 1.531056,1.76389 0.4445,0 0.846667,-0.16227 1.135944,-0.47272 v 0.29633 c 0,0.49389 -0.366889,0.71262 -0.881944,0.70556 -0.423333,-0.007 -0.924278,-0.14817 -1.361722,-0.381 l -0.359834,0.79728 c 0.599723,0.32455 1.319389,0.51505 1.975556,0.52211 1.030111,0.007 1.876778,-0.45861 1.876778,-1.64395 v -3.35138 h -1.248834 v 0.43038 c -0.296333,-0.31044 -0.6985,-0.50094 -1.135944,-0.50094 z m 0.458611,1.05833 c 0.282222,0 0.536222,0.14111 0.677333,0.36689 v 0.77611 c -0.127,0.23989 -0.388055,0.40923 -0.677333,0.40923 -0.423333,0 -0.762,-0.34573 -0.762,-0.77612 0,-0.43038 0.338667,-0.77611 0.762,-0.77611 z"
         style="font-style:normal;font-variant:normal;font-weight:900;font-stretch:normal;font-size:7.05555534px;font-family:Loew;-inkscape-font-specification:'Loew Heavy';letter-spacing:-0.45772916px;stroke-width:0.26458332"
         id="path959"
         inkscape:connector-curvature="0" />
      <path
         style="font-style:normal;font-variant:normal;font-weight:900;font-stretch:normal;font-size:7.05555534px;font-family:Loew;-inkscape-font-specification:'Loew Heavy';letter-spacing:-0.45772916px;stroke-width:0.26458332"
         d="m 41.58176,149.24284 v -3.52777 h -1.248833 v 3.52777 z"
         id="path961"
         inkscape:connector-curvature="0" />
      <path
         d="m 44.332435,147.4719 1.248833,-1.74978 h -1.389944 l -0.5715,0.91017 -0.564445,-0.91017 h -1.411111 l 1.248834,1.74978 -1.27,1.778 h 1.389944 l 0.592667,-0.94545 0.585611,0.94545 h 1.411111 z"
         style="font-style:normal;font-variant:normal;font-weight:900;font-stretch:normal;font-size:7.05555534px;font-family:Loew;-inkscape-font-specification:'Loew Heavy';letter-spacing:-0.45772916px;stroke-width:0.26458332"
         id="path963"
         inkscape:connector-curvature="0" />
    </g>
    <path
       style="opacity:0.98999999;fill:#000000;fill-opacity:1;stroke:none;stroke-width:0.26499999;stroke-miterlimit:4;stroke-dasharray:none;stroke-opacity:1"
       d="m 34.887421,145.27536 -2e-6,-8.82305 H 20.413885 v 14.55208 l 14.473536,0 5e-6,-1.3229 H 33.646153 21.736802 v -11.90625 l 11.909351,0.002 c 0.0019,2.14531 -0.0102,5.35284 0,7.49813 z"
       id="path987"
       inkscape:connector-curvature="0"
       sodipodi:nodetypes="cccccccccccc" />
    <path
       style="opacity:0.98999999;fill:#000000;fill-opacity:1;stroke:none;stroke-width:0.26499999;stroke-miterlimit:4;stroke-dasharray:none;stroke-opacity:1"
       d="m 33.113886,148.62314 1.242304,1.05834 -1.242304,1.32291 z"
       id="path1003"
       inkscape:connector-curvature="0" />
    <path
       style="opacity:0.98999999;fill:#000000;fill-opacity:1;stroke:none;stroke-width:0.26499999;stroke-miterlimit:4;stroke-dasharray:none;stroke-opacity:1"
       d="m 40.332049,144.38981 c 0,0 0,0 0,0 z"
       id="path1047"
       inkscape:connector-curvature="0" />
    <path
       style="opacity:0.98999999;fill:#000000;fill-opacity:1;stroke:none;stroke-width:0.26499999;stroke-miterlimit:4;stroke-dasharray:none;stroke-opacity:1"
       d="m 40.257635,145.27536 c 0,0 0,0 0,0 z"
       id="path1049"
       inkscape:connector-curvature="0" />
    <path
       style="opacity:0.98999999;fill:#000000;fill-opacity:1;stroke:none;stroke-width:0.26499999;stroke-miterlimit:4;stroke-dasharray:none;stroke-opacity:1"
       d="m 40.332049,145.18356 v 0 0.0918 h 1.248503 v -0.99407 h -1.248503 v 0.99407"
       id="path1051"
       inkscape:connector-curvature="0" />
    <text
       xml:space="preserve"
       style="font-style:italic;font-variant:normal;font-weight:bold;font-stretch:normal;font-size:6.3499999px;line-height:1.25;font-family:Arial;-inkscape-font-specification:'Arial Bold Italic';letter-spacing:-0.45508334px;word-spacing:0px;fill:#000000;fill-opacity:1;stroke:none;stroke-width:0.26458332"
       x="60.517464"
       y="149.62051"
       id="text1057"><tspan
         sodipodi:role="line"
         id="tspan1055"
         x="60.517464"
         y="149.62051"
         style="font-style:normal;font-variant:normal;font-weight:900;font-stretch:normal;font-size:6.3499999px;font-family:Loew;-inkscape-font-specification:'Loew Heavy';letter-spacing:-0.45508334px;stroke-width:0.26458332">SERGIX</tspan></text>
    <path
       style="opacity:0.98999999;fill:#000000;fill-opacity:1;stroke:none;stroke-width:0.26499999;stroke-miterlimit:4;stroke-dasharray:none;stroke-opacity:1"
       d="m 70.105943,144.91898 0.04961,-8.55847 -14.471467,-0.061 -0.08061,14.70488 c 4.807976,0.0306 9.305804,-0.0523 14.504541,-0.061 l 0.0016,-1.3843 -1.274943,1.3843 H 67.776333 L 68.916312,149.6205 57.007,149.5287 v -11.90625 l 11.909351,0.002 c 0.0019,2.14531 -0.01433,5.14924 -0.0041,7.29453 z"
       id="path987-6"
       inkscape:connector-curvature="0"
       sodipodi:nodetypes="cccccccccccccc" />
    <text
       xml:space="preserve"
       style="font-style:italic;font-variant:normal;font-weight:bold;font-stretch:normal;font-size:10.58333302px;line-height:1.25;font-family:Arial;-inkscape-font-specification:'Arial Bold Italic';letter-spacing:0px;word-spacing:0px;fill:#000000;fill-opacity:1;stroke:none;stroke-width:0.26458332"
       x="103.60233"
       y="148.07913"
       id="text1078"><tspan
         sodipodi:role="line"
         id="tspan1076"
         x="103.60233"
         y="148.07913"
         style="font-style:normal;font-variant:normal;font-weight:900;font-stretch:normal;font-family:Loew;-inkscape-font-specification:'Loew Heavy';letter-spacing:-0.51858336px;stroke-width:0.26458332">SER</tspan><tspan
         sodipodi:role="line"
         x="103.60233"
         y="161.58087"
         style="font-style:normal;font-variant:normal;font-weight:900;font-stretch:normal;font-family:Loew;-inkscape-font-specification:'Loew Heavy';letter-spacing:-0.51858336px;stroke-width:0.26458332"
         id="tspan1082"
         dy="-5.2800012"
         dx="5.7249999">GIX</tspan></text>
    <path
       style="opacity:0.98999999;fill:#000000;fill-opacity:1;stroke:none;stroke-width:0.26499999;stroke-miterlimit:4;stroke-dasharray:none;stroke-opacity:1"
       d="M 131.53888,132.48356 H 99.788884 v 31.75 h 31.749996 v -3.96875 h -27.78125 v -23.8125 h 23.8125 v 19.84375 h 3.96875 z"
       id="path1088"
       inkscape:connector-curvature="0" />
    <g
       aria-label="SERGIX"
       style="font-style:normal;font-variant:normal;font-weight:900;font-stretch:normal;font-size:10.58333302px;line-height:1.25;font-family:Loew;-inkscape-font-specification:'Loew Heavy';letter-spacing:0px;word-spacing:0px;fill:#000000;fill-opacity:1;stroke:none;stroke-width:0.26458332"
       id="text1176">
      <path
         d="m 178.03676,138.59544 c -1.72509,0.0106 -3.07975,0.762 -3.07975,2.42358 0,1.44992 1.2065,1.8415 2.88925,2.24367 1.21708,0.30691 1.42875,0.34925 1.42875,0.77258 0,0.33867 -0.35984,0.48683 -0.77259,0.48683 -0.94191,0 -2.01083,-0.27516 -2.97391,-0.81491 l -0.889,1.48166 c 1.016,0.67734 2.26483,1.03717 3.64066,1.03717 1.905,0 3.10092,-0.86783 3.10092,-2.44475 0,-1.51342 -1.23825,-1.93675 -2.97392,-2.40242 -1.15358,-0.28575 -1.29116,-0.381 -1.29116,-0.61383 0,-0.33867 0.32808,-0.48683 0.70908,-0.48683 0.73025,0 1.72508,0.254 2.57175,0.68791 l 0.83608,-1.53458 c -0.86783,-0.52917 -2.01083,-0.83608 -3.19616,-0.83608 z"
         style="font-style:normal;font-variant:normal;font-weight:900;font-stretch:normal;font-family:Loew;-inkscape-font-specification:'Loew Heavy';stroke-width:0.26458332"
         id="path1178" />
      <path
         id="path1182"
         style="font-style:normal;font-variant:normal;font-weight:900;font-stretch:normal;font-family:Loew;-inkscape-font-specification:'Loew Heavy';stroke-width:0.26458332"
         d="m 188.58817,138.70126 v 1.78858 l 3.18079,0.0106 -2.76373,3.35491 h 3.94906 l 1.43934,2.25425 h 2.29658 l -1.66158,-2.51883 c 1.02658,-0.34925 1.4605,-1.10067 1.4605,-2.30717 0,-1.80975 -0.96309,-2.57175 -3.37609,-2.57175 z m 3.18079,1.79918 h 1.43933 c 0.87842,0 1.2065,0.27516 1.2065,0.91016 0,0.64559 -0.32808,0.91017 -1.2065,0.91017 h -1.43933 z m -3.18079,-0.0106 v -1.78858 h -6.06425 v 7.40833 h 6.12775 v -1.78858 h -4.13808 v -1.11125 h 3.78883 v -1.69333 h -3.78883 v -1.02659 z"
         inkscape:connector-curvature="0"
         sodipodi:nodetypes="ccccccccssccsssccccccccccccccc" />
      <path
         d="m 201.59079,138.59544 c -2.10608,-0.0106 -4.09575,1.37583 -4.09575,3.82058 0,2.0955 1.778,3.79942 3.96875,3.79942 1.24883,0 2.40242,-0.41275 3.29142,-1.12184 v -3.2385 h -3.16442 v 1.41817 h 1.27 v 0.70908 c -0.40217,0.23284 -0.86783,0.37042 -1.397,0.37042 -1.11125,0 -1.88383,-0.86783 -1.88383,-1.93675 0,-1.23825 0.94191,-1.97908 2.01083,-1.97908 0.5715,0 1.15358,0.20108 1.61925,0.60325 l 1.30175,-1.36525 c -0.8255,-0.70909 -1.87325,-1.06892 -2.921,-1.0795 z"
         style="font-style:normal;font-variant:normal;font-weight:900;font-stretch:normal;font-family:Loew;-inkscape-font-specification:'Loew Heavy';stroke-width:0.26458332"
         id="path1184" />
      <path
         d="m 208.20207,146.1096 v -7.39775 h -1.98967 v 7.39775 z"
         style="font-style:normal;font-variant:normal;font-weight:900;font-stretch:normal;font-family:Loew;-inkscape-font-specification:'Loew Heavy';stroke-width:0.26458332"
         id="path1186" />
      <path
         d="m 214.35181,142.33135 2.49766,-3.63008 h -2.39183 l -1.35467,2.02142 -1.34408,-2.02142 h -2.44475 l 2.49767,3.64067 -2.6035,3.76766 h 2.39183 l 1.4605,-2.16958 1.4605,2.16958 h 2.43417 z"
         style="font-style:normal;font-variant:normal;font-weight:900;font-stretch:normal;font-family:Loew;-inkscape-font-specification:'Loew Heavy';stroke-width:0.26458332"
         id="path1188" />
    </g>
  </g>
</svg>
