<?xml version="1.0" encoding="UTF-8" standalone="no"?>
<svg
   xmlns:dc="http://purl.org/dc/elements/1.1/"
   xmlns:cc="http://creativecommons.org/ns#"
   xmlns:rdf="http://www.w3.org/1999/02/22-rdf-syntax-ns#"
   xmlns:svg="http://www.w3.org/2000/svg"
   xmlns="http://www.w3.org/2000/svg"
   xmlns:sodipodi="http://sodipodi.sourceforge.net/DTD/sodipodi-0.dtd"
   xmlns:inkscape="http://www.inkscape.org/namespaces/inkscape"
   id="svg1511"
   version="1.1"
   viewBox="0 0 98.913628 15.620884"
   height="15.620885mm"
   width="98.913628mm"
   sodipodi:docname="sergix.svg"
   inkscape:version="0.92.2 (5c3e80d, 2017-08-06)">
  <sodipodi:namedview
     pagecolor="#ffffff"
     bordercolor="#666666"
     borderopacity="1"
     objecttolerance="10"
     gridtolerance="10"
     guidetolerance="10"
     inkscape:pageopacity="0"
     inkscape:pageshadow="2"
     inkscape:window-width="1366"
     inkscape:window-height="745"
     id="namedview9"
     showgrid="false"
     fit-margin-top="0"
     fit-margin-left="0"
     fit-margin-right="0"
     fit-margin-bottom="0"
     inkscape:zoom="1.5244711"
     inkscape:cx="154.50467"
     inkscape:cy="-11.33774"
     inkscape:window-x="-4"
     inkscape:window-y="-4"
     inkscape:window-maximized="1"
     inkscape:current-layer="svg1511" />
  <defs
     id="defs1505">
    <pattern
       y="0"
       x="0"
       height="6"
       width="6"
       patternUnits="userSpaceOnUse"
       id="EMFhbasepattern" />
    <pattern
       y="0"
       x="0"
       height="6"
       width="6"
       patternUnits="userSpaceOnUse"
       id="EMFhbasepattern-8" />
  </defs>
  <metadata
     id="metadata1508">
    <rdf:RDF>
      <cc:Work
         rdf:about="">
        <dc:format>image/svg+xml</dc:format>
        <dc:type
           rdf:resource="http://purl.org/dc/dcmitype/StillImage" />
        <dc:title></dc:title>
      </cc:Work>
    </rdf:RDF>
  </metadata>
  <path
     id="path873"
     d="m 10.732056,9.8635931 c 0.761994,0.126999 1.015993,0.5503289 1.015993,0.9736599 0,0.677328 -0.465664,1.164158 -2.2436498,1.164158 -0.888993,0 -1.502822,-0.105833 -1.926152,-0.296332 -0.402164,-0.232831 -0.592663,-0.550329 -0.613829,-1.037158 H 0.12763562 c 0.021166,4.233301 4.78363128,4.825964 9.16509858,4.825964 6.3711188,0 9.2285968,-1.650988 9.2285968,-5.143462 0,-2.4341489 -1.777986,-3.7676389 -4.635465,-4.1909689 L 7.1125832,5.1646281 C 6.5410882,5.0799581 6.371756,4.8259641 6.371756,4.4238001 c 0,-0.613828 0.5714952,-1.037159 2.2648162,-1.037159 0.634995,0 1.269991,0.08467 1.7779858,0.296332 0.507997,0.211665 0.867827,0.571495 0.867827,1.164157 H 17.86517 C 17.674671,1.7991531 15.028857,0.12699905 8.6365722,0.12699905 c -4.6566318,0 -8.29727148,1.01599205 -8.29727148,4.74129805 0,2.010818 1.14299148,3.619473 3.91580428,4.021637 z"
     style="fill:none;stroke:#000000;stroke-width:0.2539981px;stroke-linecap:butt;stroke-linejoin:miter;stroke-miterlimit:4;stroke-dasharray:none;stroke-opacity:1"
     inkscape:connector-curvature="0" />
  <path
     id="path875"
     d="M 47.709947,0.63499505 44.090476,4.2544681 h 1.100656 c 0.952494,0 1.650989,0.253998 1.650989,1.354657 0,0.888993 -0.465664,1.33349 -1.566323,1.33349 h -3.87347 c -7.683442,8.8687669 -10.24459,8.0432729 -0.148164,8.0432729 v -4.4238 h 4.021634 c 1.037159,0 1.39699,0.656162 1.46049,1.714487 0.105833,1.672154 0.105833,2.285983 0.317497,2.709313 h 6.180622 c -0.359831,-0.444496 -0.634995,-1.037159 -0.698495,-1.69332 L 52.281915,10.159925 C 52.197245,8.9111001 51.498753,8.1914391 50.673259,7.9586071 v -0.04233 c 1.629822,-0.486829 2.201317,-1.926152 2.201317,-3.280809 0,-1.566321 -0.888995,-2.963311 -1.94732,-3.471307 C 50.165264,0.78316405 49.233936,0.65616505 47.709947,0.63499805 Z M 28.173259,11.493414 H 25.104116 V 9.5672621 h 5.016463 l -1.94732,1.9261519 7.408278,-7.4082779 -1.968484,1.989652 h -8.508937 v -1.947319 h 9.588429 V 0.63499505 H 19.431491 V 14.985888 c 6.053622,0.127 4.656633,0.592663 8.741768,-3.492474 z M 35.581537,4.0851361 39.03168,0.63499505 h -3.450143 z"
     style="fill:none;stroke:#000000;stroke-width:0.27516463px;stroke-linecap:butt;stroke-linejoin:miter;stroke-miterlimit:4;stroke-dasharray:none;stroke-opacity:1"
     inkscape:connector-curvature="0" />
  <path
     id="path877"
     d="m 64.177491,10.075258 h 2.349484 c -0.402164,1.079492 -1.333492,1.799154 -3.174976,1.799154 -2.815146,0 -4.233304,-1.39699 -4.233304,-4.0639699 0,-2.920978 1.460489,-4.06397 3.788807,-4.06397 0.740828,0 1.375822,0.08467 1.92615,0.338664 0.529164,0.275165 0.952495,0.740828 1.100659,1.481656 h 6.392288 c -0.444497,-3.704139 -3.428976,-5.43979305 -9.757761,-5.43979305 -4.339135,0 -9.355598,1.46048905 -9.355598,7.74694205 0,6.6462839 5.39746,7.6199439 9.376764,7.6199439 3.259643,0 5.122294,-0.507997 6.582783,-1.799153 l 0.634997,1.291156 h 2.434148 V 6.8156161 h -8.064441 z"
     style="fill:none;stroke:#000000;stroke-width:0.2539981px;stroke-linecap:butt;stroke-linejoin:miter;stroke-miterlimit:4;stroke-dasharray:none;stroke-opacity:1"
     inkscape:connector-curvature="0" />
  <path
     id="path879"
     d="M 73.914086,14.985888 H 79.58671 V 0.63499505 h -5.672624 z"
     style="fill:none;stroke:#000000;stroke-width:0.2539981px;stroke-linecap:butt;stroke-linejoin:miter;stroke-miterlimit:4;stroke-dasharray:none;stroke-opacity:1"
     inkscape:connector-curvature="0" />
  <path
     id="path881"
     d="m 79.332713,14.985888 h 7.006113 l 2.645815,-3.682972 2.666979,3.682972 h 6.98495 L 92.180784,7.4929441 97.78991,0.63499505 H 91.143625 L 88.984641,3.7676391 86.825657,0.63499505 h -6.646283 l 5.609124,6.85794905 z"
     style="fill:none;stroke:#000000;stroke-width:0.2539981px;stroke-linecap:butt;stroke-linejoin:miter;stroke-miterlimit:4;stroke-dasharray:none;stroke-opacity:1"
     inkscape:connector-curvature="0" />
</svg>
