<?xml version="1.0" encoding="UTF-8" standalone="no"?><!DOCTYPE svg PUBLIC "-//W3C//DTD SVG 1.1//EN" "http://www.w3.org/Graphics/SVG/1.1/DTD/svg11.dtd"><svg width="100%" height="100%" viewBox="0 0 1098 407" version="1.1" xmlns="http://www.w3.org/2000/svg" xmlns:xlink="http://www.w3.org/1999/xlink" xml:space="preserve" xmlns:serif="http://www.serif.com/" style="fill-rule:evenodd;clip-rule:evenodd;stroke-linejoin:round;stroke-miterlimit:1.5;"><g><g><rect x="113.744" y="159.841" width="129.674" height="86.438" style="fill:none;stroke:#ef446b;stroke-width:3.89px;"/><path d="M113.744,159.841l25.935,-57.625l103.739,-14.406l38.902,43.218l-18.165,40.332l31.132,17.293l0,43.219l-25.934,72.032l-116.707,-57.626l-38.902,0l0,-86.437Z" style="fill:none;stroke:#ef446b;stroke-width:3.89px;"/><path d="M113.744,159.841l129.674,-72.031l0,72.031l-129.674,0Z" style="fill:none;stroke:#ef446b;stroke-width:3.89px;"/><path d="M243.418,159.841l51.869,28.812" style="fill:none;stroke:#ef446b;stroke-width:3.89px;"/><path d="M243.418,159.841l51.869,57.625" style="fill:none;stroke:#ef446b;stroke-width:3.89px;"/><path d="M113.744,159.841l-25.934,72.031l25.934,14.406" style="fill:none;stroke:#ef446b;stroke-width:3.89px;"/><path d="M113.744,246.278l77.804,72.032l38.902,-33.615" style="fill:none;stroke:#ef446b;stroke-width:3.89px;"/><path d="M113.744,246.278l129.674,-86.437" style="fill:none;stroke:#ef446b;stroke-width:3.89px;"/></g><g><path d="M362.413,217.317c0,12.924 13.298,37.562 52.024,37.562c33.89,0 49.603,-16.42 49.603,-35.212c0,-19.975 -12.087,-31.489 -35.073,-35.249l-21.796,-3.525c-10.898,-2.115 -18.164,-7.05 -18.164,-14.099c0,-7.05 7.266,-14.1 24.219,-14.1c18.164,0 25.429,9.4 25.429,16.449l24.176,0c0,-12.924 -14.504,-36.387 -49.605,-36.387c-32.68,0 -48.393,15.247 -48.393,34.038c0,19.974 12.087,30.314 35.072,34.073l21.797,3.525c13.32,2.115 18.164,7.05 18.164,15.275c0,7.049 -7.266,15.274 -25.429,15.274c-19.375,0 -27.847,-10.575 -27.847,-17.624l-24.177,0Z" style="fill:#231f20;fill-rule:nonzero;"/><path d="M506.413,184.436c3.63,-18.81 15.732,-31.742 36.306,-31.742c19.363,0 32.675,12.932 35.096,31.742l-71.402,0Zm65.351,34.047c-3.631,8.229 -14.523,16.458 -29.045,16.458c-19.364,0 -33.886,-12.932 -36.306,-32.916l93.186,0c0,0 1.21,-4.691 1.21,-11.726c0,-32.903 -25.415,-57.543 -58.09,-57.543c-35.096,0 -60.511,24.64 -60.511,61.061c0,36.422 25.415,61.062 60.511,61.062c31.465,0 48.408,-21.114 54.459,-36.396l-25.414,0Z" style="fill:#231f20;fill-rule:nonzero;"/><path d="M626.24,252.529l24.174,0l0,-71.881c0,-16.209 8.471,-24.43 25.414,-24.43l19.364,0l0,-21.113l-21.784,0c-14.523,0 -19.364,5.865 -22.994,10.556l-1.209,0l-2.417,-10.556l-20.548,0l0,117.424Z" style="fill:#231f20;fill-rule:nonzero;"/><path d="M760.556,224.37c-19.372,0 -33.901,-14.1 -33.901,-35.251c0,-21.15 14.529,-35.251 33.901,-35.251c19.372,0 33.901,14.101 33.901,35.251c0,21.151 -14.529,35.251 -33.901,35.251Zm-54.449,35.218c1.209,16.458 15.713,42.272 55.659,42.272c36.317,0 56.865,-21.112 56.865,-51.676l0,-115.079l-21.757,0l-2.417,12.92l-1.211,0c-3.632,-4.713 -14.529,-15.269 -37.533,-15.269c-30.267,0 -53.232,22.288 -53.232,56.363c0,34.076 22.965,56.363 53.232,56.363c23.004,0 31.479,-8.21 37.533,-14.074l1.211,0l0,18.776c0,17.633 -13.319,30.564 -32.691,30.564c-19.372,0 -30.268,-10.58 -31.479,-21.16l-24.18,0Z" style="fill:#231f20;fill-rule:nonzero;"/><path d="M850.125,252.529l24.174,0l0,-117.424l-24.174,0l0,117.424Zm-1.21,-139.769l26.594,0l0,-24.636l-26.594,0l0,24.636Z" style="fill:#231f20;fill-rule:nonzero;"/><path d="M891.26,252.529l27.834,0l29.045,-43.447l4.841,0l29.045,43.447l27.835,0l-41.147,-61.061l39.937,-56.363l-27.835,0l-27.835,39.924l-4.841,0l-27.834,-39.924l-27.835,0l39.937,56.363l-41.147,61.061Z" style="fill:#231f20;fill-rule:nonzero;"/></g></g></svg>